<svg width="64" height="74" viewBox="0 0 64 74" fill="none" xmlns="http://www.w3.org/2000/svg">
<mask id="mask0_8846_33777" style="mask-type:alpha" maskUnits="userSpaceOnUse" x="0" y="0" width="64" height="74">
<rect width="64" height="74" fill="url(#paint0_linear_8846_33777)"/>
</mask>
<g mask="url(#mask0_8846_33777)">
<g clip-path="url(#clip0_8846_33777)">
<path d="M64.0896 151.845C63.5936 151.845 63.1179 151.648 62.7672 151.297C62.4165 150.946 62.2195 150.471 62.2195 149.975C62.2195 149.479 62.4165 149.003 62.7672 148.652C63.1179 148.302 63.5936 148.105 64.0896 148.105V142.787C63.5936 142.787 63.1179 142.59 62.7672 142.239C62.4165 141.889 62.2195 141.413 62.2195 140.917C62.2195 140.421 62.4165 139.945 62.7672 139.595C63.1179 139.244 63.5936 139.047 64.0896 139.047V133.73C63.5936 133.73 63.1179 133.533 62.7672 133.182C62.4165 132.831 62.2195 132.356 62.2195 131.86C62.2195 131.364 62.4165 130.888 62.7672 130.537C63.1179 130.187 63.5936 129.99 64.0896 129.99V124.685C63.5936 124.685 63.1179 124.488 62.7672 124.137C62.4165 123.786 62.2195 123.311 62.2195 122.815C62.2195 122.319 62.4165 121.843 62.7672 121.492C63.1179 121.142 63.5936 120.945 64.0896 120.945V115.627C63.5936 115.627 63.1179 115.43 62.7672 115.08C62.4165 114.729 62.2195 114.253 62.2195 113.757C62.2195 113.261 62.4165 112.786 62.7672 112.435C63.1179 112.084 63.5936 111.887 64.0896 111.887V106.582C63.5936 106.582 63.1179 106.385 62.7672 106.035C62.4165 105.684 62.2195 105.208 62.2195 104.712C62.2195 104.216 62.4165 103.741 62.7672 103.39C63.1179 103.039 63.5936 102.842 64.0896 102.842V97.5249C63.5936 97.5249 63.1179 97.3279 62.7672 96.9772C62.4165 96.6265 62.2195 96.1509 62.2195 95.6549C62.2195 95.159 62.4165 94.6833 62.7672 94.3326C63.1179 93.9819 63.5936 93.7849 64.0896 93.7849V88.4802C63.5936 88.4802 63.1179 88.2831 62.7672 87.9324C62.4165 87.5818 62.2195 87.1061 62.2195 86.6101C62.2195 86.1142 62.4165 85.6385 62.7672 85.2878C63.1179 84.9371 63.5936 84.7401 64.0896 84.7401V79.4226C63.843 79.4242 63.5985 79.377 63.3703 79.2837C63.142 79.1905 62.9344 79.053 62.7595 78.8792C62.5846 78.7054 62.4458 78.4987 62.3511 78.271C62.2563 78.0434 62.2076 77.7992 62.2076 77.5527C62.2076 77.3061 62.2563 77.0619 62.3511 76.8343C62.4458 76.6066 62.5846 76.3999 62.7595 76.2261C62.9344 76.0523 63.142 75.9149 63.3703 75.8216C63.5985 75.7283 63.843 75.6811 64.0896 75.6827V70.3651C63.5936 70.3651 63.1179 70.1681 62.7672 69.8174C62.4165 69.4667 62.2195 68.9911 62.2195 68.4951C62.2195 67.9992 62.4165 67.5235 62.7672 67.1728C63.1179 66.8221 63.5936 66.6251 64.0896 66.6251V61.3203C63.5936 61.3203 63.1179 61.1233 62.7672 60.7726C62.4165 60.4219 62.2195 59.9463 62.2195 59.4503C62.2195 58.9544 62.4165 58.4787 62.7672 58.128C63.1179 57.7773 63.5936 57.5803 64.0896 57.5803V52.2628C63.5936 52.2628 63.1179 52.0658 62.7672 51.7151C62.4165 51.3644 62.2195 50.8888 62.2195 50.3928C62.2195 49.8968 62.4165 49.4212 62.7672 49.0705C63.1179 48.7198 63.5936 48.5228 64.0896 48.5228V43.218C63.5936 43.218 63.1179 43.021 62.7672 42.6703C62.4165 42.3196 62.2195 41.844 62.2195 41.348C62.2195 40.852 62.4165 40.3764 62.7672 40.0257C63.1179 39.675 63.5936 39.478 64.0896 39.478V34.1605C63.5936 34.1605 63.1179 33.9635 62.7672 33.6128C62.4165 33.2621 62.2195 32.7865 62.2195 32.2905C62.2195 31.7945 62.4165 31.3189 62.7672 30.9682C63.1179 30.6175 63.5936 30.4205 64.0896 30.4205V25.103C63.5936 25.103 63.1179 24.906 62.7672 24.5553C62.4165 24.2046 62.2195 23.729 62.2195 23.233C62.2195 22.737 62.4165 22.2614 62.7672 21.9107C63.1179 21.56 63.5936 21.363 64.0896 21.363V8.78168H0V21.3757C0.49596 21.3757 0.971608 21.5727 1.32231 21.9234C1.673 22.2741 1.87002 22.7497 1.87002 23.2457C1.87002 23.7417 1.673 24.2173 1.32231 24.568C0.971608 24.9187 0.49596 25.1157 0 25.1157V30.4332C0.49596 30.4332 0.971608 30.6302 1.32231 30.9809C1.673 31.3316 1.87002 31.8073 1.87002 32.3032C1.87002 32.7992 1.673 33.2748 1.32231 33.6255C0.971608 33.9762 0.49596 34.1732 0 34.1732V39.4907C0.245575 39.4907 0.488746 39.5391 0.715627 39.6331C0.942509 39.727 1.14866 39.8648 1.32231 40.0384C1.49595 40.2121 1.6337 40.4182 1.72768 40.6451C1.82165 40.872 1.87002 41.1152 1.87002 41.3607C1.87002 41.6063 1.82165 41.8495 1.72768 42.0764C1.6337 42.3032 1.49595 42.5094 1.32231 42.683C1.14866 42.8567 0.942509 42.9944 0.715627 43.0884C0.488746 43.1824 0.245575 43.2308 0 43.2308V48.5355C0.49596 48.5355 0.971608 48.7325 1.32231 49.0832C1.673 49.4339 1.87002 49.9096 1.87002 50.4055C1.87002 50.9015 1.673 51.3771 1.32231 51.7278C0.971608 52.0785 0.49596 52.2756 0 52.2756V57.593C0.49596 57.593 0.971608 57.79 1.32231 58.1407C1.673 58.4914 1.87002 58.9671 1.87002 59.463C1.87002 59.959 1.673 60.4346 1.32231 60.7853C0.971608 61.136 0.49596 61.3331 0 61.3331V66.6378C0.245575 66.6378 0.488746 66.6862 0.715627 66.7801C0.942509 66.8741 1.14866 67.0119 1.32231 67.1855C1.49595 67.3592 1.6337 67.5653 1.72768 67.7922C1.82165 68.0191 1.87002 68.2623 1.87002 68.5078C1.87002 68.7534 1.82165 68.9966 1.72768 69.2235C1.6337 69.4503 1.49595 69.6565 1.32231 69.8301C1.14866 70.0038 0.942509 70.1415 0.715627 70.2355C0.488746 70.3295 0.245575 70.3779 0 70.3779V75.6953C0.49596 75.6953 0.971608 75.8923 1.32231 76.243C1.673 76.5937 1.87002 77.0694 1.87002 77.5653C1.87002 78.0613 1.673 78.537 1.32231 78.8877C0.971608 79.2384 0.49596 79.4354 0 79.4354V84.7528C0.49596 84.7528 0.971608 84.9499 1.32231 85.3006C1.673 85.6513 1.87002 86.1269 1.87002 86.6229C1.87002 87.1188 1.673 87.5945 1.32231 87.9452C0.971608 88.2959 0.49596 88.4929 0 88.4929V93.7977C0.49596 93.7977 0.971608 93.9947 1.32231 94.3454C1.673 94.6961 1.87002 95.1718 1.87002 95.6677C1.87002 96.1637 1.673 96.6393 1.32231 96.99C0.971608 97.3407 0.49596 97.5377 0 97.5377V102.855C0.49596 102.855 0.971608 103.052 1.32231 103.403C1.673 103.754 1.87002 104.229 1.87002 104.725C1.87002 105.221 1.673 105.697 1.32231 106.048C0.971608 106.398 0.49596 106.595 0 106.595V111.9C0.49596 111.9 0.971608 112.097 1.32231 112.448C1.673 112.798 1.87002 113.274 1.87002 113.77C1.87002 114.266 1.673 114.742 1.32231 115.092C0.971608 115.443 0.49596 115.64 0 115.64V120.958C0.49596 120.958 0.971608 121.155 1.32231 121.505C1.673 121.856 1.87002 122.332 1.87002 122.828C1.87002 123.324 1.673 123.799 1.32231 124.15C0.971608 124.501 0.49596 124.698 0 124.698V130.002C0.245575 130.002 0.488746 130.051 0.715627 130.145C0.942509 130.239 1.14866 130.376 1.32231 130.55C1.49595 130.724 1.6337 130.93 1.72768 131.157C1.82165 131.384 1.87002 131.627 1.87002 131.872C1.87002 132.118 1.82165 132.361 1.72768 132.588C1.6337 132.815 1.49595 133.021 1.32231 133.195C1.14866 133.368 0.942509 133.506 0.715627 133.6C0.488746 133.694 0.245575 133.742 0 133.742V139.06C0.49596 139.06 0.971608 139.257 1.32231 139.608C1.673 139.958 1.87002 140.434 1.87002 140.93C1.87002 141.426 1.673 141.901 1.32231 142.252C0.971608 142.603 0.49596 142.8 0 142.8V148.117C0.49596 148.117 0.971608 148.314 1.32231 148.665C1.673 149.016 1.87002 149.491 1.87002 149.987C1.87002 150.483 1.673 150.959 1.32231 151.31C0.971608 151.66 0.49596 151.857 0 151.857V164.426H64.0896V151.845ZM1.59015 13.374C1.59015 12.7853 1.76474 12.2098 2.09183 11.7202C2.41892 11.2307 2.88383 10.8492 3.42776 10.6239C3.9717 10.3986 4.57022 10.3396 5.14766 10.4545C5.7251 10.5693 6.25551 10.8528 6.67182 11.2691C7.08813 11.6855 7.37164 12.2159 7.48649 12.7933C7.60135 13.3707 7.5424 13.9693 7.3171 14.5132C7.09179 15.0571 6.71025 15.522 6.22072 15.8491C5.7312 16.1762 5.15567 16.3508 4.56692 16.3508C3.77773 16.3498 3.02116 16.0359 2.46312 15.4778C1.90508 14.9198 1.59114 14.1632 1.59014 13.374L1.59015 13.374ZM56.5204 13.374C56.5204 12.7853 56.695 12.2098 57.0221 11.7202C57.3492 11.2307 57.8141 10.8492 58.358 10.6239C58.902 10.3986 59.5005 10.3396 60.0779 10.4545C60.6554 10.5693 61.1858 10.8528 61.6021 11.2691C62.0184 11.6855 62.3019 12.2159 62.4168 12.7933C62.5316 13.3707 62.4727 13.9693 62.2474 14.5132C62.0221 15.0571 61.6405 15.522 61.151 15.8491C60.6615 16.1762 60.0859 16.3508 59.4972 16.3508C58.708 16.3498 57.9514 16.0359 57.3934 15.4778C56.8353 14.9198 56.5214 14.1632 56.5204 13.374L56.5204 13.374ZM1.59015 159.859C1.59015 159.27 1.76474 158.695 2.09183 158.205C2.41892 157.716 2.88383 157.334 3.42776 157.109C3.9717 156.883 4.57022 156.825 5.14766 156.939C5.7251 157.054 6.25551 157.338 6.67182 157.754C7.08813 158.17 7.37164 158.701 7.48649 159.278C7.60135 159.856 7.5424 160.454 7.3171 160.998C7.09179 161.542 6.71025 162.007 6.22072 162.334C5.7312 162.661 5.15567 162.836 4.56692 162.836C3.77774 162.835 3.02117 162.521 2.46313 161.963C1.9051 161.405 1.59115 160.648 1.59014 159.859H1.59015ZM56.5204 159.859C56.5204 159.27 56.695 158.695 57.0221 158.205C57.3492 157.716 57.8141 157.334 58.358 157.109C58.902 156.883 59.5005 156.825 60.0779 156.939C60.6554 157.054 61.1858 157.338 61.6021 157.754C62.0184 158.17 62.3019 158.701 62.4168 159.278C62.5316 159.856 62.4727 160.454 62.2474 160.998C62.0221 161.542 61.6405 162.007 61.151 162.334C60.6615 162.661 60.0859 162.836 59.4972 162.836C58.708 162.835 57.9514 162.521 57.3934 161.963C56.8354 161.405 56.5214 160.648 56.5204 159.859H56.5204Z" fill="#017481"/>
<path d="M36.4749 20.5052H37.8906C37.9531 20.5052 38.013 20.53 38.0571 20.5742C38.1013 20.6183 38.1261 20.6782 38.1261 20.7406V26.0099C38.1261 26.0724 38.1013 26.1323 38.0571 26.1764C38.013 26.2206 37.9531 26.2454 37.8906 26.2454H36.4736C36.4119 26.2454 36.3527 26.2208 36.309 26.1772C36.2654 26.1335 36.2408 26.0743 36.2408 26.0126V20.7392C36.2409 20.6772 36.2655 20.6176 36.3094 20.5737C36.3533 20.5298 36.4128 20.5052 36.4749 20.5052Z" fill="#C2C5C6"/>
<path d="M35.4181 26.0126V20.7406C35.4183 20.6786 35.394 20.619 35.3503 20.5749C35.3067 20.5307 35.2474 20.5057 35.1853 20.5052H33.7698C33.707 20.505 33.6467 20.5297 33.6021 20.5738C33.5575 20.6179 33.5321 20.6779 33.5315 20.7406V26.0126C33.5318 26.0435 33.5383 26.0741 33.5504 26.1026C33.5626 26.131 33.5802 26.1568 33.6024 26.1784C33.6245 26.2 33.6507 26.2171 33.6794 26.2286C33.7081 26.2401 33.7388 26.2458 33.7698 26.2454H35.1854C35.2159 26.2455 35.2462 26.2395 35.2745 26.2278C35.3028 26.2161 35.3285 26.199 35.3501 26.1773C35.3717 26.1557 35.3889 26.13 35.4005 26.1018C35.4122 26.0735 35.4182 26.0432 35.4181 26.0126Z" fill="#C2C5C6"/>
<path d="M31.0632 20.5052H32.4775C32.5399 20.5052 32.5998 20.53 32.644 20.5742C32.6881 20.6183 32.7129 20.6782 32.7129 20.7406V26.0126C32.7129 26.0744 32.6884 26.1336 32.6447 26.1772C32.6011 26.2209 32.5419 26.2454 32.4801 26.2454H31.0604C30.9987 26.2454 30.9395 26.2209 30.8958 26.1772C30.8522 26.1336 30.8276 26.0744 30.8276 26.0126V20.7407C30.8276 20.7098 30.8337 20.6791 30.8456 20.6506C30.8574 20.622 30.8747 20.596 30.8966 20.5741C30.9185 20.5523 30.9444 20.5349 30.973 20.5231C31.0016 20.5113 31.0322 20.5052 31.0632 20.5052Z" fill="#C2C5C6"/>
<path d="M28.3512 20.5052H29.7668C29.8292 20.5052 29.8891 20.53 29.9333 20.5742C29.9774 20.6183 30.0022 20.6782 30.0022 20.7406V26.0099C30.0022 26.0724 29.9774 26.1323 29.9333 26.1764C29.8891 26.2206 29.8292 26.2454 29.7668 26.2454H28.3512C28.2895 26.2454 28.2303 26.2208 28.1866 26.1772C28.1429 26.1335 28.1184 26.0743 28.1184 26.0126V20.7379C28.1184 20.6762 28.1429 20.617 28.1866 20.5734C28.2303 20.5297 28.2895 20.5052 28.3512 20.5052Z" fill="#C2C5C6"/>
<path d="M25.6443 20.5052H27.06C27.1225 20.5052 27.1824 20.53 27.2265 20.5742C27.2707 20.6183 27.2955 20.6782 27.2955 20.7406V26.0099C27.2955 26.0724 27.2707 26.1323 27.2265 26.1764C27.1824 26.2206 27.1225 26.2454 27.06 26.2454H25.6416C25.5799 26.2454 25.5207 26.2208 25.477 26.1772C25.4333 26.1335 25.4088 26.0743 25.4088 26.0126V20.7407C25.4088 20.7098 25.4149 20.6791 25.4267 20.6506C25.4386 20.622 25.4559 20.596 25.4778 20.5742C25.4996 20.5523 25.5256 20.5349 25.5542 20.5231C25.5828 20.5113 25.6134 20.5052 25.6443 20.5052V20.5052Z" fill="#C2C5C6"/>
<path d="M47.2015 0H16.8807V23.2339H47.2015V0Z" fill="#9DA0A1"/>
<path d="M16.8811 20.9112V23.2341H16.9307H47.1182H47.2021V20.9112H47.1182H16.8811Z" fill="#8B8F90"/>
<path d="M16.8811 16.2641V18.587H16.9307H47.1182H47.2021V16.2641H47.1182H16.8811Z" fill="#8B8F90"/>
<path d="M16.8811 11.617V13.9399H16.9307H47.1182H47.2021V11.617H47.1182H16.8811Z" fill="#8B8F90"/>
<path d="M16.8811 6.96997V9.29414H16.9307H47.1182H47.2021V6.96997H47.1182H16.8811Z" fill="#8B8F90"/>
<path d="M16.8811 2.32291V4.64707H16.9307H47.1182H47.2021V2.32291H47.1182H16.8811Z" fill="#8B8F90"/>
<path d="M25.9284 58.9249H24.6582V71.9401H25.9284V58.9249Z" fill="#80B9C0"/>
<path d="M29.7722 61.0199H27.3979V62.29H29.7722V61.0199Z" fill="#80B9C0"/>
<path d="M29.7722 63.5215H27.3979V64.7917H29.7722V63.5215Z" fill="#80B9C0"/>
<path d="M29.7722 66.0232H27.3979V67.2933H29.7722V66.0232Z" fill="#80B9C0"/>
<path d="M29.7722 68.5248H27.3979V69.795H29.7722V68.5248Z" fill="#80B9C0"/>
<path d="M23.5442 58.9249H22.274V71.9401H23.5442V58.9249Z" fill="#80B9C0"/>
<path d="M21.1599 58.9249H19.8898V71.9401H21.1599V58.9249Z" fill="#80B9C0"/>
<path d="M18.7759 58.9249H17.5057V71.9401H18.7759V58.9249Z" fill="#80B9C0"/>
<path d="M16.3917 58.9249H15.1216V71.9401H16.3917V58.9249Z" fill="#80B9C0"/>
<path d="M14.0076 58.9249H12.7374V71.9401H14.0076V58.9249Z" fill="#80B9C0"/>
<path d="M28.5846 70.6397L28.5858 69.4032H28.5846L28.582 60.2058L26.9524 60.202L10.5891 60.1765L10.5904 61.4117L10.5929 69.3765H10.5904L10.5929 70.6092L28.5846 70.6397Z" fill="black"/>
<path d="M9.55542 11.8254V19.8665H12.7582V11.8254H9.55542Z" fill="#8B8F90"/>
<path d="M11.1577 18.314C10.6687 18.314 10.1906 18.169 9.78401 17.8973C9.37738 17.6256 9.06045 17.2395 8.8733 16.7877C8.68614 16.3358 8.63716 15.8387 8.73256 15.359C8.82796 14.8794 9.06344 14.4388 9.40924 14.093C9.75504 13.7472 10.1956 13.5117 10.6753 13.4163C11.1549 13.3208 11.6521 13.3698 12.1039 13.557C12.5557 13.7441 12.9419 14.061 13.2136 14.4676C13.4853 14.8742 13.6303 15.3523 13.6303 15.8413C13.6302 16.4971 13.3697 17.1259 12.906 17.5896C12.4423 18.0533 11.8135 18.3139 11.1577 18.314Z" fill="#EAA800"/>
<path d="M51.3224 11.8254V19.8665H54.5252V11.8254H51.3224Z" fill="#8B8F90"/>
<path d="M52.9247 18.314C52.4357 18.314 51.9576 18.169 51.551 17.8973C51.1443 17.6256 50.8274 17.2395 50.6403 16.7877C50.4531 16.3358 50.4041 15.8387 50.4995 15.359C50.5949 14.8794 50.8304 14.4388 51.1762 14.093C51.522 13.7472 51.9626 13.5117 52.4422 13.4163C52.9219 13.3208 53.419 13.3698 53.8708 13.557C54.3227 13.7441 54.7088 14.061 54.9805 14.4676C55.2522 14.8742 55.3973 15.3523 55.3973 15.8413C55.3972 16.4971 55.1367 17.1259 54.673 17.5896C54.2093 18.0533 53.5805 18.3139 52.9247 18.314V18.314Z" fill="#EAA800"/>
<path d="M50.3633 55.2944H44.6066V58.1478H50.3633V55.2944Z" fill="#8B8F90"/>
<path d="M50.3633 62.58H44.6066V65.4334H50.3633V62.58Z" fill="#8B8F90"/>
<path d="M45.2593 62.8908C45.2602 63.1854 45.3777 63.4676 45.586 63.6758C45.7942 63.8841 46.0764 64.0015 46.371 64.0025H48.5965C48.8914 64.002 49.1741 63.8848 49.3828 63.6764C49.5915 63.4681 49.7092 63.1857 49.7103 62.8908V62.58H45.2593V62.8908Z" fill="#8A7867"/>
<path d="M49.7103 57.837C49.7093 57.5419 49.5916 57.2592 49.383 57.0505C49.1743 56.8419 48.8916 56.7242 48.5965 56.7232H46.371C46.0762 56.7246 45.794 56.8425 45.5857 57.0511C45.3775 57.2598 45.2602 57.5422 45.2593 57.837V58.1478H49.7103V57.837Z" fill="#8A7867"/>
<path d="M49.7103 58.1478H45.2593V62.5801H49.7103V58.1478Z" fill="black"/>
<path d="M26.4564 29.2272H20.6997V32.0805H26.4564V29.2272Z" fill="#8B8F90"/>
<path d="M26.4564 36.5128H20.6997V39.3661H26.4564V36.5128Z" fill="#8B8F90"/>
<path d="M21.3525 36.8236C21.3535 37.1181 21.4709 37.4003 21.6792 37.6086C21.8875 37.8168 22.1697 37.9343 22.4642 37.9352H24.6898C24.9847 37.9347 25.2673 37.8175 25.476 37.6092C25.6848 37.4009 25.8025 37.1184 25.8036 36.8236V36.5128H21.3525V36.8236Z" fill="#8A7867"/>
<path d="M25.8036 31.7697C25.8026 31.4746 25.6849 31.1919 25.4763 30.9833C25.2676 30.7746 24.9849 30.6569 24.6898 30.6559H22.4642C22.1695 30.6574 21.8872 30.7753 21.679 30.9839C21.4708 31.1925 21.3534 31.475 21.3525 31.7697V32.0805H25.8036V31.7697Z" fill="#8A7867"/>
<path d="M25.8036 32.0805H21.3525V36.5128H25.8036V32.0805Z" fill="black"/>
<path d="M36.5332 30.917H30.9661V39.3662H36.5332V30.917Z" fill="#017481"/>
<path d="M36.5332 30.917H30.9661V39.3662H36.5332V30.917Z" fill="black"/>
<path d="M31.8109 31.6391H27.7865V33.0988H31.8109V31.6391Z" fill="#8B8F90"/>
<path d="M31.8109 37.1843H27.7865V38.644H31.8109V37.1843Z" fill="#8B8F90"/>
<path d="M39.0432 31.6391H35.0167V33.0988H39.0432V31.6391Z" fill="#8B8F90"/>
<path d="M39.0432 37.1843H35.0167V38.644H39.0432V37.1843Z" fill="#8B8F90"/>
<path d="M44.6603 68.9007H44.6594V71.248H44.6687C44.678 71.5466 44.8031 71.8298 45.0176 72.0377C45.2321 72.2456 45.5191 72.3618 45.8178 72.3618C46.1165 72.3618 46.4035 72.2456 46.618 72.0377C46.8325 71.8298 46.9577 71.5466 46.967 71.248H46.9754V68.9007C46.977 68.7476 46.9482 68.5958 46.8908 68.4539C46.8333 68.3121 46.7483 68.183 46.6407 68.0743C46.533 67.9655 46.4049 67.8791 46.2636 67.8202C46.1224 67.7612 45.9709 67.7309 45.8178 67.7309C45.6648 67.7309 45.5133 67.7612 45.372 67.8202C45.2308 67.8791 45.1026 67.9655 44.995 68.0743C44.8873 68.183 44.8023 68.3121 44.7449 68.4539C44.6874 68.5958 44.6587 68.7476 44.6603 68.9007V68.9007Z" fill="#8B8F90"/>
<path d="M46.9754 69.2113H44.6594V70.9239H46.9754V69.2113Z" fill="#8A7867"/>
<path d="M46.9754 69.2113H44.6594V70.9239H46.9754V69.2113Z" fill="#8A7867"/>
<path d="M46.9754 69.2113H44.6594V70.9239H46.9754V69.2113Z" fill="#8A7867"/>
<path d="M46.9754 69.2113H44.6594V70.9239H46.9754V69.2113Z" fill="#8A7867"/>
<path d="M47.2024 72.9795H47.2015V75.3268H47.2108C47.2201 75.6254 47.3452 75.9086 47.5597 76.1165C47.7742 76.3244 48.0612 76.4407 48.3599 76.4407C48.6586 76.4407 48.9456 76.3244 49.1601 76.1165C49.3746 75.9086 49.4998 75.6254 49.5091 75.3268H49.5175V72.9795C49.5191 72.8265 49.4904 72.6747 49.4329 72.5328C49.3755 72.391 49.2904 72.2619 49.1828 72.1531C49.0751 72.0444 48.947 71.958 48.8058 71.899C48.6645 71.8401 48.513 71.8098 48.3599 71.8098C48.2069 71.8098 48.0554 71.8401 47.9141 71.899C47.7729 71.958 47.6447 72.0444 47.5371 72.1531C47.4294 72.2619 47.3444 72.391 47.287 72.5328C47.2295 72.6747 47.2008 72.8265 47.2024 72.9795V72.9795Z" fill="#8B8F90"/>
<path d="M49.5175 73.2901H47.2015V75.0028H49.5175V73.2901Z" fill="#8A7867"/>
<path d="M49.5175 73.2901H47.2015V75.0028H49.5175V73.2901Z" fill="#8A7867"/>
<path d="M49.5175 73.2901H47.2015V75.0028H49.5175V73.2901Z" fill="#8A7867"/>
<path d="M49.5175 73.2901H47.2015V75.0028H49.5175V73.2901Z" fill="#8A7867"/>
<path d="M31.5501 68.0706H31.5492V70.4179H31.5584C31.5678 70.7165 31.6929 70.9997 31.9074 71.2076C32.1219 71.4155 32.4089 71.5318 32.7076 71.5318C33.0063 71.5318 33.2933 71.4155 33.5078 71.2076C33.7223 70.9997 33.8474 70.7165 33.8568 70.4179H33.8652V68.0706C33.8668 67.9176 33.838 67.7657 33.7806 67.6239C33.7231 67.482 33.6381 67.353 33.5305 67.2442C33.4228 67.1354 33.2947 67.049 33.1534 66.9901C33.0122 66.9312 32.8607 66.9008 32.7076 66.9008C32.5546 66.9008 32.403 66.9312 32.2618 66.9901C32.1206 67.049 31.9924 67.1354 31.8848 67.2442C31.7771 67.353 31.6921 67.482 31.6346 67.6239C31.5772 67.7657 31.5484 67.9176 31.55 68.0706H31.5501Z" fill="#8B8F90"/>
<path d="M33.8652 68.3812H31.5492V70.0938H33.8652V68.3812Z" fill="#8A7867"/>
<path d="M33.8652 68.3812H31.5492V70.0938H33.8652V68.3812Z" fill="#8A7867"/>
<path d="M33.8652 68.3812H31.5492V70.0938H33.8652V68.3812Z" fill="#8A7867"/>
<path d="M33.8652 68.3812H31.5492V70.0938H33.8652V68.3812Z" fill="#8A7867"/>
<path d="M52.4454 27.199H52.4446V29.5464H52.4538C52.4631 29.8449 52.5883 30.1282 52.8028 30.3361C53.0173 30.544 53.3043 30.6602 53.603 30.6602C53.9017 30.6602 54.1887 30.544 54.4032 30.3361C54.6177 30.1282 54.7428 29.8449 54.7522 29.5464H54.7606V27.199C54.7622 27.046 54.7334 26.8942 54.676 26.7523C54.6185 26.6105 54.5335 26.4814 54.4259 26.3726C54.3182 26.2638 54.1901 26.1775 54.0488 26.1186C53.9076 26.0596 53.756 26.0293 53.603 26.0293C53.45 26.0293 53.2984 26.0596 53.1572 26.1186C53.016 26.1775 52.8878 26.2638 52.7802 26.3726C52.6725 26.4814 52.5875 26.6105 52.53 26.7523C52.4726 26.8942 52.4438 27.046 52.4454 27.199V27.199Z" fill="#8B8F90"/>
<path d="M54.7606 27.5096H52.4446V29.2223H54.7606V27.5096Z" fill="#8A7867"/>
<path d="M54.7606 27.5096H52.4446V29.2223H54.7606V27.5096Z" fill="#8A7867"/>
<path d="M54.7606 27.5096H52.4446V29.2223H54.7606V27.5096Z" fill="#8A7867"/>
<path d="M54.7606 27.5096H52.4446V29.2223H54.7606V27.5096Z" fill="#8A7867"/>
<path d="M17.569 32.7198H17.5681V35.0671H17.5774C17.5867 35.3657 17.7118 35.6489 17.9263 35.8568C18.1408 36.0647 18.4278 36.181 18.7265 36.181C19.0252 36.181 19.3122 36.0647 19.5267 35.8568C19.7412 35.6489 19.8664 35.3657 19.8757 35.0671H19.8841V32.7198C19.8857 32.5668 19.8569 32.415 19.7995 32.2731C19.742 32.1313 19.657 32.0022 19.5494 31.8934C19.4417 31.7846 19.3136 31.6983 19.1723 31.6393C19.0311 31.5804 18.8796 31.55 18.7265 31.55C18.5735 31.55 18.422 31.5804 18.2807 31.6393C18.1395 31.6983 18.0113 31.7846 17.9037 31.8934C17.796 32.0022 17.711 32.1313 17.6536 32.2731C17.5961 32.415 17.5674 32.5668 17.569 32.7198V32.7198Z" fill="#8B8F90"/>
<path d="M19.8841 33.0305H17.5681V34.7431H19.8841V33.0305Z" fill="#8A7867"/>
<path d="M19.8841 33.0305H17.5681V34.7431H19.8841V33.0305Z" fill="#8A7867"/>
<path d="M19.8841 33.0305H17.5681V34.7431H19.8841V33.0305Z" fill="#8A7867"/>
<path d="M19.8841 33.0305H17.5681V34.7431H19.8841V33.0305Z" fill="#8A7867"/>
<path d="M10.3512 25.1136H10.3503V27.461H10.3596C10.3688 27.7596 10.494 28.0429 10.7085 28.2508C10.923 28.4587 11.21 28.575 11.5087 28.575C11.8075 28.575 12.0945 28.4587 12.309 28.2508C12.5235 28.0429 12.6486 27.7596 12.6579 27.461H12.6663V25.1136C12.6679 24.9606 12.6392 24.8088 12.5817 24.6669C12.5243 24.5251 12.4392 24.396 12.3316 24.2872C12.2239 24.1785 12.0958 24.0921 11.9546 24.0332C11.8133 23.9742 11.6618 23.9439 11.5087 23.9439C11.3557 23.9439 11.2042 23.9742 11.0629 24.0332C10.9217 24.0921 10.7936 24.1785 10.6859 24.2872C10.5783 24.396 10.4932 24.5251 10.4358 24.6669C10.3783 24.8088 10.3496 24.9606 10.3512 25.1136V25.1136Z" fill="#8B8F90"/>
<path d="M12.6663 25.4243H10.3503V27.1369H12.6663V25.4243Z" fill="#8A7867"/>
<path d="M12.6663 25.4243H10.3503V27.1369H12.6663V25.4243Z" fill="#8A7867"/>
<path d="M12.6663 25.4243H10.3503V27.1369H12.6663V25.4243Z" fill="#8A7867"/>
<path d="M12.6663 25.4243H10.3503V27.1369H12.6663V25.4243Z" fill="#8A7867"/>
<path d="M43.578 48.2202H43.5771V50.5675H43.5864C43.5957 50.866 43.7209 51.1493 43.9354 51.3572C44.1498 51.5651 44.4368 51.6813 44.7356 51.6813C45.0343 51.6813 45.3213 51.5651 45.5358 51.3572C45.7503 51.1493 45.8754 50.866 45.8847 50.5675H45.8931V48.2202C45.8947 48.0671 45.866 47.9153 45.8085 47.7734C45.7511 47.6316 45.6661 47.5025 45.5584 47.3937C45.4508 47.285 45.3226 47.1986 45.1814 47.1397C45.0401 47.0807 44.8886 47.0504 44.7356 47.0504C44.5825 47.0504 44.431 47.0807 44.2897 47.1397C44.1485 47.1986 44.0204 47.285 43.9127 47.3937C43.8051 47.5025 43.72 47.6316 43.6626 47.7734C43.6051 47.9153 43.5764 48.0671 43.578 48.2202H43.578Z" fill="#8B8F90"/>
<path d="M45.8931 48.5308H43.5771V50.2434H45.8931V48.5308Z" fill="#8A7867"/>
<path d="M45.8931 48.5308H43.5771V50.2434H45.8931V48.5308Z" fill="#8A7867"/>
<path d="M45.8931 48.5308H43.5771V50.2434H45.8931V48.5308Z" fill="#8A7867"/>
<path d="M45.8931 48.5308H43.5771V50.2434H45.8931V48.5308Z" fill="#8A7867"/>
<path d="M47.6494 48.2202H47.6486V50.5675H47.6578C47.6671 50.866 47.7923 51.1493 48.0068 51.3572C48.2213 51.5651 48.5083 51.6813 48.807 51.6813C49.1057 51.6813 49.3927 51.5651 49.6072 51.3572C49.8217 51.1493 49.9468 50.866 49.9561 50.5675H49.9645V48.2202C49.9661 48.0671 49.9374 47.9153 49.8799 47.7734C49.8225 47.6316 49.7375 47.5025 49.6298 47.3937C49.5222 47.285 49.394 47.1986 49.2528 47.1397C49.1115 47.0807 48.96 47.0504 48.807 47.0504C48.6539 47.0504 48.5024 47.0807 48.3612 47.1397C48.2199 47.1986 48.0918 47.285 47.9841 47.3937C47.8765 47.5025 47.7915 47.6316 47.734 47.7734C47.6766 47.9153 47.6478 48.0671 47.6494 48.2202V48.2202Z" fill="#8B8F90"/>
<path d="M49.9645 48.5308H47.6486V50.2434H49.9645V48.5308Z" fill="#8A7867"/>
<path d="M49.9645 48.5308H47.6486V50.2434H49.9645V48.5308Z" fill="#8A7867"/>
<path d="M49.9645 48.5308H47.6486V50.2434H49.9645V48.5308Z" fill="#8A7867"/>
<path d="M49.9645 48.5308H47.6486V50.2434H49.9645V48.5308Z" fill="#8A7867"/>
<path d="M42.768 57.7329H37.4816V60.3637H42.768V57.7329Z" fill="#8A7867"/>
<path d="M42.768 57.734H42.4917V60.364H42.768V57.734Z" fill="#9DA0A1"/>
<path d="M37.7566 57.7322H37.4816V60.3639H37.7566V57.7322Z" fill="#9DA0A1"/>
<path d="M42.768 62.6874H37.4816V65.3182H42.768V62.6874Z" fill="#8A7867"/>
<path d="M42.768 62.6885H42.4917V65.3184H42.768V62.6885Z" fill="#9DA0A1"/>
<path d="M37.7566 62.6866H37.4816V65.3184H37.7566V62.6866Z" fill="#9DA0A1"/>
<path d="M49.6677 32.7363H45.2787V42.2539H49.6677V32.7363Z" fill="#017481"/>
<path d="M49.6677 32.7363H45.2787V42.2539H49.6677V32.7363Z" fill="black"/>
<path d="M48.1283 29.9332H46.8414V33.481H48.1283V29.9332Z" fill="#8B8F90"/>
<path d="M48.1051 40.8859H46.8182V44.4356H48.1051V40.8859Z" fill="#8B8F90"/>
<path d="M14.2464 54.3019V54.3027H16.5937V54.2935C16.8923 54.2842 17.1755 54.159 17.3834 53.9445C17.5913 53.73 17.7076 53.443 17.7076 53.1443C17.7076 52.8456 17.5913 52.5586 17.3834 52.3441C17.1755 52.1296 16.8923 52.0045 16.5937 51.9951V51.9868H14.2464C14.0934 51.9852 13.9416 52.0139 13.7997 52.0714C13.6579 52.1288 13.5288 52.2138 13.42 52.3215C13.3112 52.4291 13.2249 52.5573 13.1659 52.6985C13.107 52.8398 13.0767 52.9913 13.0767 53.1443C13.0767 53.2974 13.107 53.4489 13.1659 53.5901C13.2249 53.7314 13.3112 53.8595 13.42 53.9672C13.5288 54.0748 13.6579 54.1598 13.7997 54.2173C13.9416 54.2747 14.0934 54.3035 14.2464 54.3019V54.3019Z" fill="#8B8F90"/>
<path d="M16.2696 51.9867H14.557V54.3027H16.2696V51.9867Z" fill="#8A7867"/>
<path d="M16.2696 51.9867H14.557V54.3027H16.2696V51.9867Z" fill="#8A7867"/>
<path d="M16.2696 51.9867H14.557V54.3027H16.2696V51.9867Z" fill="#8A7867"/>
<path d="M16.2696 51.9867H14.557V54.3027H16.2696V51.9867Z" fill="#8A7867"/>
<path d="M17.6971 55.0247H12.4106V57.6555H17.6971V55.0247Z" fill="#8A7867"/>
<path d="M17.6971 55.0258H17.4208V57.6557H17.6971V55.0258Z" fill="#9DA0A1"/>
<path d="M12.6857 55.024H12.4106V57.6557H12.6857V55.024Z" fill="#9DA0A1"/>
<path d="M17.2004 29.0345H13.1089V31.0706H17.2004V29.0345Z" fill="#8A7867"/>
<path d="M17.2004 29.0353H16.9866V31.0708H17.2004V29.0353Z" fill="#9DA0A1"/>
<path d="M13.3218 29.0339H13.1089V31.0708H13.3218V29.0339Z" fill="#9DA0A1"/>
<path d="M16.7523 34.1152H9.27393V45.7071H16.7523V34.1152Z" fill="black"/>
<path d="M28.2539 47.6817L28.2654 47.356L28.3061 47.0304L28.3722 46.7149L28.4625 46.4019L28.5834 46.0966L28.7208 45.7977L28.8874 45.5153L29.0782 45.2519L29.2818 45.0001L29.5133 44.7698L29.7614 44.5536L30.0196 44.3564L30.2957 44.1885L30.5895 44.0383L30.8923 43.92L31.2027 43.8234L31.5233 43.7508L31.8464 43.7012L32.172 43.6809L32.4977 43.686L32.8196 43.7203L33.1452 43.7852L33.4556 43.8653L33.7647 43.9798L34.0599 44.1159L34.3436 44.2699L34.6145 44.4543L34.8753 44.6553L35.1081 44.8792L35.3269 45.1196L35.5304 45.3804L35.7047 45.6565L35.8536 45.9491L35.9884 46.2455L36.0927 46.5508L36.1716 46.8688L36.2263 47.1945L36.2517 47.5201V47.8458L36.2263 48.1689L36.1716 48.4933L36.0927 48.8088L35.9884 49.1179L35.8536 49.4156L35.7047 49.7044L35.5304 49.9817L35.3269 50.2399L35.1081 50.4842L34.8753 50.7081L34.6145 50.9091L34.3436 51.0923L34.0599 51.2487L33.7647 51.3836L33.4556 51.4981L33.1452 51.5795L32.8196 51.6393L32.4977 51.6736L32.172 51.6813L31.8464 51.6622L31.5233 51.6151L31.2027 51.5375L30.8923 51.4459L30.5895 51.3212L30.2957 51.1724L30.0196 51.0032L29.7614 50.8073L29.5133 50.591L29.2818 50.3621L29.0782 50.1089L28.8874 49.8481L28.7208 49.5644L28.5834 49.2668L28.4625 48.9615L28.3722 48.6485L28.3061 48.3318L28.2654 48.0048L28.2539 47.6817Z" fill="white"/>
<path d="M25.9078 44.7706H23.7313V50.4529H25.9078V44.7706Z" fill="#8B8F90"/>
<path d="M40.3509 44.7706H38.1719V50.4529H40.3509V44.7706Z" fill="#8B8F90"/>
<path d="M38.6381 42.9638H25.1791V52.263H38.6381V42.9638ZM31.0945 50.8764L30.84 50.7746L30.5983 50.6474L30.3566 50.5075L29.9241 50.1513L29.7333 49.9605L29.5552 49.7442L29.4025 49.5152L29.2626 49.2735L29.1354 49.0318L29.0336 48.7647L28.9573 48.4975L28.9064 48.2304L28.8682 47.9632L28.8555 47.6833L28.8682 47.4035L28.9064 47.1236L28.9573 46.8565L29.0336 46.5893L29.1354 46.3349L29.2626 46.0805L29.4025 45.8388L29.5552 45.6226L29.7333 45.4063L29.9241 45.2155L30.1404 45.0247L30.3566 44.8593L30.5983 44.7194L30.84 44.5922L31.0945 44.4904L31.3616 44.4014L31.6287 44.3505L31.9086 44.2996L32.1885 44.2869H32.4556L32.7355 44.3251L33.0154 44.376L33.2698 44.4396L33.5369 44.5414L33.7914 44.6558L34.0203 44.7831L34.262 44.9484L34.4783 45.1138L34.6818 45.3046L34.8599 45.5082L35.038 45.7244L35.178 45.9661L35.3052 46.2078L35.4197 46.4623L35.5087 46.7294L35.5723 46.9966L35.6232 47.2637L35.6487 47.5436V47.8234L35.6232 48.0906L35.5723 48.3705L35.5087 48.6376L35.4197 48.9047L35.3052 49.1465L35.178 49.4009L35.038 49.6298L34.8599 49.8588L34.6818 50.0624L34.4783 50.2532L34.262 50.4186L34.0203 50.5712L33.7914 50.7112L33.5369 50.8256L33.2698 50.9147L33.0154 50.991L32.7355 51.0419L32.4556 51.0674L32.1885 51.0801L31.9086 51.0546L31.6287 51.0165L31.3616 50.9529L31.0945 50.8764Z" fill="#C2C5C6"/>
<path d="M43.0441 66.9674H36.6669V73.3447H43.0441V66.9674Z" fill="black"/>
<path d="M64.0896 26.108H59.3955C58.6347 26.108 57.905 25.8057 57.3671 25.2678C56.8291 24.7298 56.5269 24.0002 56.5269 23.2393C56.5269 22.4785 56.8291 21.7489 57.3671 21.2109C57.905 20.6729 58.6347 20.3707 59.3955 20.3707H64.0896V21.363C63.5937 21.363 63.118 21.56 62.7673 21.9107C62.4166 22.2614 62.2196 22.737 62.2196 23.233C62.2196 23.7289 62.4166 24.2046 62.7673 24.5553C63.118 24.906 63.5937 25.103 64.0896 25.103V26.108Z" fill="#C2B9AF"/>
<path d="M59.3719 25.1145C60.4055 25.1145 61.2434 24.2766 61.2434 23.2431C61.2434 22.2095 60.4055 21.3716 59.3719 21.3716C58.3384 21.3716 57.5005 22.2095 57.5005 23.2431C57.5005 24.2766 58.3384 25.1145 59.3719 25.1145Z" fill="#8A7867"/>
<path d="M64.0896 35.1655H59.3955C58.6347 35.1655 57.905 34.8632 57.3671 34.3253C56.8291 33.7873 56.5269 33.0576 56.5269 32.2968C56.5269 31.536 56.8291 30.8064 57.3671 30.2684C57.905 29.7304 58.6347 29.4282 59.3955 29.4282H64.0896V30.4204C63.5937 30.4204 63.118 30.6175 62.7673 30.9682C62.4166 31.3189 62.2196 31.7945 62.2196 32.2905C62.2196 32.7864 62.4166 33.2621 62.7673 33.6128C63.118 33.9635 63.5937 34.1605 64.0896 34.1605V35.1655Z" fill="#C2B9AF"/>
<path d="M59.3719 34.1666C60.4055 34.1666 61.2434 33.3288 61.2434 32.2952C61.2434 31.2616 60.4055 30.4238 59.3719 30.4238C58.3384 30.4238 57.5005 31.2616 57.5005 32.2952C57.5005 33.3288 58.3384 34.1666 59.3719 34.1666Z" fill="#8A7867"/>
<path d="M64.0896 44.223H59.3955C58.6347 44.223 57.905 43.9207 57.3671 43.3828C56.8291 42.8448 56.5269 42.1151 56.5269 41.3543C56.5269 40.5935 56.8291 39.8639 57.3671 39.3259C57.905 38.7879 58.6347 38.4857 59.3955 38.4857H64.0896V39.478C63.5937 39.478 63.118 39.675 62.7673 40.0257C62.4166 40.3764 62.2196 40.852 62.2196 41.348C62.2196 41.844 62.4166 42.3196 62.7673 42.6703C63.118 43.021 63.5937 43.218 64.0896 43.218V44.223Z" fill="#C2B9AF"/>
<path d="M59.3719 43.2188C60.4055 43.2188 61.2434 42.3809 61.2434 41.3473C61.2434 40.3138 60.4055 39.4759 59.3719 39.4759C58.3384 39.4759 57.5005 40.3138 57.5005 41.3473C57.5005 42.3809 58.3384 43.2188 59.3719 43.2188Z" fill="#8A7867"/>
<path d="M64.0896 53.2678H59.3955C58.6347 53.2678 57.905 52.9655 57.3671 52.4276C56.8291 51.8896 56.5269 51.1599 56.5269 50.3991C56.5269 49.6383 56.8291 48.9087 57.3671 48.3707C57.905 47.8327 58.6347 47.5305 59.3955 47.5305H64.0896V48.5227C63.5937 48.5227 63.118 48.7198 62.7673 49.0705C62.4166 49.4212 62.2196 49.8968 62.2196 50.3928C62.2196 50.8887 62.4166 51.3644 62.7673 51.7151C63.118 52.0658 63.5937 52.2628 64.0896 52.2628V53.2678Z" fill="#C2B9AF"/>
<path d="M59.3719 52.2709C60.4055 52.2709 61.2434 51.433 61.2434 50.3994C61.2434 49.3659 60.4055 48.528 59.3719 48.528C58.3384 48.528 57.5005 49.3659 57.5005 50.3994C57.5005 51.433 58.3384 52.2709 59.3719 52.2709Z" fill="#8A7867"/>
<path d="M64.0896 62.3253H59.3955C58.6347 62.3253 57.905 62.0231 57.3671 61.4851C56.8291 60.9472 56.5269 60.2175 56.5269 59.4567C56.5269 58.6959 56.8291 57.9662 57.3671 57.4283C57.905 56.8903 58.6347 56.588 59.3955 56.588H64.0896V57.5803C63.5937 57.5803 63.118 57.7773 62.7673 58.128C62.4166 58.4787 62.2196 58.9544 62.2196 59.4503C62.2196 59.9463 62.4166 60.4219 62.7673 60.7726C63.118 61.1233 63.5937 61.3203 64.0896 61.3203V62.3253Z" fill="#C2B9AF"/>
<path d="M59.3719 61.323C60.4055 61.323 61.2434 60.4851 61.2434 59.4515C61.2434 58.418 60.4055 57.5801 59.3719 57.5801C58.3384 57.5801 57.5005 58.418 57.5005 59.4515C57.5005 60.4851 58.3384 61.323 59.3719 61.323Z" fill="#8A7867"/>
<path d="M64.0896 71.3701H59.3955C58.6347 71.3701 57.905 71.0679 57.3671 70.5299C56.8291 69.9919 56.5269 69.2623 56.5269 68.5015C56.5269 67.7407 56.8291 67.011 57.3671 66.4731C57.905 65.9351 58.6347 65.6328 59.3955 65.6328H64.0896V66.6251C63.5937 66.6251 63.118 66.8221 62.7673 67.1728C62.4166 67.5235 62.2196 67.9992 62.2196 68.4951C62.2196 68.9911 62.4166 69.4667 62.7673 69.8174C63.118 70.1681 63.5937 70.3651 64.0896 70.3651V71.3701Z" fill="#C2B9AF"/>
<path d="M59.3719 70.3751C60.4055 70.3751 61.2434 69.5372 61.2434 68.5037C61.2434 67.4701 60.4055 66.6322 59.3719 66.6322C58.3384 66.6322 57.5005 67.4701 57.5005 68.5037C57.5005 69.5372 58.3384 70.3751 59.3719 70.3751Z" fill="#8A7867"/>
<path d="M4.69413 71.3701H0V70.3779C0.49596 70.3779 0.971604 70.1808 1.3223 69.8302C1.673 69.4795 1.87002 69.0038 1.87002 68.5078C1.87002 68.0119 1.673 67.5362 1.3223 67.1855C0.971604 66.8348 0.49596 66.6378 0 66.6378V65.6328H4.69413C5.45494 65.6328 6.18459 65.9351 6.72256 66.4731C7.26054 67.011 7.56277 67.7407 7.56277 68.5015C7.56277 69.2623 7.26054 69.9919 6.72256 70.5299C6.18459 71.0679 5.45494 71.3701 4.69413 71.3701V71.3701Z" fill="#C2B9AF"/>
<path d="M4.70847 70.3802C5.74203 70.3802 6.5799 69.5424 6.5799 68.5088C6.5799 67.4752 5.74203 66.6374 4.70847 66.6374C3.6749 66.6374 2.83704 67.4752 2.83704 68.5088C2.83704 69.5424 3.6749 70.3802 4.70847 70.3802Z" fill="#8A7867"/>
<path d="M4.69413 62.3253H0V61.3331C0.49596 61.3331 0.971604 61.1361 1.3223 60.7854C1.673 60.4347 1.87002 59.959 1.87002 59.4631C1.87002 58.9671 1.673 58.4915 1.3223 58.1408C0.971604 57.7901 0.49596 57.593 0 57.593V56.588H4.69413C5.45494 56.588 6.18459 56.8903 6.72256 57.4283C7.26054 57.9662 7.56277 58.6959 7.56277 59.4567C7.56277 60.2175 7.26054 60.9472 6.72256 61.4851C6.18459 62.0231 5.45494 62.3253 4.69413 62.3253V62.3253Z" fill="#C2B9AF"/>
<path d="M4.70847 61.3281C5.74203 61.3281 6.5799 60.4902 6.5799 59.4567C6.5799 58.4231 5.74203 57.5852 4.70847 57.5852C3.6749 57.5852 2.83704 58.4231 2.83704 59.4567C2.83704 60.4902 3.6749 61.3281 4.70847 61.3281Z" fill="#8A7867"/>
<path d="M4.69413 53.2678H0V52.2755C0.245575 52.2755 0.488741 52.2271 0.715622 52.1332C0.942504 52.0392 1.14866 51.9014 1.32231 51.7278C1.49595 51.5541 1.63369 51.348 1.72767 51.1211C1.82165 50.8942 1.87002 50.6511 1.87002 50.4055C1.87002 50.1599 1.82165 49.9168 1.72767 49.6899C1.63369 49.463 1.49595 49.2568 1.32231 49.0832C1.14866 48.9095 0.942504 48.7718 0.715622 48.6778C0.488741 48.5838 0.245575 48.5355 0 48.5355V47.5305H4.69413C5.45494 47.5305 6.18459 47.8327 6.72256 48.3707C7.26054 48.9087 7.56277 49.6383 7.56277 50.3991C7.56277 51.1599 7.26054 51.8896 6.72256 52.4276C6.18459 52.9655 5.45494 53.2678 4.69413 53.2678V53.2678Z" fill="#C2B9AF"/>
<path d="M4.70847 52.276C5.74203 52.276 6.5799 51.4381 6.5799 50.4046C6.5799 49.371 5.74203 48.5331 4.70847 48.5331C3.6749 48.5331 2.83704 49.371 2.83704 50.4046C2.83704 51.4381 3.6749 52.276 4.70847 52.276Z" fill="#8A7867"/>
<path d="M4.69413 44.223H0V43.2307C0.49596 43.2307 0.971604 43.0337 1.3223 42.683C1.673 42.3323 1.87002 41.8567 1.87002 41.3607C1.87002 40.8647 1.673 40.3891 1.3223 40.0384C0.971604 39.6877 0.49596 39.4907 0 39.4907V38.4857H4.69413C5.45494 38.4857 6.18459 38.7879 6.72256 39.3259C7.26054 39.8639 7.56277 40.5935 7.56277 41.3543C7.56277 42.1151 7.26054 42.8448 6.72256 43.3828C6.18459 43.9207 5.45494 44.223 4.69413 44.223V44.223Z" fill="#C2B9AF"/>
<path d="M4.70847 43.2239C5.74203 43.2239 6.5799 42.386 6.5799 41.3524C6.5799 40.3189 5.74203 39.481 4.70847 39.481C3.6749 39.481 2.83704 40.3189 2.83704 41.3524C2.83704 42.386 3.6749 43.2239 4.70847 43.2239Z" fill="#8A7867"/>
<path d="M4.69413 35.1655H0V34.1732C0.49596 34.1732 0.971604 33.9762 1.3223 33.6255C1.673 33.2748 1.87002 32.7992 1.87002 32.3032C1.87002 31.8072 1.673 31.3316 1.3223 30.9809C0.971604 30.6302 0.49596 30.4332 0 30.4332V29.4282H4.69413C5.45494 29.4282 6.18459 29.7304 6.72256 30.2684C7.26054 30.8064 7.56277 31.536 7.56277 32.2968C7.56277 33.0576 7.26054 33.7873 6.72256 34.3253C6.18459 34.8632 5.45494 35.1655 4.69413 35.1655V35.1655Z" fill="#C2B9AF"/>
<path d="M4.70847 34.1718C5.74203 34.1718 6.5799 33.3339 6.5799 32.3003C6.5799 31.2668 5.74203 30.4289 4.70847 30.4289C3.6749 30.4289 2.83704 31.2668 2.83704 32.3003C2.83704 33.3339 3.6749 34.1718 4.70847 34.1718Z" fill="#8A7867"/>
<path d="M4.69413 26.108H0V25.1157C0.49596 25.1157 0.971604 24.9187 1.3223 24.568C1.673 24.2173 1.87002 23.7416 1.87002 23.2457C1.87002 22.7497 1.673 22.2741 1.3223 21.9234C0.971604 21.5727 0.49596 21.3757 0 21.3757V20.3707H4.69413C5.45494 20.3707 6.18459 20.6729 6.72256 21.2109C7.26054 21.7489 7.56277 22.4785 7.56277 23.2393C7.56277 24.0002 7.26054 24.7298 6.72256 25.2678C6.18459 25.8057 5.45494 26.108 4.69413 26.108V26.108Z" fill="#C2B9AF"/>
<path d="M4.70847 25.1196C5.74203 25.1196 6.5799 24.2817 6.5799 23.2482C6.5799 22.2146 5.74203 21.3767 4.70847 21.3767C3.6749 21.3767 2.83704 22.2146 2.83704 23.2482C2.83704 24.2817 3.6749 25.1196 4.70847 25.1196Z" fill="#8A7867"/>
</g>
</g>
<defs>
<linearGradient id="paint0_linear_8846_33777" x1="32" y1="0" x2="32" y2="74" gradientUnits="userSpaceOnUse">
<stop offset="0.857521"/>
<stop offset="1" stop-opacity="0"/>
</linearGradient>
<clipPath id="clip0_8846_33777">
<rect width="64.0895" height="164.427" fill="white"/>
</clipPath>
</defs>
</svg>
