<svg width="64" height="74" viewBox="0 0 64 74" fill="none" xmlns="http://www.w3.org/2000/svg">
<mask id="mask0_8846_31557" style="mask-type:alpha" maskUnits="userSpaceOnUse" x="0" y="0" width="64" height="74">
<rect width="64" height="74" fill="url(#paint0_linear_8846_31557)"/>
</mask>
<g mask="url(#mask0_8846_31557)">
<g clip-path="url(#clip0_8846_31557)">
<path d="M64.0895 6.35934H0.00158691V162H64.0895V6.35934ZM1.59669 10.9472C1.59657 10.3587 1.771 9.78335 2.09792 9.29396C2.42483 8.80457 2.88954 8.42314 3.43327 8.19789C3.97699 7.97265 4.5753 7.91371 5.15252 8.02855C5.72974 8.14338 6.25994 8.42683 6.67606 8.84303C7.09217 9.25923 7.3755 9.78949 7.49021 10.3667C7.60492 10.944 7.54586 11.5423 7.3205 12.086C7.09514 12.6296 6.7136 13.0943 6.22414 13.4211C5.73469 13.7479 5.1593 13.9222 4.57077 13.922C3.78193 13.9218 3.02544 13.6083 2.46771 13.0505C1.90997 12.4926 1.59666 11.7361 1.59669 10.9472V10.9472ZM56.5288 10.9472C56.5287 10.3587 56.7031 9.78331 57.03 9.2939C57.3569 8.80449 57.8217 8.42304 58.3654 8.19778C58.9091 7.97252 59.5075 7.91358 60.0847 8.02842C60.6619 8.14325 61.1922 8.42671 61.6083 8.84292C62.0244 9.25913 62.3077 9.78941 62.4225 10.3667C62.5372 10.9439 62.4781 11.5423 62.2527 12.0859C62.0274 12.6296 61.6458 13.0943 61.1563 13.4211C60.6668 13.7479 60.0914 13.9222 59.5029 13.922C58.714 13.9218 57.9576 13.6083 57.3998 13.0505C56.8421 12.4926 56.5288 11.7361 56.5288 10.9472V10.9472ZM1.59669 157.431C1.59692 156.842 1.77166 156.267 2.09878 155.778C2.42591 155.289 2.89074 154.908 3.4345 154.683C3.97825 154.458 4.57651 154.399 5.15361 154.514C5.73072 154.629 6.26075 154.913 6.67668 155.329C7.09262 155.745 7.37577 156.276 7.49034 156.853C7.60491 157.43 7.54574 158.028 7.32033 158.572C7.09492 159.115 6.71338 159.58 6.22396 159.907C5.73454 160.233 5.15923 160.408 4.57077 160.407C4.18001 160.407 3.79309 160.33 3.43212 160.181C3.07115 160.031 2.74319 159.812 2.467 159.535C2.19081 159.259 1.97179 158.931 1.82245 158.57C1.67312 158.209 1.5964 157.822 1.59669 157.431V157.431ZM56.5288 157.431C56.529 156.842 56.7038 156.267 57.0309 155.778C57.358 155.289 57.8229 154.908 58.3666 154.683C58.9104 154.458 59.5087 154.399 60.0858 154.514C60.6629 154.629 61.193 154.913 61.6089 155.329C62.0249 155.745 62.308 156.276 62.4226 156.853C62.5372 157.43 62.478 158.028 62.2526 158.572C62.0271 159.115 61.6456 159.58 61.1561 159.907C60.6667 160.233 60.0914 160.408 59.5029 160.407C59.1121 160.407 58.7252 160.33 58.3642 160.181C58.0033 160.031 57.6753 159.812 57.3991 159.535C57.1229 159.259 56.9039 158.931 56.7546 158.57C56.6052 158.209 56.5285 157.822 56.5288 157.431V157.431Z" fill="#007481"/>
<path d="M64.0894 23.6878H59.3952C58.6344 23.6878 57.9048 23.3855 57.3668 22.8476C56.8288 22.3096 56.5266 21.5799 56.5266 20.8191C56.5266 20.0583 56.8288 19.3287 57.3668 18.7907C57.9048 18.2527 58.6344 17.9505 59.3952 17.9505H64.0894V23.6878Z" fill="#9D846D"/>
<path d="M59.3763 22.688C60.4099 22.688 61.2477 21.8501 61.2477 20.8166C61.2477 19.783 60.4099 18.9451 59.3763 18.9451C58.3428 18.9451 57.5049 19.783 57.5049 20.8166C57.5049 21.8501 58.3428 22.688 59.3763 22.688Z" fill="#BCAC99"/>
<path d="M64.0895 22.6827C63.8439 22.6827 63.6008 22.6343 63.3739 22.5403C63.147 22.4463 62.9408 22.3086 62.7672 22.1349C62.5935 21.9613 62.4558 21.7551 62.3618 21.5283C62.2678 21.3014 62.2195 21.0582 62.2195 20.8126C62.2195 20.5671 62.2678 20.3239 62.3618 20.097C62.4558 19.8701 62.5935 19.664 62.7672 19.4903C62.9408 19.3167 63.147 19.1789 63.3739 19.085C63.6008 18.991 63.8439 18.9426 64.0895 18.9426V22.6827Z" fill="white"/>
<path d="M64.0894 32.7398H59.3952C58.6344 32.7398 57.9048 32.4376 57.3668 31.8996C56.8288 31.3616 56.5266 30.632 56.5266 29.8712C56.5266 29.1104 56.8288 28.3807 57.3668 27.8427C57.9048 27.3048 58.6344 27.0025 59.3952 27.0025H64.0894V32.7398Z" fill="#9D846D"/>
<path d="M59.3763 31.74C60.4099 31.74 61.2477 30.9021 61.2477 29.8686C61.2477 28.835 60.4099 27.9972 59.3763 27.9972C58.3428 27.9972 57.5049 28.835 57.5049 29.8686C57.5049 30.9021 58.3428 31.74 59.3763 31.74Z" fill="#BCAC99"/>
<path d="M64.0895 31.7348C63.8439 31.7348 63.6008 31.6865 63.3739 31.5925C63.147 31.4985 62.9408 31.3608 62.7672 31.1871C62.5935 31.0135 62.4558 30.8073 62.3618 30.5804C62.2678 30.3536 62.2195 30.1104 62.2195 29.8648C62.2195 29.6193 62.2678 29.3761 62.3618 29.1492C62.4558 28.9223 62.5935 28.7162 62.7672 28.5425C62.9408 28.3689 63.147 28.2311 63.3739 28.1372C63.6008 28.0432 63.8439 27.9948 64.0895 27.9948V31.7348Z" fill="white"/>
<path d="M64.0894 41.792H59.3952C58.6344 41.792 57.9048 41.4898 57.3668 40.9518C56.8288 40.4138 56.5266 39.6842 56.5266 38.9234C56.5266 38.1626 56.8288 37.4329 57.3668 36.8949C57.9048 36.357 58.6344 36.0547 59.3952 36.0547H64.0894V41.792Z" fill="#9D846D"/>
<path d="M59.3763 40.7922C60.4099 40.7922 61.2477 39.9544 61.2477 38.9208C61.2477 37.8872 60.4099 37.0494 59.3763 37.0494C58.3428 37.0494 57.5049 37.8872 57.5049 38.9208C57.5049 39.9544 58.3428 40.7922 59.3763 40.7922Z" fill="#BCAC99"/>
<path d="M64.0895 40.7869C63.5935 40.7869 63.1179 40.5899 62.7672 40.2392C62.4165 39.8885 62.2195 39.4128 62.2195 38.9169C62.2195 38.4209 62.4165 37.9453 62.7672 37.5946C63.1179 37.2439 63.5935 37.0469 64.0895 37.0469V40.7869Z" fill="white"/>
<path d="M64.0894 50.844H59.3952C58.6344 50.844 57.9048 50.5418 57.3668 50.0038C56.8288 49.4659 56.5266 48.7362 56.5266 47.9754C56.5266 47.2146 56.8288 46.485 57.3668 45.947C57.9048 45.409 58.6344 45.1068 59.3952 45.1068H64.0894V50.844Z" fill="#9D846D"/>
<path d="M59.3763 49.8443C60.4099 49.8443 61.2477 49.0064 61.2477 47.9728C61.2477 46.9393 60.4099 46.1014 59.3763 46.1014C58.3428 46.1014 57.5049 46.9393 57.5049 47.9728C57.5049 49.0064 58.3428 49.8443 59.3763 49.8443Z" fill="#BCAC99"/>
<path d="M64.0895 49.8391C63.5935 49.8391 63.1179 49.6421 62.7672 49.2914C62.4165 48.9407 62.2195 48.4651 62.2195 47.9691C62.2195 47.4731 62.4165 46.9975 62.7672 46.6468C63.1179 46.2961 63.5935 46.0991 64.0895 46.0991V49.8391Z" fill="white"/>
<path d="M64.0894 59.8961H59.3952C58.6344 59.8961 57.9048 59.5939 57.3668 59.0559C56.8288 58.5179 56.5266 57.7883 56.5266 57.0275C56.5266 56.2667 56.8288 55.537 57.3668 54.999C57.9048 54.4611 58.6344 54.1588 59.3952 54.1588H64.0894V59.8961Z" fill="#9D846D"/>
<path d="M59.3763 58.8963C60.4099 58.8963 61.2477 58.0585 61.2477 57.0249C61.2477 55.9913 60.4099 55.1535 59.3763 55.1535C58.3428 55.1535 57.5049 55.9913 57.5049 57.0249C57.5049 58.0585 58.3428 58.8963 59.3763 58.8963Z" fill="#BCAC99"/>
<path d="M64.0895 58.8911C63.5935 58.8911 63.1179 58.6941 62.7672 58.3434C62.4165 57.9927 62.2195 57.5171 62.2195 57.0211C62.2195 56.5252 62.4165 56.0495 62.7672 55.6988C63.1179 55.3481 63.5935 55.1511 64.0895 55.1511V58.8911Z" fill="white"/>
<path d="M64.0894 68.9481H59.3952C58.6344 68.9481 57.9048 68.6459 57.3668 68.1079C56.8288 67.57 56.5266 66.8403 56.5266 66.0795C56.5266 65.3187 56.8288 64.5891 57.3668 64.0511C57.9048 63.5131 58.6344 63.2109 59.3952 63.2109H64.0894V68.9481Z" fill="#9D846D"/>
<path d="M59.3763 67.9485C60.4099 67.9485 61.2477 67.1106 61.2477 66.0771C61.2477 65.0435 60.4099 64.2057 59.3763 64.2057C58.3428 64.2057 57.5049 65.0435 57.5049 66.0771C57.5049 67.1106 58.3428 67.9485 59.3763 67.9485Z" fill="#BCAC99"/>
<path d="M64.0895 67.9432C63.5935 67.9432 63.1179 67.7462 62.7672 67.3955C62.4165 67.0448 62.2195 66.5691 62.2195 66.0732C62.2195 65.5772 62.4165 65.1016 62.7672 64.7509C63.1179 64.4002 63.5935 64.2032 64.0895 64.2032V67.9432Z" fill="white"/>
<path d="M64.0894 78.0003H59.3952C58.6344 78.0003 57.9048 77.6981 57.3668 77.1601C56.8288 76.6221 56.5266 75.8925 56.5266 75.1317C56.5266 74.3709 56.8288 73.6412 57.3668 73.1033C57.9048 72.5653 58.6344 72.2631 59.3952 72.2631H64.0894V78.0003Z" fill="#9D846D"/>
<path d="M59.3763 77.0006C60.4099 77.0006 61.2477 76.1627 61.2477 75.1291C61.2477 74.0956 60.4099 73.2577 59.3763 73.2577C58.3428 73.2577 57.5049 74.0956 57.5049 75.1291C57.5049 76.1627 58.3428 77.0006 59.3763 77.0006Z" fill="#BCAC99"/>
<path d="M64.0895 76.9952C63.5935 76.9952 63.1179 76.7982 62.7672 76.4475C62.4165 76.0968 62.2195 75.6212 62.2195 75.1252C62.2195 74.6292 62.4165 74.1536 62.7672 73.8029C63.1179 73.4522 63.5935 73.2552 64.0895 73.2552V76.9952Z" fill="white"/>
<path d="M0 72.2631H4.69412C5.45493 72.2631 6.18457 72.5653 6.72254 73.1033C7.26052 73.6412 7.56274 74.3709 7.56274 75.1317C7.56274 75.8925 7.26052 76.6221 6.72254 77.1601C6.18457 77.6981 5.45493 78.0003 4.69412 78.0003H0V72.2631Z" fill="#9D846D"/>
<path d="M4.7131 77.0057C5.74666 77.0057 6.58453 76.1678 6.58453 75.1342C6.58453 74.1007 5.74666 73.2628 4.7131 73.2628C3.67954 73.2628 2.84167 74.1007 2.84167 75.1342C2.84167 76.1678 3.67954 77.0057 4.7131 77.0057Z" fill="#BCAC99"/>
<path d="M0 73.2681C0.495959 73.2681 0.971605 73.4651 1.3223 73.8158C1.673 74.1665 1.87002 74.6421 1.87002 75.1381C1.87002 75.634 1.673 76.1097 1.3223 76.4604C0.971605 76.8111 0.495959 77.0081 0 77.0081V73.2681Z" fill="white"/>
<path d="M0 63.2109H4.69412C5.45493 63.2109 6.18457 63.5131 6.72254 64.0511C7.26052 64.5891 7.56274 65.3187 7.56274 66.0795C7.56274 66.8403 7.26052 67.57 6.72254 68.1079C6.18457 68.6459 5.45493 68.9481 4.69412 68.9481H0V63.2109Z" fill="#9D846D"/>
<path d="M4.7131 67.9535C5.74666 67.9535 6.58453 67.1156 6.58453 66.0821C6.58453 65.0485 5.74666 64.2106 4.7131 64.2106C3.67954 64.2106 2.84167 65.0485 2.84167 66.0821C2.84167 67.1156 3.67954 67.9535 4.7131 67.9535Z" fill="#BCAC99"/>
<path d="M0 64.2159C0.495959 64.2159 0.971605 64.4129 1.3223 64.7636C1.673 65.1143 1.87002 65.5899 1.87002 66.0859C1.87002 66.5819 1.673 67.0575 1.3223 67.4082C0.971605 67.7589 0.495959 67.9559 0 67.9559V64.2159Z" fill="white"/>
<path d="M0 54.1588H4.69412C5.45493 54.1588 6.18457 54.4611 6.72254 54.999C7.26052 55.537 7.56274 56.2667 7.56274 57.0275C7.56274 57.7883 7.26052 58.5179 6.72254 59.0559C6.18457 59.5939 5.45493 59.8961 4.69412 59.8961H0V54.1588Z" fill="#9D846D"/>
<path d="M4.7131 58.9015C5.74666 58.9015 6.58453 58.0636 6.58453 57.03C6.58453 55.9965 5.74666 55.1586 4.7131 55.1586C3.67954 55.1586 2.84167 55.9965 2.84167 57.03C2.84167 58.0636 3.67954 58.9015 4.7131 58.9015Z" fill="#BCAC99"/>
<path d="M0 55.1639C0.495959 55.1639 0.971605 55.3609 1.3223 55.7116C1.673 56.0623 1.87002 56.5379 1.87002 57.0339C1.87002 57.5299 1.673 58.0055 1.3223 58.3562C0.971605 58.7069 0.495959 58.9039 0 58.9039V55.1639Z" fill="white"/>
<path d="M0 45.1068H4.69412C5.45493 45.1068 6.18457 45.409 6.72254 45.947C7.26052 46.485 7.56274 47.2146 7.56274 47.9754C7.56274 48.7362 7.26052 49.4659 6.72254 50.0038C6.18457 50.5418 5.45493 50.844 4.69412 50.844H0V45.1068Z" fill="#9D846D"/>
<path d="M4.7131 49.8494C5.74666 49.8494 6.58453 49.0115 6.58453 47.978C6.58453 46.9444 5.74666 46.1065 4.7131 46.1065C3.67954 46.1065 2.84167 46.9444 2.84167 47.978C2.84167 49.0115 3.67954 49.8494 4.7131 49.8494Z" fill="#BCAC99"/>
<path d="M0 46.1118C0.495959 46.1118 0.971605 46.3088 1.3223 46.6595C1.673 47.0102 1.87002 47.4859 1.87002 47.9818C1.87002 48.4778 1.673 48.9534 1.3223 49.3041C0.971605 49.6548 0.495959 49.8518 0 49.8518V46.1118Z" fill="white"/>
<path d="M0 36.0546H4.69412C5.45493 36.0546 6.18457 36.3568 6.72254 36.8948C7.26052 37.4328 7.56274 38.1624 7.56274 38.9232C7.56274 39.684 7.26052 40.4137 6.72254 40.9516C6.18457 41.4896 5.45493 41.7919 4.69412 41.7919H0V36.0546Z" fill="#9D846D"/>
<path d="M4.7131 40.7974C5.74666 40.7974 6.58453 39.9595 6.58453 38.9259C6.58453 37.8924 5.74666 37.0545 4.7131 37.0545C3.67954 37.0545 2.84167 37.8924 2.84167 38.9259C2.84167 39.9595 3.67954 40.7974 4.7131 40.7974Z" fill="#BCAC99"/>
<path d="M0 37.0596C0.495959 37.0596 0.971605 37.2566 1.3223 37.6073C1.673 37.958 1.87002 38.4337 1.87002 38.9296C1.87002 39.4256 1.673 39.9012 1.3223 40.2519C0.971605 40.6026 0.495959 40.7997 0 40.7997V37.0596Z" fill="white"/>
<path d="M0 27.0025H4.69412C5.45493 27.0025 6.18457 27.3048 6.72254 27.8427C7.26052 28.3807 7.56274 29.1103 7.56274 29.8712C7.56274 30.632 7.26052 31.3616 6.72254 31.8996C6.18457 32.4376 5.45493 32.7398 4.69412 32.7398H0V27.0025Z" fill="#9D846D"/>
<path d="M4.7131 31.7451C5.74666 31.7451 6.58453 30.9073 6.58453 29.8737C6.58453 28.8402 5.74666 28.0023 4.7131 28.0023C3.67954 28.0023 2.84167 28.8402 2.84167 29.8737C2.84167 30.9073 3.67954 31.7451 4.7131 31.7451Z" fill="#BCAC99"/>
<path d="M0 28.0076C0.245574 28.0076 0.488744 28.0559 0.715625 28.1499C0.942506 28.2439 1.14865 28.3816 1.3223 28.5553C1.49595 28.7289 1.63369 28.9351 1.72767 29.162C1.82165 29.3888 1.87002 29.632 1.87002 29.8776C1.87002 30.1232 1.82165 30.3663 1.72767 30.5932C1.63369 30.8201 1.49595 31.0262 1.3223 31.1999C1.14865 31.3735 0.942506 31.5113 0.715625 31.6052C0.488744 31.6992 0.245574 31.7476 0 31.7476V28.0076Z" fill="white"/>
<path d="M0 17.9505H4.69412C5.45493 17.9505 6.18457 18.2527 6.72254 18.7907C7.26052 19.3287 7.56274 20.0583 7.56274 20.8191C7.56274 21.5799 7.26052 22.3096 6.72254 22.8476C6.18457 23.3855 5.45493 23.6878 4.69412 23.6878H0V17.9505Z" fill="#9D846D"/>
<path d="M4.7131 22.6931C5.74666 22.6931 6.58453 21.8552 6.58453 20.8217C6.58453 19.7881 5.74666 18.9503 4.7131 18.9503C3.67954 18.9503 2.84167 19.7881 2.84167 20.8217C2.84167 21.8552 3.67954 22.6931 4.7131 22.6931Z" fill="#BCAC99"/>
<path d="M0 18.9555C0.245574 18.9555 0.488744 19.0039 0.715625 19.0979C0.942506 19.1919 1.14865 19.3296 1.3223 19.5033C1.49595 19.6769 1.63369 19.883 1.72767 20.1099C1.82165 20.3368 1.87002 20.58 1.87002 20.8256C1.87002 21.0711 1.82165 21.3143 1.72767 21.5412C1.63369 21.7681 1.49595 21.9742 1.3223 22.1478C1.14865 22.3215 0.942506 22.4592 0.715625 22.5532C0.488744 22.6472 0.245574 22.6956 0 22.6956V18.9555Z" fill="white"/>
<path d="M25.9943 42.0743H23.7483V47.9381H25.9943V42.0743Z" fill="#C9D2D2"/>
<path d="M40.8989 42.0743H38.6503V47.9381H40.8989V42.0743Z" fill="#C9D2D2"/>
<path d="M39.1312 40.2098H25.2423V49.8059H39.1312V40.2098Z" fill="#BDC7C7"/>
<path d="M50.6631 9.12246V17.1635H53.8659V9.12246H50.6631Z" fill="#C9D2D2"/>
<path d="M52.2654 15.611C51.7764 15.611 51.2983 15.466 50.8917 15.1944C50.485 14.9227 50.1681 14.5365 49.981 14.0847C49.7938 13.6329 49.7448 13.1357 49.8402 12.6561C49.9356 12.1764 50.1711 11.7358 50.5169 11.39C50.8627 11.0442 51.3033 10.8087 51.7829 10.7133C52.2626 10.6179 52.7598 10.6669 53.2116 10.854C53.6634 11.0412 54.0496 11.3581 54.3212 11.7647C54.5929 12.1713 54.738 12.6494 54.738 13.1384C54.7379 13.7942 54.4773 14.423 54.0137 14.8867C53.55 15.3504 52.9211 15.6109 52.2654 15.611V15.611Z" fill="#D35400"/>
<path d="M10.1365 9.12247V17.1635H13.3393V9.12247H10.1365Z" fill="#C9D2D2"/>
<path d="M11.7389 15.611C11.2499 15.611 10.7718 15.466 10.3652 15.1943C9.95855 14.9227 9.64162 14.5365 9.45447 14.0847C9.26731 13.6329 9.21834 13.1357 9.31374 12.6561C9.40914 12.1764 9.64463 11.7358 9.99043 11.39C10.3362 11.0442 10.7768 10.8087 11.2565 10.7133C11.7361 10.6179 12.2333 10.6669 12.6851 10.854C13.1369 11.0412 13.5231 11.3581 13.7948 11.7647C14.0665 12.1713 14.2115 12.6494 14.2115 13.1384C14.2114 13.7942 13.9508 14.423 13.4872 14.8867C13.0235 15.3504 12.3946 15.6109 11.7389 15.611V15.611Z" fill="#1DA086"/>
<path d="M23.5644 27.7785H17.8077V30.6319H23.5644V27.7785Z" fill="#C9D2D2"/>
<path d="M23.5644 35.0641H17.8077V37.9175H23.5644V35.0641Z" fill="#C9D2D2"/>
<path d="M18.4604 35.3749C18.4614 35.6695 18.5789 35.9517 18.7871 36.1599C18.9954 36.3682 19.2776 36.4856 19.5721 36.4866H21.7977C22.0925 36.4861 22.3752 36.3689 22.5839 36.1605C22.7926 35.9522 22.9104 35.6698 22.9115 35.3749V35.0641H18.4604V35.3749Z" fill="#9D846D"/>
<path d="M22.9115 30.3212C22.9104 30.0261 22.7928 29.7434 22.5841 29.5347C22.3754 29.326 22.0927 29.2083 21.7976 29.2073H19.5721C19.2774 29.2088 18.9951 29.3267 18.7869 29.5353C18.5787 29.7439 18.4613 30.0264 18.4604 30.3212V30.6319H22.9115V30.3212Z" fill="#9D846D"/>
<path d="M22.9115 30.6319H18.4604V35.0642H22.9115V30.6319Z" fill="#008B9C"/>
<path d="M22.9115 30.6319H18.4604V35.0642H22.9115V30.6319Z" fill="#EE7402"/>
<path d="M22.9115 30.6319H18.4604V35.0642H22.9115V30.6319Z" fill="#2C353A"/>
<path d="M15.2796 43.2325H13.2292V46.1108H15.2796V43.2325Z" fill="#C9D2D2"/>
<path d="M20.5149 43.2325H18.4646V46.1108H20.5149V43.2325Z" fill="#C9D2D2"/>
<path d="M18.6879 45.7844C19.1271 45.7844 19.4867 45.5341 19.4867 45.2285V44.1158C19.4867 43.8092 19.1271 43.5589 18.6879 43.5589H18.4646V45.7844L18.6879 45.7844Z" fill="#9D846D"/>
<path d="M15.0562 43.5589C14.6171 43.5589 14.2559 43.8092 14.2559 44.1158V45.2285C14.2559 45.5341 14.6171 45.7844 15.0562 45.7844H15.2795V43.5589H15.0562Z" fill="#9D846D"/>
<path d="M18.4646 43.5589H15.2797V45.7844H18.4646V43.5589Z" fill="#008B9C"/>
<path d="M18.4646 43.5589H15.2797V45.7844H18.4646V43.5589Z" fill="#EE7402"/>
<path d="M18.4646 43.5589H15.2797V45.7844H18.4646V43.5589Z" fill="#2C353A"/>
<path d="M15.2796 48.3588H13.2292V51.2372H15.2796V48.3588Z" fill="#C9D2D2"/>
<path d="M20.5149 48.3588H18.4646V51.2372H20.5149V48.3588Z" fill="#C9D2D2"/>
<path d="M18.6879 50.9108C19.1271 50.9108 19.4867 50.6605 19.4867 50.3549V49.2422C19.4867 48.9356 19.1271 48.6852 18.6879 48.6852H18.4646V50.9108H18.6879Z" fill="#9D846D"/>
<path d="M15.0562 48.6852C14.6171 48.6852 14.2559 48.9356 14.2559 49.2422V50.3549C14.2559 50.6605 14.6171 50.9108 15.0562 50.9108H15.2795V48.6852H15.0562Z" fill="#9D846D"/>
<path d="M18.4646 48.6852H15.2797V50.9108H18.4646V48.6852Z" fill="#008B9C"/>
<path d="M18.4646 48.6852H15.2797V50.9108H18.4646V48.6852Z" fill="#EE7402"/>
<path d="M18.4646 48.6852H15.2797V50.9108H18.4646V48.6852Z" fill="#2C353A"/>
<path d="M17.1275 71.3782H15.0771V74.2566H17.1275V71.3782Z" fill="#C9D2D2"/>
<path d="M22.3629 71.3782H20.3125V74.2566H22.3629V71.3782Z" fill="#C9D2D2"/>
<path d="M20.5358 73.9302C20.975 73.9302 21.3347 73.6799 21.3347 73.3743V72.2616C21.3347 71.955 20.975 71.7047 20.5358 71.7047H20.3125V73.9302H20.5358Z" fill="#9D846D"/>
<path d="M16.9042 71.7047C16.4651 71.7047 16.1039 71.955 16.1039 72.2616V73.3743C16.1039 73.6799 16.4651 73.9302 16.9042 73.9302H17.1276V71.7047H16.9042Z" fill="#9D846D"/>
<path d="M20.3125 71.7047H17.1276V73.9302H20.3125V71.7047Z" fill="#008B9C"/>
<path d="M20.3125 71.7047H17.1276V73.9302H20.3125V71.7047Z" fill="#EE7402"/>
<path d="M20.3125 71.7047H17.1276V73.9302H20.3125V71.7047Z" fill="#2C353A"/>
<path d="M35.2764 23.4354H29.9016V33.5102H35.2764V23.4354Z" fill="#008B9C"/>
<path d="M35.2764 23.4354H29.9016V33.5102H35.2764V23.4354Z" fill="#EE7402"/>
<path d="M35.2764 23.4354H29.9016V33.5102H35.2764V23.4354Z" fill="#2C353A"/>
<path d="M30.7171 24.3957H28.3029V27.316H30.7171V24.3957Z" fill="#C9D2D2"/>
<path d="M30.7171 30.4467H28.3029V31.856H30.7171V30.4467Z" fill="#C9D2D2"/>
<path d="M36.5869 25.093H33.8123V26.5023H36.5869V25.093Z" fill="#C9D2D2"/>
<path d="M36.5869 30.4467H33.8123V31.856H36.5869V30.4467Z" fill="#C9D2D2"/>
<path d="M52.2654 23.2217H48.6886V28.6503H52.2654V23.2217Z" fill="#008B9C"/>
<path d="M52.2654 23.2217H48.6886V28.6503H52.2654V23.2217Z" fill="#EE7402"/>
<path d="M52.2654 23.2217H48.6886V28.6503H52.2654V23.2217Z" fill="#2C353A"/>
<path d="M49.2313 25.4671H46.6456V26.4049H49.2313V25.4671Z" fill="#C9D2D2"/>
<path d="M53.878 23.6856H51.291V24.6235H53.878V23.6856Z" fill="#C9D2D2"/>
<path d="M53.878 27.2484H51.291V28.1862H53.878V27.2484Z" fill="#C9D2D2"/>
<path d="M13.3392 68.2363H10.7084V73.5228H13.3392V68.2363Z" fill="#9D846D"/>
<path d="M13.3393 68.2363H10.7094V68.5126H13.3393V68.2363Z" fill="#C9D2D2"/>
<path d="M13.3394 73.2477H10.7076V73.5228H13.3394V73.2477Z" fill="#C9D2D2"/>
<path d="M24.2035 23.8712H20.5149V25.7256H24.2035V23.8712Z" fill="#9D846D"/>
<path d="M24.2034 23.8718H24.0106V25.7256H24.2034V23.8718Z" fill="#C9D2D2"/>
<path d="M20.7068 23.8704H20.5149V25.7255H20.7068V23.8704Z" fill="#C9D2D2"/>
<path d="M12.2504 61.2651H10.5234V64.7352H12.2504V61.2651Z" fill="#9D846D"/>
<path d="M12.2504 61.2651H10.524V61.4465H12.2504V61.2651Z" fill="#C9D2D2"/>
<path d="M12.2505 64.5547H10.5229V64.7353H12.2505V64.5547Z" fill="#C9D2D2"/>
<path d="M23.6864 55.3365H21.9595V58.8066H23.6864V55.3365Z" fill="#9D846D"/>
<path d="M23.6864 55.3365H21.9601V55.5179H23.6864V55.3365Z" fill="#C9D2D2"/>
<path d="M23.6864 58.6262H21.9589V58.8067H23.6864V58.6262Z" fill="#C9D2D2"/>
<path d="M26.8581 55.3365H25.1312V58.8066H26.8581V55.3365Z" fill="#9D846D"/>
<path d="M26.8581 55.3365H25.1318V55.5179H26.8581V55.3365Z" fill="#C9D2D2"/>
<path d="M26.8581 58.6262H25.1306V58.8067H26.8581V58.6262Z" fill="#C9D2D2"/>
<path d="M41.1735 26.8292H41.174V25.5488H41.1689C41.1636 25.3861 41.0952 25.2318 40.9783 25.1186C40.8613 25.0054 40.7049 24.942 40.542 24.942C40.3792 24.942 40.2228 25.0054 40.1058 25.1186C39.9889 25.2318 39.9205 25.3861 39.9152 25.5488H39.9106V26.8292C39.9106 26.9967 39.9772 27.1573 40.0956 27.2757C40.214 27.3941 40.3746 27.4606 40.542 27.4606C40.7095 27.4606 40.8701 27.3941 40.9885 27.2757C41.1069 27.1573 41.1735 26.9967 41.1735 26.8292H41.1735Z" fill="#C9D2D2"/>
<path d="M41.1739 25.7256H39.9106V26.6598H41.1739V25.7256Z" fill="#9D846D"/>
<path d="M41.1739 25.7256H39.9106V26.6598H41.1739V25.7256Z" fill="#9D846D"/>
<path d="M41.1739 25.7256H39.9106V26.6598H41.1739V25.7256Z" fill="#9D846D"/>
<path d="M41.1739 25.7256H39.9106V26.6598H41.1739V25.7256Z" fill="#9D846D"/>
<path d="M13.1973 20.4933H13.1978V19.2129H13.1927C13.1874 19.0502 13.119 18.8959 13.0021 18.7827C12.8851 18.6694 12.7287 18.6061 12.5659 18.6061C12.403 18.6061 12.2466 18.6694 12.1296 18.7827C12.0127 18.8959 11.9443 19.0502 11.939 19.2129H11.9344V20.4933C11.9344 20.6607 12.001 20.8213 12.1194 20.9397C12.2378 21.0581 12.3984 21.1247 12.5659 21.1247C12.7333 21.1247 12.8939 21.0581 13.0123 20.9397C13.1307 20.8213 13.1973 20.6607 13.1973 20.4933H13.1973Z" fill="#C9D2D2"/>
<path d="M13.1977 19.3897H11.9344V20.3239H13.1977V19.3897Z" fill="#9D846D"/>
<path d="M13.1977 19.3897H11.9344V20.3239H13.1977V19.3897Z" fill="#9D846D"/>
<path d="M13.1977 19.3897H11.9344V20.3239H13.1977V19.3897Z" fill="#9D846D"/>
<path d="M13.1977 19.3897H11.9344V20.3239H13.1977V19.3897Z" fill="#9D846D"/>
<path d="M11.9638 54.347H11.9642V53.0666H11.9592C11.9539 52.9039 11.8855 52.7496 11.7685 52.6364C11.6516 52.5231 11.4951 52.4598 11.3323 52.4598C11.1695 52.4598 11.0131 52.5231 10.8961 52.6364C10.7792 52.7496 10.7108 52.9039 10.7055 53.0666H10.7009V54.347C10.7009 54.5144 10.7675 54.675 10.8859 54.7935C11.0043 54.9119 11.1649 54.9784 11.3323 54.9784C11.4998 54.9784 11.6604 54.9119 11.7788 54.7935C11.8972 54.675 11.9637 54.5144 11.9637 54.347H11.9638Z" fill="#C9D2D2"/>
<path d="M11.9642 53.2434H10.7009V54.1776H11.9642V53.2434Z" fill="#9D846D"/>
<path d="M11.9642 53.2434H10.7009V54.1776H11.9642V53.2434Z" fill="#9D846D"/>
<path d="M11.9642 53.2434H10.7009V54.1776H11.9642V53.2434Z" fill="#9D846D"/>
<path d="M11.9642 53.2434H10.7009V54.1776H11.9642V53.2434Z" fill="#9D846D"/>
<path d="M27.3471 69.5914H27.3475V68.3111H27.3425C27.3372 68.1484 27.2688 67.9941 27.1518 67.8808C27.0349 67.7676 26.8784 67.7043 26.7156 67.7043C26.5528 67.7043 26.3964 67.7676 26.2794 67.8808C26.1625 67.9941 26.0941 68.1484 26.0888 68.3111H26.0842V69.5914C26.0842 69.7589 26.1508 69.9195 26.2692 70.0379C26.3876 70.1563 26.5482 70.2228 26.7156 70.2228C26.8831 70.2228 27.0437 70.1563 27.1621 70.0379C27.2805 69.9195 27.347 69.7589 27.347 69.5914H27.3471Z" fill="#C9D2D2"/>
<path d="M27.3477 68.4879H26.0845V69.422H27.3477V68.4879Z" fill="#9D846D"/>
<path d="M27.3477 68.4879H26.0845V69.422H27.3477V68.4879Z" fill="#9D846D"/>
<path d="M27.3477 68.4879H26.0845V69.422H27.3477V68.4879Z" fill="#9D846D"/>
<path d="M27.3477 68.4879H26.0845V69.422H27.3477V68.4879Z" fill="#9D846D"/>
<path d="M11.9638 58.4277H11.9642V57.1473H11.9592C11.9539 56.9846 11.8855 56.8303 11.7685 56.717C11.6516 56.6038 11.4951 56.5405 11.3323 56.5405C11.1695 56.5405 11.0131 56.6038 10.8961 56.717C10.7792 56.8303 10.7108 56.9846 10.7055 57.1473H10.7009V58.4277C10.7009 58.5951 10.7675 58.7557 10.8859 58.8741C11.0043 58.9925 11.1649 59.0591 11.3323 59.0591C11.4998 59.0591 11.6604 58.9925 11.7788 58.8741C11.8972 58.7557 11.9637 58.5951 11.9637 58.4277H11.9638Z" fill="#C9D2D2"/>
<path d="M11.9642 57.3241H10.7009V58.2583H11.9642V57.3241Z" fill="#9D846D"/>
<path d="M11.9642 57.3241H10.7009V58.2583H11.9642V57.3241Z" fill="#9D846D"/>
<path d="M11.9642 57.3241H10.7009V58.2583H11.9642V57.3241Z" fill="#9D846D"/>
<path d="M11.9642 57.3241H10.7009V58.2583H11.9642V57.3241Z" fill="#9D846D"/>
<path d="M43.3954 26.8292H43.3959V25.5488H43.3908C43.3855 25.3861 43.3171 25.2318 43.2002 25.1186C43.0832 25.0054 42.9268 24.942 42.764 24.942C42.6012 24.942 42.4447 25.0054 42.3278 25.1186C42.2108 25.2318 42.1424 25.3861 42.1371 25.5488H42.1326V26.8292C42.1326 26.9967 42.1991 27.1573 42.3175 27.2757C42.4359 27.3941 42.5965 27.4606 42.764 27.4606C42.9314 27.4606 43.092 27.3941 43.2104 27.2757C43.3289 27.1573 43.3954 26.9967 43.3954 26.8292H43.3954Z" fill="#C9D2D2"/>
<path d="M43.3958 25.7256H42.1326V26.6598H43.3958V25.7256Z" fill="#9D846D"/>
<path d="M43.3958 25.7256H42.1326V26.6598H43.3958V25.7256Z" fill="#9D846D"/>
<path d="M43.3958 25.7256H42.1326V26.6598H43.3958V25.7256Z" fill="#9D846D"/>
<path d="M43.3958 25.7256H42.1326V26.6598H43.3958V25.7256Z" fill="#9D846D"/>
<path d="M40.8984 37.6633H40.8988V36.3829H40.8937C40.8884 36.2202 40.8201 36.0659 40.7031 35.9527C40.5861 35.8395 40.4297 35.7762 40.2669 35.7762C40.1041 35.7762 39.9477 35.8395 39.8307 35.9527C39.7137 36.0659 39.6454 36.2202 39.6401 36.3829H39.6355V37.6633C39.6355 37.8308 39.702 37.9914 39.8204 38.1098C39.9388 38.2282 40.0994 38.2947 40.2669 38.2947C40.4344 38.2947 40.595 38.2282 40.7134 38.1098C40.8318 37.9914 40.8983 37.8308 40.8983 37.6633H40.8984Z" fill="#C9D2D2"/>
<path d="M40.8988 36.5598H39.6355V37.4939H40.8988V36.5598Z" fill="#9D846D"/>
<path d="M40.8988 36.5598H39.6355V37.4939H40.8988V36.5598Z" fill="#9D846D"/>
<path d="M40.8988 36.5598H39.6355V37.4939H40.8988V36.5598Z" fill="#9D846D"/>
<path d="M40.8988 36.5598H39.6355V37.4939H40.8988V36.5598Z" fill="#9D846D"/>
<path d="M49.4794 33.2374V33.2369H48.1991V33.242C48.0364 33.2473 47.8821 33.3156 47.7688 33.4326C47.6556 33.5496 47.5923 33.706 47.5923 33.8688C47.5923 34.0316 47.6556 34.188 47.7688 34.305C47.8821 34.422 48.0364 34.4904 48.1991 34.4956V34.5002H49.4794C49.6469 34.5002 49.8075 34.4337 49.9259 34.3153C50.0443 34.1969 50.1108 34.0363 50.1108 33.8688C50.1108 33.7014 50.0443 33.5408 49.9259 33.4224C49.8075 33.3039 49.6469 33.2374 49.4794 33.2374V33.2374Z" fill="#C9D2D2"/>
<path d="M49.31 33.2369H48.3759V34.5002H49.31V33.2369Z" fill="#9D846D"/>
<path d="M49.31 33.2369H48.3759V34.5002H49.31V33.2369Z" fill="#9D846D"/>
<path d="M49.31 33.2369H48.3759V34.5002H49.31V33.2369Z" fill="#9D846D"/>
<path d="M49.31 33.2369H48.3759V34.5002H49.31V33.2369Z" fill="#9D846D"/>
<path d="M51.21 30.6324V30.6319H49.9297V30.637C49.7669 30.6423 49.6127 30.7107 49.4994 30.8276C49.3862 30.9446 49.3229 31.101 49.3229 31.2638C49.3229 31.4266 49.3862 31.5831 49.4994 31.7C49.6127 31.817 49.7669 31.8854 49.9297 31.8907V31.8952H51.21C51.3775 31.8952 51.5381 31.8287 51.6565 31.7103C51.7749 31.5919 51.8414 31.4313 51.8414 31.2638C51.8414 31.0964 51.7749 30.9358 51.6565 30.8174C51.5381 30.699 51.3775 30.6324 51.21 30.6324V30.6324Z" fill="#C9D2D2"/>
<path d="M51.0406 30.6319H50.1064V31.8952H51.0406V30.6319Z" fill="#9D846D"/>
<path d="M51.0406 30.6319H50.1064V31.8952H51.0406V30.6319Z" fill="#9D846D"/>
<path d="M51.0406 30.6319H50.1064V31.8952H51.0406V30.6319Z" fill="#9D846D"/>
<path d="M51.0406 30.6319H50.1064V31.8952H51.0406V30.6319Z" fill="#9D846D"/>
<path d="M36.3985 35.3414V35.3409H35.1181V35.346C34.9554 35.3513 34.8011 35.4196 34.6879 35.5366C34.5747 35.6536 34.5114 35.81 34.5114 35.9728C34.5114 36.1356 34.5747 36.2921 34.6879 36.409C34.8011 36.526 34.9554 36.5944 35.1181 36.5996V36.6042H36.3985C36.566 36.6042 36.7266 36.5377 36.845 36.4193C36.9634 36.3009 37.0299 36.1403 37.0299 35.9728C37.0299 35.8054 36.9634 35.6448 36.845 35.5264C36.7266 35.4079 36.566 35.3414 36.3985 35.3414V35.3414Z" fill="#C9D2D2"/>
<path d="M36.2291 35.3409H35.2949V36.6042H36.2291V35.3409Z" fill="#9D846D"/>
<path d="M36.2291 35.3409H35.2949V36.6042H36.2291V35.3409Z" fill="#9D846D"/>
<path d="M36.2291 35.3409H35.2949V36.6042H36.2291V35.3409Z" fill="#9D846D"/>
<path d="M36.2291 35.3409H35.2949V36.6042H36.2291V35.3409Z" fill="#9D846D"/>
<path d="M31.1108 35.3414V35.3409H29.8304V35.346C29.6677 35.3513 29.5134 35.4196 29.4002 35.5366C29.2869 35.6536 29.2236 35.81 29.2236 35.9728C29.2236 36.1356 29.2869 36.2921 29.4002 36.409C29.5134 36.526 29.6677 36.5944 29.8304 36.5996V36.6042H31.1108C31.2782 36.6042 31.4388 36.5377 31.5573 36.4193C31.6757 36.3009 31.7422 36.1403 31.7422 35.9728C31.7422 35.8054 31.6757 35.6448 31.5573 35.5264C31.4388 35.4079 31.2782 35.3414 31.1108 35.3414V35.3414Z" fill="#C9D2D2"/>
<path d="M30.9412 35.3409H30.0071V36.6042H30.9412V35.3409Z" fill="#9D846D"/>
<path d="M30.9412 35.3409H30.0071V36.6042H30.9412V35.3409Z" fill="#9D846D"/>
<path d="M30.9412 35.3409H30.0071V36.6042H30.9412V35.3409Z" fill="#9D846D"/>
<path d="M30.9412 35.3409H30.0071V36.6042H30.9412V35.3409Z" fill="#9D846D"/>
<path d="M15.3961 60.8154V60.8149H14.1157V60.82C13.953 60.8253 13.7987 60.8937 13.6855 61.0107C13.5722 61.1276 13.5089 61.2841 13.5089 61.4469C13.5089 61.6097 13.5722 61.7661 13.6855 61.8831C13.7987 62 13.953 62.0684 14.1157 62.0737V62.0783H15.3961C15.479 62.0783 15.5611 62.0619 15.6377 62.0302C15.7143 61.9985 15.7839 61.952 15.8425 61.8933C15.9012 61.8347 15.9477 61.7651 15.9794 61.6885C16.0111 61.6119 16.0275 61.5298 16.0275 61.4469C16.0275 61.3639 16.0111 61.2818 15.9794 61.2052C15.9477 61.1286 15.9012 61.059 15.8425 61.0004C15.7839 60.9418 15.7143 60.8952 15.6377 60.8635C15.5611 60.8318 15.479 60.8155 15.3961 60.8155V60.8154Z" fill="#C9D2D2"/>
<path d="M15.2266 60.8149H14.2925V62.0782H15.2266V60.8149Z" fill="#9D846D"/>
<path d="M15.2266 60.8149H14.2925V62.0782H15.2266V60.8149Z" fill="#9D846D"/>
<path d="M15.2266 60.8149H14.2925V62.0782H15.2266V60.8149Z" fill="#9D846D"/>
<path d="M15.2266 60.8149H14.2925V62.0782H15.2266V60.8149Z" fill="#9D846D"/>
<path d="M19.3482 60.8154V60.8149H18.0679V60.82C17.9051 60.8253 17.7508 60.8937 17.6376 61.0107C17.5244 61.1276 17.4611 61.2841 17.4611 61.4469C17.4611 61.6097 17.5244 61.7661 17.6376 61.8831C17.7508 62 17.9051 62.0684 18.0679 62.0737V62.0783H19.3482C19.4312 62.0783 19.5133 62.0619 19.5899 62.0302C19.6665 61.9985 19.7361 61.952 19.7947 61.8933C19.8533 61.8347 19.8998 61.7651 19.9316 61.6885C19.9633 61.6119 19.9796 61.5298 19.9796 61.4469C19.9796 61.3639 19.9633 61.2818 19.9316 61.2052C19.8998 61.1286 19.8533 61.059 19.7947 61.0004C19.7361 60.9418 19.6665 60.8952 19.5899 60.8635C19.5133 60.8318 19.4312 60.8155 19.3482 60.8155V60.8154Z" fill="#C9D2D2"/>
<path d="M19.1789 60.8149H18.2448V62.0782H19.1789V60.8149Z" fill="#9D846D"/>
<path d="M19.1789 60.8149H18.2448V62.0782H19.1789V60.8149Z" fill="#9D846D"/>
<path d="M19.1789 60.8149H18.2448V62.0782H19.1789V60.8149Z" fill="#9D846D"/>
<path d="M19.1789 60.8149H18.2448V62.0782H19.1789V60.8149Z" fill="#9D846D"/>
<path d="M53.7145 72.1219V72.1214H52.4342V72.1265C52.2715 72.1318 52.1172 72.2002 52.0039 72.3171C51.8907 72.4341 51.8274 72.5905 51.8274 72.7533C51.8274 72.9161 51.8907 73.0726 52.0039 73.1895C52.1172 73.3065 52.2715 73.3749 52.4342 73.3802V73.3848H53.7145C53.882 73.3848 54.0426 73.3182 54.161 73.1998C54.2794 73.0814 54.3459 72.9208 54.3459 72.7534C54.3459 72.5859 54.2794 72.4253 54.161 72.3069C54.0426 72.1885 53.882 72.122 53.7145 72.122V72.1219Z" fill="#C9D2D2"/>
<path d="M53.5451 72.1216H52.611V73.3848H53.5451V72.1216Z" fill="#9D846D"/>
<path d="M53.5451 72.1216H52.611V73.3848H53.5451V72.1216Z" fill="#9D846D"/>
<path d="M53.5451 72.1216H52.611V73.3848H53.5451V72.1216Z" fill="#9D846D"/>
<path d="M53.5451 72.1216H52.611V73.3848H53.5451V72.1216Z" fill="#9D846D"/>
<path d="M46.4628 72.1219V72.1214H45.1825V72.1265C45.0198 72.1318 44.8655 72.2002 44.7522 72.3171C44.639 72.4341 44.5757 72.5905 44.5757 72.7533C44.5757 72.9161 44.639 73.0726 44.7522 73.1895C44.8655 73.3065 45.0198 73.3749 45.1825 73.3802V73.3848H46.4628C46.6303 73.3848 46.7909 73.3182 46.9093 73.1998C47.0277 73.0814 47.0942 72.9208 47.0942 72.7534C47.0942 72.5859 47.0277 72.4253 46.9093 72.3069C46.7909 72.1885 46.6303 72.122 46.4628 72.122L46.4628 72.1219Z" fill="#C9D2D2"/>
<path d="M46.2933 72.1216H45.3591V73.3848H46.2933V72.1216Z" fill="#9D846D"/>
<path d="M46.2933 72.1216H45.3591V73.3848H46.2933V72.1216Z" fill="#9D846D"/>
<path d="M46.2933 72.1216H45.3591V73.3848H46.2933V72.1216Z" fill="#9D846D"/>
<path d="M46.2933 72.1216H45.3591V73.3848H46.2933V72.1216Z" fill="#9D846D"/>
<path d="M53.8433 55.9649H53.8438V54.6846H53.8387C53.8334 54.5219 53.765 54.3676 53.648 54.2543C53.5311 54.1411 53.3747 54.0778 53.2118 54.0778C53.049 54.0778 52.8926 54.1411 52.7756 54.2543C52.6587 54.3676 52.5903 54.5219 52.585 54.6846H52.5804V55.9649C52.5804 56.1324 52.647 56.293 52.7654 56.4114C52.8838 56.5298 53.0444 56.5963 53.2118 56.5963C53.3793 56.5963 53.5399 56.5298 53.6583 56.4114C53.7767 56.293 53.8432 56.1324 53.8432 55.9649L53.8433 55.9649Z" fill="#C9D2D2"/>
<path d="M53.8437 54.8613H52.5804V55.7955H53.8437V54.8613Z" fill="#9D846D"/>
<path d="M53.8437 54.8613H52.5804V55.7955H53.8437V54.8613Z" fill="#9D846D"/>
<path d="M53.8437 54.8613H52.5804V55.7955H53.8437V54.8613Z" fill="#9D846D"/>
<path d="M53.8437 54.8613H52.5804V55.7955H53.8437V54.8613Z" fill="#9D846D"/>
<path d="M12.4362 23.7646V23.7642H11.1559V23.7693C10.9931 23.7746 10.8389 23.8429 10.7256 23.9599C10.6124 24.0769 10.5491 24.2333 10.5491 24.3961C10.5491 24.5589 10.6124 24.7153 10.7256 24.8323C10.8389 24.9493 10.9931 25.0176 11.1559 25.0229V25.0275H12.4362C12.6037 25.0275 12.7643 24.961 12.8827 24.8426C13.0011 24.7242 13.0676 24.5636 13.0676 24.3961C13.0676 24.2286 13.0011 24.068 12.8827 23.9496C12.7643 23.8312 12.6037 23.7647 12.4362 23.7647L12.4362 23.7646Z" fill="#C9D2D2"/>
<path d="M12.2667 23.7642H11.3325V25.0275H12.2667V23.7642Z" fill="#9D846D"/>
<path d="M12.2667 23.7642H11.3325V25.0275H12.2667V23.7642Z" fill="#9D846D"/>
<path d="M12.2667 23.7642H11.3325V25.0275H12.2667V23.7642Z" fill="#9D846D"/>
<path d="M12.2667 23.7642H11.3325V25.0275H12.2667V23.7642Z" fill="#9D846D"/>
<path d="M45.6175 26.8292H45.6179V25.5488H45.6129C45.6076 25.3861 45.5392 25.2318 45.4222 25.1186C45.3053 25.0054 45.1488 24.942 44.986 24.942C44.8232 24.942 44.6668 25.0054 44.5498 25.1186C44.4328 25.2318 44.3645 25.3861 44.3592 25.5488H44.3546V26.8292C44.3546 26.9121 44.3709 26.9942 44.4027 27.0708C44.4344 27.1474 44.4809 27.217 44.5395 27.2757C44.5982 27.3343 44.6678 27.3808 44.7444 27.4125C44.821 27.4443 44.9031 27.4606 44.986 27.4606C45.0689 27.4606 45.151 27.4443 45.2276 27.4125C45.3042 27.3808 45.3739 27.3343 45.4325 27.2757C45.4911 27.217 45.5376 27.1474 45.5694 27.0708C45.6011 26.9942 45.6174 26.9121 45.6174 26.8292H45.6175Z" fill="#C9D2D2"/>
<path d="M45.6179 25.7256H44.3546V26.6598H45.6179V25.7256Z" fill="#9D846D"/>
<path d="M45.6179 25.7256H44.3546V26.6598H45.6179V25.7256Z" fill="#9D846D"/>
<path d="M45.6179 25.7256H44.3546V26.6598H45.6179V25.7256Z" fill="#9D846D"/>
<path d="M45.6179 25.7256H44.3546V26.6598H45.6179V25.7256Z" fill="#9D846D"/>
<path d="M52.8957 20.6347H52.8961V19.3544H52.891C52.8858 19.1917 52.8174 19.0374 52.7004 18.9241C52.5835 18.8109 52.427 18.7476 52.2642 18.7476C52.1014 18.7476 51.945 18.8109 51.828 18.9241C51.711 19.0374 51.6427 19.1917 51.6374 19.3544H51.6328V20.6347C51.6328 20.8022 51.6993 20.9628 51.8178 21.0812C51.9362 21.1996 52.0968 21.2661 52.2642 21.2661C52.4317 21.2661 52.5923 21.1996 52.7107 21.0812C52.8291 20.9628 52.8956 20.8022 52.8956 20.6347H52.8957Z" fill="#C9D2D2"/>
<path d="M52.8961 19.5312H51.6328V20.4654H52.8961V19.5312Z" fill="#9D846D"/>
<path d="M52.8961 19.5312H51.6328V20.4654H52.8961V19.5312Z" fill="#9D846D"/>
<path d="M52.8961 19.5312H51.6328V20.4654H52.8961V19.5312Z" fill="#9D846D"/>
<path d="M52.8961 19.5312H51.6328V20.4654H52.8961V19.5312Z" fill="#9D846D"/>
<path d="M24.7421 63.1572H17.1147V69.4524H24.7421V63.1572Z" fill="#008B9C"/>
<path d="M24.7421 63.1572H17.1147V69.4524H24.7421V63.1572Z" fill="#EE7402"/>
<path d="M24.7421 63.1572H17.1147V69.4524H24.7421V63.1572Z" fill="#2C353A"/>
<path d="M20.6854 53.3561H13.0676V58.987H20.6854V53.3561Z" fill="#008B9C"/>
<path d="M20.6854 53.3561H13.0676V58.987H20.6854V53.3561Z" fill="#EE7402"/>
<path d="M20.6854 53.3561H13.0676V58.987H20.6854V53.3561Z" fill="#2C353A"/>
<path d="M20.0272 59.8841V58.2341H19.0573V59.8841H20.0272Z" fill="#C9D2D2"/>
<path d="M20.0272 54.1091V52.459H19.0573V54.1091H20.0272Z" fill="#C9D2D2"/>
<path d="M18.2504 59.8841V58.2341H17.2804V59.8841H18.2504Z" fill="#C9D2D2"/>
<path d="M18.2504 54.1091V52.459H17.2804V54.1091H18.2504Z" fill="#C9D2D2"/>
<path d="M16.4734 59.8841V58.2341H15.5035V59.8841H16.4734Z" fill="#C9D2D2"/>
<path d="M16.4734 54.1091V52.459H15.5035V54.1091H16.4734Z" fill="#C9D2D2"/>
<path d="M14.6963 59.8841V58.2341H13.7264V59.8841H14.6963Z" fill="#C9D2D2"/>
<path d="M14.6963 54.1091V52.459H13.7264V54.1091H14.6963Z" fill="#C9D2D2"/>
<path d="M53.463 35.9735H42.571V50.3805H53.463V35.9735Z" fill="#008B9C"/>
<path d="M53.463 35.9735H42.571V50.3805H53.463V35.9735Z" fill="#EE7402"/>
<path d="M53.463 35.9735H42.571V50.3805H53.463V35.9735Z" fill="#2C353A"/>
<path d="M48.0171 45.6657C48.0831 45.6657 48.1477 45.6853 48.2026 45.722C48.2575 45.7587 48.3002 45.8108 48.3255 45.8718C48.3508 45.9328 48.3574 45.9999 48.3445 46.0647C48.3316 46.1294 48.2998 46.1889 48.2531 46.2356C48.2065 46.2823 48.147 46.314 48.0822 46.3269C48.0175 46.3398 47.9504 46.3332 47.8894 46.3079C47.8284 46.2827 47.7762 46.2399 47.7396 46.185C47.7029 46.1301 47.6833 46.0656 47.6833 45.9995C47.6834 45.911 47.7186 45.8262 47.7812 45.7636C47.8438 45.701 47.9286 45.6658 48.0171 45.6657ZM48.0171 44.7642C47.7728 44.7642 47.534 44.8366 47.3308 44.9724C47.1277 45.1081 46.9693 45.301 46.8758 45.5267C46.7823 45.7525 46.7578 46.0008 46.8055 46.2405C46.8531 46.4801 46.9708 46.7002 47.1435 46.873C47.3163 47.0458 47.5364 47.1634 47.776 47.2111C48.0156 47.2588 48.264 47.2343 48.4897 47.1408C48.7155 47.0473 48.9084 46.889 49.0441 46.6858C49.1799 46.4827 49.2523 46.2439 49.2523 45.9995C49.2524 45.6719 49.1222 45.3577 48.8906 45.1261C48.6589 44.8944 48.3447 44.7642 48.0171 44.7642V44.7642Z" fill="#F1C40F"/>
<path d="M14.6459 29.052V26.9721H12.566V29.052H14.6459Z" fill="#C9D2D2"/>
<path d="M14.6459 40.2484V38.1685H12.566V40.2484H14.6459Z" fill="#C9D2D2"/>
<path d="M16.4918 28.6106H10.7205V38.61H16.4918V28.6106Z" fill="#008B9C"/>
<path d="M16.4918 28.6106H10.7205V38.61H16.4918V28.6106Z" fill="#EE7402"/>
<path d="M16.4918 28.6106H10.7205V38.61H16.4918V28.6106Z" fill="#2C353A"/>
<path d="M15.9784 38.1686V35.8052H11.2338V38.1686H15.9784Z" fill="#C9D2D2"/>
<path d="M50.5807 51.7562H28.6904V70.4492H50.5807V51.7562Z" fill="#008B9C"/>
<path d="M50.5807 51.7562H28.6904V70.4492H50.5807V51.7562Z" fill="#EE7402"/>
<path d="M50.5807 51.7562H28.6904V70.4492H50.5807V51.7562Z" fill="#2C353A"/>
<path d="M47.0698 67.8258C47.752 67.8258 48.305 67.2728 48.305 66.5905C48.305 65.9083 47.752 65.3553 47.0698 65.3553C46.3875 65.3553 45.8345 65.9083 45.8345 66.5905C45.8345 67.2728 46.3875 67.8258 47.0698 67.8258Z" fill="#C9D2D2"/>
<path d="M44.6178 32.8458V30.486L43.9695 29.8376H41.7039L41.0555 30.486V32.8458L41.7039 33.4941H43.9695L44.6178 32.8458Z" fill="#BDC7C7"/>
<path d="M43.1515 30.7611V30.2065H44.2468" stroke="#F1C411" stroke-width="0.363336" stroke-miterlimit="10"/>
<path d="M44.6178 30.3525C44.5501 30.354 44.4828 30.3417 44.42 30.3163C44.3572 30.2909 44.3003 30.253 44.2528 30.2048C44.2052 30.1565 44.168 30.0991 44.1435 30.036C44.119 29.9729 44.1076 29.9054 44.1101 29.8378" stroke="#F1C411" stroke-width="0.363336" stroke-miterlimit="10"/>
<path d="M42.5218 30.7611V30.2065H41.4265" stroke="#F1C411" stroke-width="0.363336" stroke-miterlimit="10"/>
<path d="M41.0555 30.3525C41.1232 30.354 41.1905 30.3417 41.2533 30.3163C41.3161 30.2909 41.373 30.253 41.4205 30.2048C41.4681 30.1565 41.5053 30.0991 41.5298 30.036C41.5544 29.9729 41.5657 29.9054 41.5632 29.8378" stroke="#F1C411" stroke-width="0.363336" stroke-miterlimit="10"/>
<path d="M43.1515 32.5701V33.126H44.2468" stroke="#F1C411" stroke-width="0.363336" stroke-miterlimit="10"/>
<path d="M44.6178 32.9796C44.5501 32.978 44.4828 32.9903 44.42 33.0157C44.3572 33.0411 44.3003 33.0791 44.2528 33.1273C44.2052 33.1755 44.168 33.2329 44.1435 33.296C44.119 33.3591 44.1076 33.4266 44.1101 33.4943" stroke="#F1C411" stroke-width="0.363336" stroke-miterlimit="10"/>
<path d="M42.5218 32.5701V33.126H41.4265" stroke="#F1C411" stroke-width="0.363336" stroke-miterlimit="10"/>
<path d="M41.0555 32.9796C41.1232 32.978 41.1905 32.9903 41.2533 33.0157C41.3161 33.0411 41.373 33.0791 41.4205 33.1273C41.4681 33.1755 41.5053 33.2329 41.5298 33.296C41.5544 33.3591 41.5657 33.4266 41.5632 33.4943" stroke="#F1C411" stroke-width="0.363336" stroke-miterlimit="10"/>
<path d="M44.6178 32.5703V30.7616H41.0555V32.5703H44.6178Z" fill="#DAE3E3"/>
<path d="M35.9895 18.2445H37.2502C37.3058 18.2445 37.3591 18.2665 37.3984 18.3058C37.4377 18.3451 37.4597 18.3984 37.4597 18.454V21.9492C37.4597 22.0047 37.4377 22.0581 37.3983 22.0974C37.359 22.1367 37.3057 22.1588 37.2501 22.1588H35.9894C35.9623 22.1588 35.9353 22.1534 35.9102 22.143C35.8851 22.1326 35.8622 22.1173 35.843 22.0981C35.8238 22.0789 35.8085 22.0561 35.7981 22.0309C35.7877 22.0058 35.7823 21.9789 35.7823 21.9517V18.4516C35.7824 18.4244 35.7877 18.3974 35.7981 18.3723C35.8085 18.3472 35.8238 18.3244 35.843 18.3051C35.8623 18.2859 35.8851 18.2706 35.9102 18.2602C35.9353 18.2498 35.9623 18.2445 35.9895 18.2445V18.2445Z" fill="#C9D2D2"/>
<path d="M33.5789 18.2445H34.841C34.8965 18.2445 34.9498 18.2665 34.9891 18.3058C35.0284 18.3451 35.0505 18.3984 35.0505 18.454V21.9467C35.0505 22.003 35.0281 22.0569 34.9884 22.0967C34.9486 22.1364 34.8947 22.1588 34.8384 22.1588H33.5789C33.524 22.1588 33.4713 22.137 33.4325 22.0981C33.3936 22.0593 33.3718 22.0066 33.3718 21.9517V18.4516C33.3718 18.3966 33.3936 18.344 33.4325 18.3051C33.4713 18.2663 33.524 18.2445 33.5789 18.2445V18.2445Z" fill="#C9D2D2"/>
<path d="M31.1755 18.2445H32.4339C32.4894 18.2445 32.5427 18.2665 32.582 18.3058C32.6213 18.3451 32.6434 18.3984 32.6434 18.454V21.9516C32.6434 21.9788 32.638 22.0057 32.6276 22.0309C32.6172 22.056 32.6019 22.0788 32.5827 22.0981C32.5635 22.1173 32.5406 22.1325 32.5155 22.143C32.4904 22.1534 32.4635 22.1587 32.4363 22.1587H31.173C31.1458 22.1587 31.1189 22.1534 31.0938 22.143C31.0687 22.1325 31.0458 22.1173 31.0266 22.0981C31.0074 22.0788 30.9921 22.056 30.9817 22.0309C30.9713 22.0057 30.9659 21.9788 30.9659 21.9516V18.454C30.9659 18.4265 30.9714 18.3992 30.9819 18.3738C30.9924 18.3484 31.0079 18.3253 31.0273 18.3058C31.0468 18.2864 31.0699 18.2709 31.0953 18.2604C31.1207 18.2499 31.148 18.2445 31.1755 18.2445V18.2445Z" fill="#C9D2D2"/>
<path d="M28.7623 18.2445H30.0218C30.0773 18.2445 30.1306 18.2665 30.1699 18.3058C30.2092 18.3451 30.2313 18.3984 30.2313 18.454V21.9493C30.2313 22.0048 30.2092 22.0581 30.1699 22.0974C30.1306 22.1367 30.0773 22.1588 30.0218 22.1588H28.7623C28.7351 22.1588 28.7081 22.1534 28.683 22.143C28.6579 22.1326 28.6351 22.1173 28.6158 22.0981C28.5966 22.0789 28.5813 22.0561 28.5709 22.0309C28.5605 22.0058 28.5552 21.9789 28.5552 21.9517V18.4516C28.5552 18.3966 28.577 18.344 28.6158 18.3051C28.6547 18.2663 28.7074 18.2445 28.7623 18.2445V18.2445Z" fill="#C9D2D2"/>
<path d="M26.3517 18.2445H27.6138C27.6693 18.2445 27.7226 18.2665 27.7619 18.3058C27.8012 18.3451 27.8233 18.3984 27.8233 18.454V21.9493C27.8233 22.0048 27.8012 22.0581 27.7619 22.0974C27.7226 22.1367 27.6693 22.1588 27.6138 22.1588H26.3541C26.2986 22.1588 26.2453 22.1367 26.206 22.0974C26.1667 22.0581 26.1447 22.0048 26.1447 21.9493V18.4516C26.1447 18.3967 26.1665 18.344 26.2053 18.3051C26.2441 18.2663 26.2968 18.2445 26.3517 18.2445V18.2445Z" fill="#C9D2D2"/>
<path d="M45.5347 0H18.5568V20.6725H45.5347V0Z" fill="#C9D2D2"/>
<path d="M18.5564 18.6047V20.6719H18.6009H45.4604H45.5342V18.6047H45.4604H18.5564Z" fill="#DAE3E3"/>
<path d="M18.5564 14.4703V16.5375H18.6009H45.4604H45.5342V14.4703H45.4604H18.5564Z" fill="#DAE3E3"/>
<path d="M18.5564 10.336V12.4032H18.6009H45.4604H45.5342V10.336H45.4604H18.5564Z" fill="#DAE3E3"/>
<path d="M18.5564 6.2016V8.26879H18.6009H45.4604H45.5342V6.2016H45.4604H18.5564Z" fill="#DAE3E3"/>
<path d="M18.5564 2.0672V4.13439H18.6009H45.4604H45.5342V2.0672H45.4604H18.5564Z" fill="#DAE3E3"/>
<path d="M42.8366 33.3019C43.7401 33.3019 44.4725 32.5694 44.4725 31.6659C44.4725 30.7625 43.7401 30.03 42.8366 30.03C41.9331 30.03 41.2007 30.7625 41.2007 31.6659C41.2007 32.5694 41.9331 33.3019 42.8366 33.3019Z" fill="white"/>
<path d="M32.1867 48.4965C34.1134 48.4965 35.6753 46.9346 35.6753 45.0079C35.6753 43.0812 34.1134 41.5193 32.1867 41.5193C30.26 41.5193 28.6981 43.0812 28.6981 45.0079C28.6981 46.9346 30.26 48.4965 32.1867 48.4965Z" fill="#DAE3E3"/>
</g>
</g>
<defs>
<linearGradient id="paint0_linear_8846_31557" x1="32" y1="0" x2="32" y2="74" gradientUnits="userSpaceOnUse">
<stop offset="0.857521"/>
<stop offset="1" stop-opacity="0"/>
</linearGradient>
<clipPath id="clip0_8846_31557">
<rect width="64.0895" height="162" fill="white"/>
</clipPath>
</defs>
</svg>
