<svg width="74" height="74" viewBox="0 0 74 74" fill="none" xmlns="http://www.w3.org/2000/svg">
<mask id="mask0_9623_8112" style="mask-type:alpha" maskUnits="userSpaceOnUse" x="0" y="0" width="74" height="74">
<rect width="74" height="74" fill="url(#paint0_linear_9623_8112)"/>
</mask>
<g mask="url(#mask0_9623_8112)">
<path d="M74.5923 0H-0.592285V90.8077H74.5923V0Z" fill="#555A57"/>
<path d="M74.5923 11.9538H-0.592285V78.8538H74.5923V11.9538Z" fill="#464C48"/>
<path d="M74.5923 21.2308H-0.592285V69.5769H74.5923V21.2308Z" fill="#555A57"/>
<path d="M31.6001 9.16153H4.62316C3.28469 9.16153 2.177 8.07692 2.177 6.71538C2.177 5.37692 3.26162 4.26923 4.62316 4.26923H31.6001C32.9385 4.26923 34.0462 5.35384 34.0462 6.71538C34.0462 8.07692 32.9385 9.16153 31.6001 9.16153Z" fill="#D6DADB"/>
<path d="M6.60786 6.11541C6.65401 6.27695 6.67709 6.41541 6.70016 6.57695C6.76939 7.52311 6.16939 8.42311 5.22324 8.72311C4.27709 9.00003 3.28478 8.58464 2.80016 7.75387C2.73093 7.61541 2.6617 7.47695 2.61555 7.31541C2.56939 7.15388 2.54632 7.01541 2.52324 6.85388C2.45401 5.90772 3.05401 5.00772 4.00016 4.70772C4.94632 4.4308 5.93862 4.84618 6.42324 5.67695C6.51555 5.81541 6.5617 5.95387 6.60786 6.11541Z" fill="#A3ACAD"/>
<path d="M6.60793 6.1154C6.65408 6.27694 6.67716 6.4154 6.70023 6.57694L2.82331 7.75386C2.75408 7.6154 2.68485 7.47694 2.63869 7.3154C2.59254 7.15386 2.56946 7.0154 2.54639 6.85386L6.42331 5.67694C6.51562 5.8154 6.56177 5.95386 6.60793 6.1154Z" fill="#7F8C8D"/>
<path d="M29.6154 6.09231C29.6615 5.93077 29.7308 5.79231 29.8 5.67692C30.2846 4.86923 31.2769 4.45385 32.2231 4.75385C33.1692 5.05385 33.7462 5.97692 33.6538 6.92308C33.6308 7.08462 33.6077 7.22308 33.5615 7.38462C33.5154 7.54616 33.4462 7.68462 33.3769 7.8C32.8923 8.60769 31.9 9.02308 30.9538 8.72308C30.0077 8.42308 29.4308 7.5 29.5231 6.55385C29.5462 6.39231 29.5692 6.23077 29.6154 6.09231Z" fill="#A3ACAD"/>
<path d="M29.6154 6.09233C29.6615 5.93079 29.7308 5.79233 29.8 5.67694L33.6538 6.92309C33.6308 7.08463 33.6077 7.22309 33.5615 7.38463C33.5154 7.54617 33.4461 7.68463 33.3769 7.80002L29.5231 6.55386C29.5461 6.39233 29.5692 6.23079 29.6154 6.09233Z" fill="#7F8C8D"/>
<path d="M24.4232 7.80001C24.3309 7.66155 24.2847 7.52309 24.2155 7.38463C23.9155 6.48463 24.2616 5.46925 25.0924 4.93848C25.9462 4.43078 27.0078 4.56924 27.677 5.26155C27.7924 5.37694 27.8847 5.49232 27.9539 5.63078C28.0232 5.76925 28.0924 5.90771 28.1616 6.04617C28.4616 6.94617 28.1155 7.96155 27.2847 8.49232C26.4309 9.00001 25.3693 8.86155 24.7001 8.16925C24.6078 8.07694 24.5155 7.93848 24.4232 7.80001Z" fill="#A3ACAD"/>
<path d="M24.4231 7.80006C24.3308 7.6616 24.2847 7.52314 24.2155 7.38467L27.677 5.2616C27.7924 5.37698 27.8847 5.49237 27.9539 5.63083C28.0231 5.76929 28.0924 5.90775 28.1616 6.04621L24.7001 8.16929C24.6078 8.07698 24.5155 7.93852 24.4231 7.80006Z" fill="#7F8C8D"/>
<path d="M21.7924 8.56155C21.654 8.63078 21.5155 8.70001 21.354 8.72309C20.4309 8.97693 19.4386 8.56155 18.977 7.68462C18.5155 6.8077 18.7232 5.74616 19.4616 5.12309C19.577 5.03078 19.7155 4.93847 19.854 4.86924C19.9924 4.80001 20.1309 4.73078 20.2924 4.7077C21.2155 4.45385 22.2078 4.86924 22.6693 5.74616C23.1309 6.62309 22.9001 7.68462 22.1847 8.3077C22.0463 8.40001 21.9309 8.49232 21.7924 8.56155Z" fill="#A3ACAD"/>
<path d="M21.7923 8.56154C21.6539 8.63077 21.5154 8.7 21.3539 8.72308L19.4615 5.14616C19.5769 5.05385 19.7154 4.96154 19.8539 4.89231C19.9923 4.82308 20.1308 4.75385 20.2923 4.73077L22.1615 8.3077C22.0462 8.4 21.9308 8.49231 21.7923 8.56154Z" fill="#7F8C8D"/>
<path d="M15.0309 8.76926C14.8693 8.74618 14.7309 8.70003 14.5924 8.6308C13.7155 8.26157 13.1847 7.31541 13.3693 6.34618C13.5539 5.37695 14.3847 4.68464 15.3309 4.63849C15.4924 4.63849 15.6309 4.63849 15.7924 4.68464C15.9539 4.7308 16.0924 4.75387 16.2309 4.8231C17.1078 5.19233 17.6386 6.13849 17.4539 7.10772C17.2693 8.07695 16.4386 8.76926 15.4924 8.81541C15.3309 8.81541 15.1924 8.79233 15.0309 8.76926Z" fill="#A3ACAD"/>
<path d="M15.031 8.76929C14.8695 8.74621 14.731 8.70006 14.5925 8.63083L15.331 4.63852C15.4925 4.63852 15.631 4.63852 15.7925 4.68467C15.9541 4.73083 16.0925 4.7539 16.231 4.82313L15.4925 8.81544C15.331 8.81544 15.1925 8.79237 15.031 8.76929Z" fill="#7F8C8D"/>
<path d="M8.22321 5.67695C8.29244 5.53849 8.40782 5.4231 8.50013 5.30772C9.14628 4.61541 10.2078 4.43079 11.0617 4.93849C11.9155 5.44618 12.2847 6.46156 11.9847 7.36156C11.9386 7.50003 11.8694 7.63849 11.8001 7.77695C11.7309 7.91541 11.6155 8.03079 11.5232 8.14618C10.8771 8.83849 9.81551 9.0231 8.96167 8.51541C8.10782 8.00772 7.73859 6.99233 8.03859 6.09233C8.08474 5.95387 8.1309 5.81541 8.22321 5.67695Z" fill="#A3ACAD"/>
<path d="M8.22319 5.67694C8.29242 5.53848 8.4078 5.42309 8.50011 5.30771L12.0078 7.36155C11.9617 7.50002 11.8924 7.63848 11.8232 7.77694C11.754 7.9154 11.6386 8.03079 11.5463 8.14617L8.03857 6.09232C8.08473 5.95386 8.13088 5.8154 8.22319 5.67694Z" fill="#7F8C8D"/>
<path d="M42.4 4.26923H69.3769C70.7154 4.26923 71.8231 5.35384 71.8231 6.71538C71.8231 8.05384 70.7385 9.16153 69.3769 9.16153H42.4C41.0616 9.16153 39.9539 8.07692 39.9539 6.71538C39.9539 5.37692 41.0616 4.26923 42.4 4.26923Z" fill="#D6DADB"/>
<path d="M69.5846 4.66153C69.7462 4.68461 69.9077 4.70769 70.0462 4.75384C70.9462 5.05384 71.5462 5.95384 71.4538 6.92307C71.3615 7.91538 70.6 8.67692 69.6538 8.7923C69.4923 8.81538 69.3538 8.81538 69.1923 8.7923C69.0308 8.76923 68.8923 8.74615 68.7308 8.7C67.8308 8.4 67.2308 7.49999 67.3231 6.53076C67.4154 5.53846 68.2 4.77692 69.1231 4.66153C69.2615 4.63846 69.4231 4.63846 69.5846 4.66153Z" fill="#A3ACAD"/>
<path d="M69.5846 4.66153C69.7461 4.68461 69.9076 4.70769 70.0461 4.75384L69.6538 8.7923C69.4923 8.81538 69.3538 8.81538 69.1923 8.7923C69.0307 8.76923 68.8923 8.74615 68.7307 8.7L69.123 4.66153C69.2615 4.63846 69.423 4.63846 69.5846 4.66153Z" fill="#7F8C8D"/>
<path d="M43.8539 5.23847C43.9692 5.35386 44.0616 5.46924 44.1539 5.6077C44.6616 6.4154 44.5692 7.47694 43.8769 8.19232C43.1846 8.90771 42.1 9.00001 41.2923 8.49232C41.1539 8.40001 41.0385 8.30771 40.9231 8.19232C40.8077 8.07694 40.7154 7.96155 40.6231 7.82309C40.1154 7.0154 40.2077 5.95386 40.9 5.23847C41.5923 4.52309 42.6769 4.43078 43.4846 4.93847C43.6231 5.03078 43.7616 5.12309 43.8539 5.23847Z" fill="#A3ACAD"/>
<path d="M43.8538 5.23845C43.9692 5.35383 44.0615 5.46922 44.1538 5.60768L41.2923 8.49229C41.1538 8.39998 41.0384 8.30768 40.923 8.19229C40.8077 8.07691 40.7154 7.96152 40.623 7.82306L43.4846 4.93845C43.623 5.03075 43.7615 5.12306 43.8538 5.23845Z" fill="#7F8C8D"/>
<path d="M49.2768 8.16925C49.1614 8.28464 49.046 8.37695 48.9075 8.46925C48.0998 8.97695 47.0383 8.88464 46.3229 8.19233C45.6075 7.50002 45.5152 6.41541 45.9998 5.60771C46.0691 5.46925 46.1845 5.35387 46.2768 5.23848C46.3691 5.1231 46.5075 5.03079 46.646 4.93848C47.4537 4.43079 48.5152 4.50002 49.2306 5.19233C49.946 5.88464 50.0383 6.96925 49.5537 7.77695C49.4845 7.93848 49.3922 8.05387 49.2768 8.16925Z" fill="#A3ACAD"/>
<path d="M49.2768 8.16927C49.1614 8.28466 49.046 8.37696 48.9076 8.46927L46.0229 5.63081C46.0922 5.49235 46.2076 5.37696 46.2999 5.26158C46.3922 5.14619 46.5306 5.05389 46.6691 4.96158L49.5768 7.80004C49.4845 7.9385 49.3922 8.05389 49.2768 8.16927Z" fill="#7F8C8D"/>
<path d="M51.3536 7.73081C51.2844 7.59235 51.2152 7.45388 51.169 7.29235C50.9152 6.36927 51.3075 5.37696 52.1613 4.89235C53.0383 4.40773 54.0998 4.61542 54.7229 5.33081C54.8152 5.44619 54.9075 5.58465 54.9998 5.72311C55.0921 5.86158 55.1383 6.00004 55.1844 6.16158C55.4383 7.08465 55.0459 8.07696 54.1921 8.56158C53.3152 9.04619 52.2536 8.8385 51.6306 8.12311C51.5383 7.98465 51.446 7.86927 51.3536 7.73081Z" fill="#A3ACAD"/>
<path d="M51.3537 7.73081C51.2845 7.59235 51.2152 7.45389 51.1691 7.29235L54.7229 5.33081C54.8152 5.4462 54.9075 5.58466 54.9998 5.72312C55.0921 5.86158 55.1383 6.00004 55.1845 6.16158L51.6306 8.12312C51.5383 7.98466 51.446 7.86927 51.3537 7.73081Z" fill="#7F8C8D"/>
<path d="M59.8922 5.10003C60.0076 5.19234 60.123 5.30773 60.2153 5.42311C60.8153 6.16157 60.8153 7.24619 60.1922 8.0308C59.5691 8.79234 58.5076 9.02311 57.6538 8.60773C57.5153 8.5385 57.3768 8.44619 57.2614 8.35388C57.1461 8.26157 57.0307 8.14619 56.9384 8.0308C56.3384 7.29234 56.3384 6.20773 56.9614 5.42311C57.5845 4.66157 58.6461 4.4308 59.4999 4.86927C59.6384 4.91542 59.7768 5.00773 59.8922 5.10003Z" fill="#A3ACAD"/>
<path d="M59.8921 5.10001C60.0075 5.19231 60.1228 5.3077 60.2152 5.42308L57.6767 8.58462C57.5382 8.51539 57.3998 8.42308 57.2844 8.33078C57.169 8.23847 57.0536 8.12308 56.9613 8.0077L59.4998 4.84616C59.6382 4.91539 59.7767 5.0077 59.8921 5.10001Z" fill="#7F8C8D"/>
<path d="M66.054 6.83086C66.054 6.99239 66.0309 7.15393 65.9848 7.29239C65.7309 8.21547 64.854 8.86162 63.8848 8.81547C62.8925 8.76932 62.1079 8.03086 61.9463 7.10778C61.9233 6.96932 61.9002 6.80778 61.9233 6.64624C61.9463 6.4847 61.9463 6.32316 61.9925 6.1847C62.2463 5.26162 63.1002 4.61547 64.0925 4.66163C65.0848 4.70778 65.8694 5.44624 66.031 6.36932C66.054 6.50778 66.0771 6.66932 66.054 6.83086Z" fill="#A3ACAD"/>
<path d="M66.0538 6.83088C66.0538 6.99242 66.0307 7.15396 65.9846 7.29242L61.923 7.08473C61.8999 6.94627 61.8769 6.78473 61.8999 6.62319C61.923 6.46165 61.923 6.30011 61.9692 6.16165L66.0307 6.36934C66.0538 6.50781 66.0769 6.66934 66.0538 6.83088Z" fill="#7F8C8D"/>
<path d="M42.4 15.7154H53.2C54.5385 15.7154 55.6462 16.8 55.6462 18.1615C55.6462 19.5 54.5616 20.6077 53.2 20.6077H42.4C41.0616 20.6077 39.9539 19.5231 39.9539 18.1615C39.9539 16.8231 41.0616 15.7154 42.4 15.7154Z" fill="#2A312D"/>
<path d="M44.3845 18.8077C44.3384 18.9692 44.2692 19.1077 44.1999 19.2231C43.7153 20.0308 42.723 20.4461 41.7768 20.1461C40.8307 19.8461 40.2538 18.9231 40.3461 17.9769C40.3692 17.8154 40.3922 17.6769 40.4384 17.5154C40.4845 17.3538 40.5538 17.2154 40.623 17.1C41.1076 16.2923 42.0999 15.8769 43.0461 16.1769C43.9922 16.4769 44.5692 17.4 44.4768 18.3461C44.4538 18.5077 44.4307 18.6461 44.3845 18.8077Z" fill="#A3ACAD"/>
<path d="M44.3847 18.8077C44.3385 18.9692 44.2693 19.1077 44.2 19.2231L40.3462 17.9769C40.3693 17.8154 40.3923 17.6769 40.4385 17.5154C40.4847 17.3538 40.5539 17.2154 40.6231 17.1L44.477 18.3461C44.4539 18.5077 44.4308 18.6461 44.3847 18.8077Z" fill="#7F8C8D"/>
<path d="M49.5769 17.0769C49.6692 17.2154 49.7153 17.3538 49.7845 17.4923C50.0845 18.3923 49.7384 19.4077 48.9076 19.9384C48.0538 20.4461 46.9922 20.3077 46.323 19.6154C46.2076 19.5 46.1153 19.3846 46.0461 19.2461C45.9769 19.1077 45.9076 18.9692 45.8384 18.8307C45.5384 17.9307 45.8845 16.9154 46.7153 16.3846C47.5692 15.8769 48.6307 16.0154 49.2999 16.7077C49.3922 16.823 49.4845 16.9384 49.5769 17.0769Z" fill="#A3ACAD"/>
<path d="M49.5768 17.0769C49.6691 17.2154 49.7153 17.3538 49.7845 17.4923L46.323 19.6154C46.2076 19.5 46.1153 19.3846 46.0461 19.2461C45.9768 19.1077 45.9076 18.9692 45.8384 18.8307L49.2999 16.7077C49.3922 16.8231 49.4845 16.9384 49.5768 17.0769Z" fill="#7F8C8D"/>
<path d="M52.2076 16.3153C52.346 16.2461 52.4845 16.1769 52.646 16.1538C53.5691 15.9 54.5614 16.3153 55.023 17.1923C55.4845 18.0692 55.2768 19.1307 54.5383 19.7538C54.423 19.8461 54.2845 19.9384 54.146 20.0077C54.0076 20.0769 53.8691 20.1461 53.7076 20.1692C52.7845 20.423 51.7922 20.0077 51.3307 19.1307C50.8691 18.2538 51.0999 17.1923 51.8153 16.5692C51.9537 16.4769 52.0691 16.4077 52.2076 16.3153Z" fill="#A3ACAD"/>
<path d="M52.2076 16.3153C52.3461 16.2461 52.4845 16.1769 52.6461 16.1538L54.5384 19.7307C54.423 19.823 54.2845 19.9153 54.1461 19.9846C54.0076 20.0538 53.8692 20.123 53.7076 20.1461L51.8153 16.5692C51.9538 16.4769 52.0692 16.4077 52.2076 16.3153Z" fill="#7F8C8D"/>
<path d="M37.5306 0H36.4922V11.9538H37.5306V0Z" fill="#2A312D"/>
<path d="M47.7999 70.2C49.1384 70.2 50.2461 71.2846 50.2461 72.6462C50.2461 73.9846 49.1615 75.0923 47.7999 75.0923C46.4614 75.0923 45.3538 74.0077 45.3538 72.6462C45.3538 71.2846 46.4614 70.2 47.7999 70.2Z" fill="#D6DADB"/>
<path d="M46.6 74.3308C46.4615 74.2385 46.3461 74.1231 46.2538 74.0308C45.6076 73.3154 45.5384 72.2538 46.0923 71.4462C46.6692 70.6385 47.7076 70.3615 48.5846 70.7077C48.723 70.7769 48.8615 70.8462 48.9999 70.9385C49.1384 71.0308 49.2538 71.1231 49.3461 71.2385C49.9923 71.9538 50.0615 73.0154 49.5076 73.8231C48.9307 74.6308 47.8923 74.9077 47.0153 74.5385C46.8769 74.5154 46.7384 74.4231 46.6 74.3308Z" fill="#A3ACAD"/>
<path d="M46.5999 74.3308C46.4615 74.2385 46.3461 74.1231 46.2538 74.0308L48.5846 70.7077C48.723 70.7769 48.8615 70.8462 48.9999 70.9385C49.1384 71.0308 49.2538 71.1231 49.3461 71.2385L47.0153 74.5616C46.8769 74.5154 46.7384 74.4231 46.5999 74.3308Z" fill="#7F8C8D"/>
<path d="M70.4846 14.6308H68.8693V20.0308H70.4846V14.6308Z" fill="#2A312D"/>
<path d="M70.4846 70.7538H68.8693V76.1538H70.4846V70.7538Z" fill="#2A312D"/>
<path d="M10.7384 24.9H4.87683V36.7154H10.7384V24.9Z" fill="#555A57"/>
<path d="M11.823 23.8154L10.7384 24.9H4.87685L3.79224 23.8154H11.823Z" fill="#373D3A"/>
<path d="M11.823 37.8H3.79224L4.87685 36.7154H10.7384L11.823 37.8Z" fill="#797D7B"/>
<path d="M11.823 23.8154V37.8L10.7384 36.7154V24.9L11.823 23.8154Z" fill="#666B68"/>
<path d="M4.87685 24.9V36.7154L3.79224 37.8V23.8154L4.87685 24.9Z" fill="#464C48"/>
<path d="M8.89225 26.7H6.74609V28.8462H8.89225V26.7Z" fill="#BCC3C4"/>
<path d="M7.80753 34.4538C8.44478 34.4538 8.96138 33.9372 8.96138 33.3C8.96138 32.6627 8.44478 32.1461 7.80753 32.1461C7.17028 32.1461 6.65369 32.6627 6.65369 33.3C6.65369 33.9372 7.17028 34.4538 7.80753 34.4538Z" fill="#2A312D"/>
<path d="M58.3233 60.2077H47.5925V66.0692H58.3233V60.2077Z" fill="#555A57"/>
<path d="M59.4079 67.1539L58.3232 66.0693V60.2077L59.4079 59.1231V67.1539Z" fill="#666B68"/>
<path d="M46.5078 67.1538V59.123L47.5924 60.2077V66.0692L46.5078 67.1538Z" fill="#464C48"/>
<path d="M59.4078 67.1539H46.5078L47.5924 66.0692H58.3232L59.4078 67.1539Z" fill="#797D7B"/>
<path d="M58.3232 60.2077H47.5924L46.5078 59.123H59.4078L58.3232 60.2077Z" fill="#373D3A"/>
<path d="M51.5385 62.0769H49.3923V64.2231H51.5385V62.0769Z" fill="#BCC3C4"/>
<path d="M56.5232 62.0769H54.3771V64.2231H56.5232V62.0769Z" fill="#BCC3C4"/>
<path d="M25.2999 60.2077H4.8999V66.0692H25.2999V60.2077Z" fill="#555A57"/>
<path d="M3.81531 59.123L4.89992 60.2077V66.0692L3.81531 67.1538V59.123Z" fill="#464C48"/>
<path d="M26.3847 59.1231V67.1539L25.3 66.0693V60.2077L26.3847 59.1231Z" fill="#666B68"/>
<path d="M3.81531 59.123H26.3845L25.2999 60.2077H4.89992L3.81531 59.123Z" fill="#373D3A"/>
<path d="M4.89992 66.0692H25.2999L26.3845 67.1539H3.81531L4.89992 66.0692Z" fill="#797D7B"/>
<path d="M8.84623 62.0769H6.70007V64.2231H8.84623V62.0769Z" fill="#BCC3C4"/>
<path d="M23.5 62.0769H21.3539V64.2231H23.5V62.0769Z" fill="#BCC3C4"/>
<path d="M18.6077 62.0769H16.4615V64.2231H18.6077V62.0769Z" fill="#BCC3C4"/>
<path d="M13.7384 62.0769H11.5923V64.2231H13.7384V62.0769Z" fill="#BCC3C4"/>
<path d="M25.2999 24.9H19.4384V36.7154H25.2999V24.9Z" fill="#555A57"/>
<path d="M26.3846 23.8154L25.3 24.9H19.4385L18.377 23.8154H26.3846Z" fill="#373D3A"/>
<path d="M26.3846 37.8H18.377L19.4385 36.7154H25.3L26.3846 37.8Z" fill="#797D7B"/>
<path d="M26.3847 23.8154V37.8L25.3 36.7154V24.9L26.3847 23.8154Z" fill="#666B68"/>
<path d="M19.4385 24.9V36.7154L18.377 37.8V23.8154L19.4385 24.9Z" fill="#464C48"/>
<path d="M23.4538 26.7H21.3076V28.8462H23.4538V26.7Z" fill="#BCC3C4"/>
<path d="M22.3693 35.3539C23.5036 35.3539 24.4231 34.4343 24.4231 33.3C24.4231 32.1657 23.5036 31.2462 22.3693 31.2462C21.235 31.2462 20.3154 32.1657 20.3154 33.3C20.3154 34.4343 21.235 35.3539 22.3693 35.3539Z" fill="#2A312D"/>
<path d="M61.1846 23.2384H59.0385V25.3846H61.1846V23.2384Z" fill="#BCC3C4"/>
<path d="M71.2692 23.2384H69.123V25.3846H71.2692V23.2384Z" fill="#BCC3C4"/>
<path d="M67.8999 23.2384H65.7538V25.3846H67.8999V23.2384Z" fill="#BCC3C4"/>
<path d="M64.5539 23.2384H62.4077V25.3846H64.5539V23.2384Z" fill="#BCC3C4"/>
<path d="M25.6231 3.27685H24.7462V3.11532L25.0462 3.04608V1.01532L24.7462 0.946084V0.784546H25.6231V0.946084L25.3231 1.01532V3.04608L25.6231 3.11532V3.27685Z" fill="#ECF1F1"/>
<path d="M26.9847 3.27682H26.7078V1.4999C26.7078 1.36144 26.7078 1.22298 26.7309 1.08452C26.7078 1.10759 26.6847 1.13067 26.6616 1.15375C26.6386 1.17682 26.5001 1.29221 26.2463 1.47682L26.0847 1.29221L26.7539 0.784515H26.9847V3.27682Z" fill="#ECF1F1"/>
<path d="M10.0924 1.93845H11.2231V2.14614H10.0924V3.27691H9.88468V2.14614H8.75391V1.93845H9.88468V0.807678H10.0924V1.93845Z" fill="#ECF1F1"/>
<path d="M4.69234 1.93845H5.82311V2.14614H4.69234V3.27691H4.48465V2.14614H3.35388V1.93845H4.48465V0.807678H4.69234V1.93845Z" fill="#ECF1F1"/>
<path d="M14.8 2.16915V1.96146H16.0231V2.16915H14.8Z" fill="#ECF1F1"/>
<path d="M20.1771 2.16915V1.96146H21.4233V2.16915H20.1771Z" fill="#ECF1F1"/>
<path d="M31.0232 3.27685H30.1462V3.11532L30.4462 3.04608V1.01532L30.1462 0.946084V0.784546H31.0232V0.946084L30.7232 1.01532V3.04608L31.0232 3.11532V3.27685Z" fill="#ECF1F1"/>
<path d="M32.9616 3.27693H31.3231V3.02308L31.9693 2.35385C32.177 2.14616 32.2924 2.0077 32.3616 1.91539C32.4308 1.82308 32.477 1.75385 32.5 1.66154C32.5231 1.56923 32.5462 1.5 32.5462 1.4077C32.5462 1.26923 32.5 1.17693 32.4308 1.08462C32.3385 1.01539 32.2462 0.969234 32.0847 0.969234C31.9924 0.969234 31.877 0.992311 31.7847 1.01539C31.6924 1.03846 31.6 1.1077 31.4847 1.2L31.3231 1.01539C31.5539 0.830772 31.8077 0.738464 32.0847 0.738464C32.3154 0.738464 32.5 0.807695 32.6385 0.92308C32.777 1.03846 32.8462 1.2 32.8462 1.4077C32.8462 1.56923 32.8 1.73077 32.7077 1.86923C32.6154 2.03077 32.4539 2.21539 32.2 2.44616L31.6462 2.97693V3H32.9385V3.27693H32.9616Z" fill="#ECF1F1"/>
<path d="M41.846 3.27679H40.9691V3.11525L41.2691 3.04602V1.01525L40.9691 0.946023V0.784485H41.846V0.946023L41.546 1.01525V3.04602L41.846 3.11525V3.27679Z" fill="#ECF1F1"/>
<path d="M43.6923 1.38461C43.6923 1.54615 43.6461 1.68461 43.5538 1.77692C43.4615 1.86923 43.3461 1.93846 43.1846 1.98461V2.00769C43.3923 2.03077 43.5307 2.1 43.623 2.1923C43.7154 2.28461 43.7615 2.42307 43.7615 2.58461C43.7615 2.81538 43.6692 3 43.5077 3.13846C43.3461 3.27692 43.1154 3.32307 42.8154 3.32307C42.6769 3.32307 42.5615 3.32307 42.4461 3.3C42.3307 3.27692 42.2384 3.25384 42.123 3.18461V2.90769C42.2384 2.95384 42.3538 3 42.4692 3.02307C42.5846 3.04615 42.7 3.06923 42.8154 3.06923C43.2538 3.06923 43.4615 2.90769 43.4615 2.56154C43.4615 2.26154 43.2307 2.1 42.7461 2.1H42.4923V1.86923H42.7461C42.9307 1.86923 43.0923 1.82307 43.2077 1.73077C43.323 1.63846 43.3692 1.52307 43.3692 1.38461C43.3692 1.26923 43.323 1.17692 43.2538 1.10769C43.1615 1.03846 43.0461 0.992305 42.9077 0.992305C42.7923 0.992305 42.7 1.01538 42.6077 1.03846C42.5154 1.06154 42.4 1.13077 42.2846 1.2L42.1461 1.01538C42.2384 0.923074 42.3769 0.87692 42.4923 0.830766C42.6307 0.784613 42.7692 0.761536 42.9077 0.761536C43.1615 0.761536 43.3461 0.80769 43.4615 0.923074C43.623 1.03846 43.6923 1.17692 43.6923 1.38461Z" fill="#ECF1F1"/>
<path d="M1.96921 15.3692H1.69229V13.5923C1.69229 13.4538 1.69229 13.3154 1.71537 13.1769C1.69229 13.2 1.66921 13.223 1.64614 13.2461C1.62306 13.2692 1.4846 13.3846 1.23075 13.5692L1.06921 13.3846L1.73844 12.8769H1.96921V15.3692Z" fill="#ECF1F1"/>
<path d="M4.55374 15.3692H2.91528V15.1154L3.56144 14.4461C3.76913 14.2384 3.88451 14.1 3.95375 14.0077C4.02298 13.9154 4.06913 13.8461 4.09221 13.7538C4.11528 13.6615 4.13836 13.5923 4.13836 13.5C4.13836 13.3615 4.09221 13.2692 4.02298 13.1769C3.93067 13.1077 3.83836 13.0615 3.67682 13.0615C3.58451 13.0615 3.46913 13.0846 3.37682 13.1077C3.28451 13.1307 3.19221 13.2 3.07682 13.2923L2.91528 13.1077C3.14605 12.9231 3.3999 12.8307 3.67682 12.8307C3.90759 12.8307 4.09221 12.9 4.23067 13.0154C4.36913 13.1308 4.43836 13.2923 4.43836 13.5C4.43836 13.6615 4.39221 13.8231 4.2999 13.9615C4.20759 14.1231 4.04605 14.3077 3.79221 14.5384L3.23836 15.0692V15.0923H4.53067L4.55374 15.3692Z" fill="#ECF1F1"/>
<path d="M4.99219 15.1846C4.99219 15.1154 5.01526 15.0461 5.03834 15C5.08449 14.9538 5.13065 14.9308 5.1768 14.9308C5.24603 14.9308 5.29219 14.9538 5.33834 15C5.3845 15.0461 5.38449 15.0923 5.38449 15.1846C5.38449 15.2538 5.36142 15.3231 5.33834 15.3461C5.31526 15.3692 5.24603 15.4154 5.1768 15.4154C5.10757 15.4154 5.06142 15.3923 5.03834 15.3692C5.01526 15.3461 4.99219 15.2769 4.99219 15.1846ZM5.91526 15.1846C5.91526 15.1154 5.93834 15.0461 5.96142 15C6.00757 14.9538 6.05373 14.9308 6.09988 14.9308C6.16911 14.9308 6.21526 14.9538 6.26142 15C6.30757 15.0461 6.30757 15.0923 6.30757 15.1846C6.30757 15.2538 6.2845 15.3231 6.26142 15.3461C6.21526 15.3923 6.16911 15.4154 6.09988 15.4154C6.03065 15.4154 5.98449 15.3923 5.96142 15.3692C5.91526 15.3231 5.91526 15.2769 5.91526 15.1846ZM6.81526 15.1846C6.81526 15.1154 6.83834 15.0461 6.86142 15C6.90757 14.9538 6.95373 14.9308 6.99988 14.9308C7.06911 14.9308 7.11526 14.9538 7.16142 15C7.20757 15.0461 7.20757 15.0923 7.20757 15.1846C7.20757 15.2538 7.18449 15.3231 7.16142 15.3461C7.13834 15.3692 7.06911 15.4154 6.99988 15.4154C6.93065 15.4154 6.88449 15.3923 6.86142 15.3692C6.83834 15.3461 6.81526 15.2769 6.81526 15.1846Z" fill="#ECF1F1"/>
<path d="M9.28458 15.3692H7.64612V15.1154L8.29227 14.4461C8.49996 14.2384 8.61535 14.1 8.68458 14.0077C8.75381 13.9154 8.79996 13.8461 8.82304 13.7538C8.84612 13.6615 8.86919 13.5923 8.86919 13.5C8.86919 13.3615 8.82304 13.2692 8.75381 13.1769C8.6615 13.1077 8.56919 13.0615 8.40766 13.0615C8.31535 13.0615 8.19996 13.0846 8.10766 13.1077C8.01535 13.1307 7.92304 13.2 7.80766 13.2923L7.64612 13.1077C7.87689 12.9231 8.13073 12.8307 8.40766 12.8307C8.63843 12.8307 8.82304 12.9 8.9615 13.0154C9.09996 13.1308 9.16919 13.2923 9.16919 13.5C9.16919 13.6615 9.12304 13.8231 9.03073 13.9615C8.93843 14.1231 8.77689 14.3077 8.52304 14.5384L7.96919 15.0692V15.0923H9.2615L9.28458 15.3692Z" fill="#ECF1F1"/>
<path d="M11.4076 14.7923H11.0383V15.3692H10.7614V14.7923H9.5614V14.5384L10.7383 12.8538H11.0383V14.5384H11.4076V14.7923ZM10.7614 14.5384V13.7077C10.7614 13.5461 10.7614 13.3615 10.7845 13.1538H10.7614C10.7152 13.2692 10.646 13.3615 10.5999 13.4307L9.83832 14.5384H10.7614Z" fill="#ECF1F1"/>
<path d="M14.1537 12.8769H14.4768L13.5768 15.3692H13.2999L12.3999 12.8769H12.6999L13.2768 14.4923C13.3461 14.6769 13.3922 14.8615 13.4384 15.023C13.4845 14.8384 13.5307 14.6538 13.5999 14.4692C13.5768 14.4692 14.1537 12.8769 14.1537 12.8769Z" fill="#ECF1F1"/>
<path d="M17.7078 14.1C17.7078 14.5154 17.5924 14.8154 17.3616 15.0461C17.1308 15.2538 16.8078 15.3692 16.3924 15.3692H15.7001V12.8769H16.4847C16.877 12.8769 17.177 12.9923 17.3847 13.2C17.5924 13.4077 17.7078 13.7077 17.7078 14.1ZM17.4078 14.1C17.4078 13.7769 17.3155 13.523 17.1539 13.3615C16.9924 13.2 16.7385 13.1077 16.4155 13.1077H16.0001V15.0923H16.3462C16.6924 15.0923 16.9462 15 17.1308 14.8384C17.3155 14.7 17.4078 14.4461 17.4078 14.1Z" fill="#ECF1F1"/>
<path d="M19.3229 13.1077C19.046 13.1077 18.8383 13.2 18.6768 13.3846C18.5152 13.5692 18.446 13.823 18.446 14.123C18.446 14.4461 18.5152 14.7 18.6768 14.8846C18.8383 15.0692 19.046 15.1615 19.3229 15.1615C19.5075 15.1615 19.6922 15.1384 19.9229 15.0692V15.323C19.7614 15.3923 19.5306 15.4154 19.2768 15.4154C18.9075 15.4154 18.6306 15.3 18.4229 15.0923C18.2152 14.8846 18.1229 14.5615 18.1229 14.1461C18.1229 13.8923 18.1691 13.6615 18.2614 13.4769C18.3537 13.2923 18.4922 13.1307 18.6768 13.0384C18.8614 12.923 19.0691 12.8769 19.3229 12.8769C19.5768 12.8769 19.8075 12.923 20.0152 13.0154L19.8998 13.2692C19.7152 13.1307 19.5306 13.1077 19.3229 13.1077Z" fill="#ECF1F1"/>
<path d="M1 19.5V17.6538H1.3V19.5H1Z" fill="#ECF1F1"/>
<path d="M3.46913 19.5H3.0999L2.17682 18V18.0923C2.1999 18.2538 2.1999 18.3923 2.1999 18.5308V19.5H1.92297V17.6538H2.2922L3.1922 19.1308C3.1922 19.1077 3.1922 19.0385 3.1922 18.9231C3.1922 18.8077 3.1922 18.7154 3.1922 18.6461V17.6769H3.46913V19.5Z" fill="#ECF1F1"/>
<path d="M5.31548 18.1846C5.31548 18.3692 5.24625 18.5307 5.13086 18.623C4.9924 18.7154 4.83086 18.7846 4.60009 18.7846H4.41548V19.4769H4.11548V17.6307H4.64625C4.87702 17.6307 5.06163 17.6769 5.17702 17.7692C5.24625 17.8615 5.31548 18 5.31548 18.1846ZM4.3924 18.5307H4.55394C4.71548 18.5307 4.83086 18.5077 4.90009 18.4384C4.96932 18.3923 5.01548 18.3 5.01548 18.1846C5.01548 18.0692 4.9924 18 4.92317 17.9538C4.85394 17.9077 4.76163 17.8846 4.62317 17.8846H4.41548L4.3924 18.5307Z" fill="#ECF1F1"/>
<path d="M7.27697 17.6307V18.8307C7.27697 18.9692 7.25389 19.0846 7.18466 19.2C7.11543 19.3154 7.0462 19.3846 6.93081 19.4307C6.81543 19.4769 6.67697 19.523 6.5385 19.523C6.30774 19.523 6.12312 19.4538 6.00774 19.3384C5.86927 19.223 5.82312 19.0384 5.82312 18.8307V17.6307H6.10004V18.8077C6.10004 18.9692 6.1462 19.0846 6.21543 19.1538C6.28466 19.223 6.40004 19.2692 6.5385 19.2692C6.81543 19.2692 6.97697 19.1077 6.97697 18.8077V17.6307H7.27697Z" fill="#ECF1F1"/>
<path d="M8.52316 19.5H8.22316V17.9077H7.66931V17.6538H9.05393V17.9077H8.50008V19.5H8.52316Z" fill="#ECF1F1"/>
<path d="M10.8769 19.5H10.1384V19.3154L10.3692 19.2461V17.8846L10.1384 17.8154V17.6307H10.8769V17.8154L10.6461 17.8846V19.2461L10.8769 19.3154V19.5Z" fill="#ECF1F1"/>
<path d="M12.0999 19.5H11.7999V18.3C11.7999 18.1615 11.7999 18.0461 11.7999 17.9538C11.7768 17.9769 11.7538 18 11.7307 18.023C11.7076 18.0461 11.6153 18.1154 11.4538 18.2538L11.3153 18.0692L11.8692 17.6307H12.0999V19.5Z" fill="#ECF1F1"/>
<path d="M12.8846 19.3385C12.8846 19.2693 12.9077 19.2231 12.9308 19.2C12.9539 19.1769 13 19.1539 13.0693 19.1539C13.1385 19.1539 13.1846 19.1769 13.2077 19.2C13.2308 19.2231 13.2539 19.2923 13.2539 19.3385C13.2539 19.4077 13.2308 19.4539 13.2077 19.4769C13.1846 19.5231 13.1385 19.5231 13.0693 19.5231C13 19.5231 12.9539 19.5 12.9308 19.4769C12.9077 19.4308 12.8846 19.3846 12.8846 19.3385ZM13.6 19.3385C13.6 19.2693 13.6231 19.2231 13.6462 19.2C13.6693 19.1769 13.7154 19.1539 13.7846 19.1539C13.8539 19.1539 13.9 19.1769 13.9231 19.2C13.9462 19.2231 13.9693 19.2923 13.9693 19.3385C13.9693 19.4077 13.9462 19.4539 13.9231 19.4769C13.9 19.5231 13.8539 19.5231 13.7846 19.5231C13.7154 19.5231 13.6693 19.5 13.6462 19.4769C13.6 19.4308 13.6 19.3846 13.6 19.3385ZM14.2923 19.3385C14.2923 19.2693 14.3154 19.2231 14.3385 19.2C14.3616 19.1769 14.4077 19.1539 14.477 19.1539C14.5462 19.1539 14.5923 19.1769 14.6154 19.2C14.6385 19.2231 14.6616 19.2923 14.6616 19.3385C14.6616 19.4077 14.6385 19.4539 14.6154 19.4769C14.5923 19.5231 14.5462 19.5231 14.477 19.5231C14.4077 19.5231 14.3616 19.5 14.3385 19.4769C14.3154 19.4308 14.2923 19.3846 14.2923 19.3385Z" fill="#ECF1F1"/>
<path d="M15.8154 19.5H15.0769V19.3154L15.3077 19.2461V17.8846L15.0769 17.8154V17.6307H15.8154V17.8154L15.5846 17.8846V19.2461L15.8154 19.3154V19.5Z" fill="#ECF1F1"/>
<path d="M16.7846 17.6077C16.9692 17.6077 17.1077 17.6538 17.2 17.7231C17.2923 17.7923 17.3615 17.9077 17.3615 18.0461C17.3615 18.2307 17.2461 18.3923 17.0153 18.5077C17.1538 18.5769 17.2692 18.6461 17.3153 18.7384C17.3846 18.8077 17.4077 18.9 17.4077 19.0154C17.4077 19.1769 17.3615 19.2923 17.2461 19.3846C17.1307 19.4769 16.9923 19.523 16.7846 19.523C16.5769 19.523 16.4384 19.4769 16.323 19.3846C16.2077 19.2923 16.1615 19.1769 16.1615 19.0154C16.1615 18.9231 16.1846 18.8077 16.2538 18.7384C16.323 18.6461 16.4153 18.5769 16.5307 18.5077C16.4153 18.4384 16.3461 18.3692 16.2769 18.3C16.2077 18.2307 16.2077 18.1384 16.2077 18.0461C16.2077 17.9077 16.2538 17.8154 16.3692 17.7231C16.4846 17.6307 16.623 17.6077 16.7846 17.6077ZM16.4384 19.0154C16.4384 19.1077 16.4615 19.1769 16.5307 19.2231C16.6 19.2692 16.6692 19.2923 16.7846 19.2923C16.9 19.2923 16.9692 19.2692 17.0384 19.2231C17.1077 19.1769 17.1307 19.1077 17.1307 19.0154C17.1307 18.9461 17.1077 18.8769 17.0384 18.8307C16.9923 18.7846 16.9 18.7154 16.7846 18.6692L16.7384 18.6461C16.623 18.6923 16.5538 18.7384 16.5077 18.8077C16.4615 18.8538 16.4384 18.9231 16.4384 19.0154ZM16.7846 17.8384C16.6923 17.8384 16.623 17.8615 16.5769 17.9077C16.5307 17.9538 16.5077 18 16.5077 18.0692C16.5077 18.1154 16.5077 18.1615 16.5307 18.1846C16.5538 18.2307 16.5769 18.2538 16.623 18.2769C16.6692 18.3 16.7153 18.3461 16.8077 18.3692C16.9 18.323 16.9923 18.2769 17.0153 18.2307C17.0615 18.1846 17.0846 18.1154 17.0846 18.0461C17.0846 17.9769 17.0615 17.9077 17.0153 17.8846C16.9692 17.8615 16.8769 17.8384 16.7846 17.8384Z" fill="#ECF1F1"/>
<path d="M18.5616 18.7846C18.5616 18.5538 18.5847 18.3461 18.654 18.1615C18.7232 17.9769 18.8155 17.7923 18.9309 17.6538H19.1847C19.0693 17.8154 18.977 18 18.9078 18.1846C18.8386 18.3923 18.8155 18.5769 18.8155 18.7846C18.8155 18.9923 18.8386 19.2 18.9078 19.3846C18.977 19.5692 19.0693 19.7538 19.1847 19.9154H18.9309C18.8155 19.7769 18.7001 19.5923 18.654 19.4077C18.6078 19.2 18.5616 18.9923 18.5616 18.7846Z" fill="#ECF1F1"/>
<path d="M21.1693 18.5538C21.1693 18.8538 21.077 19.0846 20.9155 19.2461C20.7539 19.4077 20.5001 19.5 20.177 19.5H19.6693V17.6538H20.2462C20.5462 17.6538 20.777 17.7231 20.9385 17.8846C21.1001 18.0231 21.1693 18.2538 21.1693 18.5538ZM20.8462 18.5538C20.8462 18.1154 20.6385 17.8846 20.2232 17.8846H19.9693V19.2231H20.177C20.6385 19.2231 20.8462 19.0154 20.8462 18.5538Z" fill="#ECF1F1"/>
<path d="M22.4615 18.4846H23.1538V19.4077C23.0384 19.4539 22.9461 19.4769 22.8307 19.4769C22.7384 19.5 22.623 19.5 22.5077 19.5C22.2307 19.5 22 19.4077 21.8615 19.2462C21.723 19.0846 21.6307 18.8539 21.6307 18.5308C21.6307 18.2308 21.723 18 21.8846 17.8385C22.0461 17.6769 22.3 17.5846 22.6 17.5846C22.7846 17.5846 22.9692 17.6308 23.1538 17.7L23.0384 17.9539C22.8769 17.8846 22.7384 17.8385 22.5769 17.8385C22.3692 17.8385 22.2307 17.9077 22.1154 18.0231C22 18.1385 21.9538 18.3231 21.9538 18.5308C21.9538 18.7615 22 18.9231 22.1154 19.0385C22.2307 19.1539 22.3692 19.2231 22.5538 19.2231C22.6461 19.2231 22.7615 19.2 22.8769 19.1769V18.6923H22.4846V18.4846H22.4615Z" fill="#ECF1F1"/>
<path d="M24.3538 19.5H24.0538V17.9077H23.5V17.6538H24.8846V17.9077H24.3308V19.5H24.3538Z" fill="#ECF1F1"/>
<path d="M26.0616 17.6307L25.3693 19.4769H25.0924L25.7847 17.6307H26.0616Z" fill="#ECF1F1"/>
<path d="M27.5847 18.5539C27.5847 18.8769 27.5385 19.1077 27.4231 19.2692C27.3308 19.4308 27.1693 19.5 26.9385 19.5C26.7308 19.5 26.5693 19.4077 26.477 19.2462C26.3616 19.0846 26.3154 18.8539 26.3154 18.5308C26.3154 18.2077 26.3616 17.9539 26.477 17.8154C26.5693 17.6539 26.7308 17.5846 26.9616 17.5846C27.1693 17.5846 27.3308 17.6769 27.4231 17.8385C27.5385 18 27.5847 18.2539 27.5847 18.5539ZM26.6385 18.5539C26.6385 18.8077 26.6616 18.9923 26.7077 19.0846C26.7539 19.2 26.8462 19.2462 26.9616 19.2462C27.077 19.2462 27.1693 19.2 27.2154 19.0846C27.2616 18.9692 27.2847 18.7846 27.2847 18.5539C27.2847 18.3 27.2616 18.1154 27.2154 18.0231C27.1693 17.9077 27.077 17.8615 26.9616 17.8615C26.8462 17.8615 26.7539 17.9077 26.7077 18.0231C26.6616 18.1385 26.6385 18.3 26.6385 18.5539Z" fill="#ECF1F1"/>
<path d="M28 19.3385C28 19.2693 28.0231 19.2231 28.0462 19.2C28.0692 19.1769 28.1154 19.1539 28.1846 19.1539C28.2538 19.1539 28.3 19.1769 28.3231 19.2C28.3462 19.2231 28.3692 19.2923 28.3692 19.3385C28.3692 19.4077 28.3462 19.4539 28.3231 19.4769C28.3 19.5231 28.2538 19.5231 28.1846 19.5231C28.1154 19.5231 28.0692 19.5 28.0462 19.4769C28.0231 19.4308 28 19.3846 28 19.3385ZM28.7154 19.3385C28.7154 19.2693 28.7385 19.2231 28.7615 19.2C28.7846 19.1769 28.8308 19.1539 28.9 19.1539C28.9692 19.1539 29.0154 19.1769 29.0385 19.2C29.0615 19.2231 29.0846 19.2923 29.0846 19.3385C29.0846 19.4077 29.0615 19.4539 29.0385 19.4769C29.0154 19.5231 28.9692 19.5231 28.9 19.5231C28.8308 19.5231 28.7846 19.5 28.7615 19.4769C28.7154 19.4308 28.7154 19.3846 28.7154 19.3385ZM29.4077 19.3385C29.4077 19.2693 29.4308 19.2231 29.4538 19.2C29.4769 19.1769 29.5231 19.1539 29.5923 19.1539C29.6615 19.1539 29.7077 19.1769 29.7308 19.2C29.7538 19.2231 29.7769 19.2923 29.7769 19.3385C29.7769 19.4077 29.7538 19.4539 29.7308 19.4769C29.7077 19.5231 29.6615 19.5231 29.5923 19.5231C29.5231 19.5231 29.4769 19.5 29.4538 19.4769C29.4308 19.4308 29.4077 19.3846 29.4077 19.3385Z" fill="#ECF1F1"/>
<path d="M31.0922 19.5H30.7922V18.3C30.7922 18.1615 30.7922 18.0461 30.7922 17.9538C30.7692 17.9769 30.7461 18 30.723 18.023C30.6999 18.0461 30.6076 18.1154 30.4461 18.2538L30.3076 18.0692L30.8615 17.6307H31.1153V19.5H31.0922Z" fill="#ECF1F1"/>
<path d="M33.0768 18.5539C33.0768 18.8769 33.0307 19.1077 32.9153 19.2692C32.823 19.4308 32.6615 19.5 32.4307 19.5C32.223 19.5 32.0615 19.4077 31.9692 19.2462C31.8538 19.0846 31.8076 18.8539 31.8076 18.5308C31.8076 18.2077 31.8538 17.9539 31.9692 17.8154C32.0615 17.6539 32.223 17.5846 32.4538 17.5846C32.6615 17.5846 32.823 17.6769 32.9153 17.8385C33.0307 18 33.0768 18.2539 33.0768 18.5539ZM32.1307 18.5539C32.1307 18.8077 32.1538 18.9923 32.1999 19.0846C32.2461 19.2 32.3384 19.2462 32.4538 19.2462C32.5692 19.2462 32.6615 19.2 32.7076 19.0846C32.7538 18.9692 32.7769 18.7846 32.7769 18.5539C32.7769 18.3 32.7538 18.1154 32.7076 18.0231C32.6615 17.9077 32.5692 17.8615 32.4538 17.8615C32.3384 17.8615 32.2461 17.9077 32.1999 18.0231C32.1538 18.1385 32.1307 18.3 32.1307 18.5539Z" fill="#ECF1F1"/>
<path d="M34.623 17.6307H34.9461L34.2999 19.4769H33.9768L33.3307 17.6307H33.6538L34.0461 18.7846C34.0692 18.8307 34.0922 18.9 34.1153 18.9923C34.1384 19.0846 34.1615 19.1538 34.1615 19.1769C34.1615 19.1077 34.1845 19.0384 34.2076 18.9461C34.2307 18.8538 34.2538 18.8077 34.2538 18.7615C34.2307 18.7846 34.623 17.6307 34.623 17.6307Z" fill="#ECF1F1"/>
<path d="M35.8001 18.7846C35.8001 19.0154 35.777 19.2231 35.7078 19.4077C35.6385 19.5923 35.5462 19.7769 35.4308 19.9154H35.177C35.2924 19.7538 35.3847 19.5923 35.4539 19.3846C35.5232 19.2 35.5462 18.9923 35.5462 18.7846C35.5462 18.5769 35.5232 18.3692 35.4539 18.1846C35.3847 17.9769 35.2924 17.8154 35.177 17.6538H35.4308C35.5462 17.7923 35.6616 17.9769 35.7078 18.1615C35.7539 18.3461 35.8001 18.5538 35.8001 18.7846Z" fill="#ECF1F1"/>
<path d="M4.39227 39.8308V40.6616H4.1615V38.677H4.71535C4.96919 38.677 5.13073 38.7231 5.24611 38.8154C5.3615 38.9078 5.43073 39.0462 5.43073 39.2308C5.43073 39.4847 5.29227 39.6693 5.03842 39.7616L5.56919 40.6616H5.29227L4.80765 39.8308H4.39227ZM4.39227 39.6231H4.71535C4.87688 39.6231 4.99227 39.6001 5.08458 39.5308C5.15381 39.4616 5.19996 39.3693 5.19996 39.2308C5.19996 39.0924 5.15381 39.0001 5.08458 38.9539C5.01535 38.8847 4.87688 38.8616 4.71535 38.8616H4.41535C4.39227 38.8616 4.39227 39.6231 4.39227 39.6231Z" fill="#ECF1F1"/>
<path d="M6.9999 40.6615H5.89221V38.6769H6.9999V38.8846H6.12298V39.5307H6.95375V39.7384H6.12298V40.4769H6.9999V40.6615Z" fill="#ECF1F1"/>
<path d="M8.56915 40.1307C8.56915 40.3153 8.49992 40.4307 8.38454 40.5461C8.26915 40.6384 8.08454 40.6846 7.87684 40.6846C7.64608 40.6846 7.46146 40.6615 7.323 40.5923V40.3615C7.41531 40.3846 7.48454 40.4307 7.59992 40.4538C7.69223 40.4769 7.78454 40.4769 7.87684 40.4769C8.03838 40.4769 8.15377 40.4538 8.223 40.3846C8.29223 40.3153 8.33838 40.2461 8.33838 40.1307C8.33838 40.0615 8.31531 40.0153 8.29223 39.9692C8.26915 39.923 8.223 39.8769 8.15377 39.8538C8.08454 39.8077 7.99223 39.7846 7.85377 39.7384C7.66915 39.6692 7.53069 39.6 7.46146 39.5077C7.39223 39.4153 7.34608 39.3 7.34608 39.1615C7.34608 39 7.39223 38.8846 7.50761 38.7923C7.623 38.7 7.78454 38.6538 7.96915 38.6538C8.17684 38.6538 8.33838 38.7 8.523 38.7692L8.45377 38.9769C8.29223 38.9077 8.13069 38.8846 7.96915 38.8846C7.85377 38.8846 7.76146 38.9077 7.69223 38.9538C7.623 39 7.59992 39.0692 7.59992 39.1615C7.59992 39.2307 7.623 39.2769 7.64608 39.323C7.66915 39.3692 7.71531 39.4153 7.78454 39.4384C7.85377 39.4846 7.94608 39.5077 8.06146 39.5538C8.26915 39.623 8.40761 39.7153 8.49992 39.7846C8.523 39.8769 8.56915 39.9923 8.56915 40.1307Z" fill="#ECF1F1"/>
<path d="M10.0692 40.6615H8.96155V38.6769H10.0692V38.8846H9.19232V39.5307H10.0231V39.7384H9.19232V40.4769H10.0692V40.6615Z" fill="#ECF1F1"/>
<path d="M11.1308 40.6615H10.9001V38.8846H10.2539V38.6769H11.7539V38.8846H11.1308V40.6615Z" fill="#ECF1F1"/>
<path d="M11.5462 54.4846C11.5462 54.6692 11.477 54.7846 11.3616 54.9C11.2462 54.9923 11.0616 55.0384 10.8539 55.0384C10.6231 55.0384 10.4385 55.0154 10.3 54.9461V54.7154C10.3924 54.7384 10.4616 54.7846 10.577 54.8077C10.6693 54.8307 10.7616 54.8307 10.8539 54.8307C11.0154 54.8307 11.1308 54.8077 11.2 54.7384C11.2693 54.6692 11.3154 54.6 11.3154 54.4846C11.3154 54.4154 11.2924 54.3692 11.2693 54.323C11.2462 54.2769 11.2 54.2307 11.1308 54.2077C11.0616 54.1615 10.9693 54.1384 10.8308 54.0923C10.6462 54.023 10.5077 53.9538 10.4385 53.8615C10.3693 53.7692 10.3231 53.6538 10.3231 53.5154C10.3231 53.3538 10.3693 53.2384 10.4847 53.1461C10.6 53.0538 10.7616 53.0077 10.9462 53.0077C11.1539 53.0077 11.3154 53.0538 11.5 53.123L11.4308 53.3307C11.2693 53.2615 11.1077 53.2384 10.9462 53.2384C10.8308 53.2384 10.7385 53.2615 10.6693 53.3077C10.6 53.3538 10.577 53.423 10.577 53.5154C10.577 53.5846 10.6 53.6307 10.6231 53.6769C10.6462 53.723 10.6924 53.7692 10.7616 53.7923C10.8308 53.8384 10.9231 53.8615 11.0385 53.9077C11.2462 53.9769 11.3847 54.0692 11.477 54.1384C11.5 54.2307 11.5462 54.3461 11.5462 54.4846Z" fill="#ECF1F1"/>
<path d="M12.5615 55.0154H12.3307V53.2384H11.7076V53.0307H13.2076V53.2384H12.5615V55.0154Z" fill="#ECF1F1"/>
<path d="M14.7307 55.0154L14.4769 54.3923H13.6692L13.4153 55.0154H13.1846L13.9692 53.0307H14.1538L14.9384 55.0154H14.7307ZM14.4307 54.1615L14.2 53.5384C14.1769 53.4692 14.1307 53.3538 14.1076 53.2615C14.0846 53.3538 14.0615 53.4461 14.0153 53.5384L13.7846 54.1615H14.4307Z" fill="#ECF1F1"/>
<path d="M15.8617 55.0154H15.6309V53.2384H15.0078V53.0307H16.4847V53.2384H15.8617V55.0154Z" fill="#ECF1F1"/>
<path d="M18.2846 53.0307V54.3231C18.2846 54.5538 18.2153 54.7384 18.0769 54.8538C17.9384 54.9923 17.7538 55.0384 17.523 55.0384C17.2922 55.0384 17.1076 54.9692 16.9692 54.8538C16.8307 54.7384 16.7615 54.5538 16.7615 54.3231V53.0538H16.9922V54.3461C16.9922 54.5077 17.0384 54.6461 17.1307 54.7384C17.223 54.8307 17.3615 54.8769 17.523 54.8769C17.6846 54.8769 17.823 54.8307 17.9153 54.7384C18.0076 54.6461 18.0538 54.5307 18.0538 54.3461V53.0538H18.2846V53.0307Z" fill="#ECF1F1"/>
<path d="M19.9462 54.4846C19.9462 54.6692 19.877 54.7846 19.7616 54.9C19.6462 54.9923 19.4616 55.0384 19.2539 55.0384C19.0232 55.0384 18.8385 55.0153 18.7001 54.9461V54.7153C18.7924 54.7384 18.8616 54.7846 18.977 54.8076C19.0693 54.8307 19.1616 54.8307 19.2539 54.8307C19.4155 54.8307 19.5308 54.8076 19.6001 54.7384C19.6693 54.6692 19.7155 54.6 19.7155 54.4846C19.7155 54.4153 19.6924 54.3692 19.6693 54.323C19.6462 54.2769 19.6001 54.2307 19.5308 54.2076C19.4616 54.1615 19.3693 54.1384 19.2308 54.0923C19.0462 54.023 18.9078 53.9538 18.8385 53.8615C18.7693 53.7692 18.7231 53.6538 18.7231 53.5153C18.7231 53.3538 18.7693 53.2384 18.8847 53.1461C19.0001 53.0538 19.1616 53.0076 19.3462 53.0076C19.5539 53.0076 19.7155 53.0538 19.9001 53.123L19.8308 53.3307C19.6693 53.2615 19.5078 53.2384 19.3462 53.2384C19.2308 53.2384 19.1385 53.2615 19.0693 53.3076C19.0001 53.3538 18.977 53.423 18.977 53.5153C18.977 53.5846 19.0001 53.6307 19.0232 53.6769C19.0462 53.723 19.0924 53.7692 19.1616 53.7923C19.2308 53.8384 19.3232 53.8615 19.4385 53.9076C19.6462 53.9769 19.7847 54.0692 19.877 54.1384C19.9001 54.2307 19.9462 54.3461 19.9462 54.4846Z" fill="#ECF1F1"/>
<path d="M5.777 70.4077V73.5231C5.777 74.0769 5.61546 74.5154 5.29239 74.8154C4.96931 75.1385 4.53085 75.2769 3.95393 75.2769C3.40008 75.2769 2.96162 75.1154 2.63854 74.8154C2.31546 74.4923 2.177 74.0769 2.177 73.5V70.3846H2.52316V73.5C2.52316 73.9615 2.66162 74.3308 2.91546 74.5846C3.16931 74.8385 3.53854 74.9769 4.00008 74.9769C4.46162 74.9769 4.80777 74.8615 5.06162 74.6077C5.31546 74.3538 5.43085 74.0077 5.43085 73.5462V70.3846H5.777V70.4077Z" fill="#ECF1F1"/>
<path d="M9.40014 73.9846C9.40014 74.3769 9.26168 74.7 8.96168 74.9308C8.66168 75.1615 8.26937 75.2769 7.78476 75.2769C7.18476 75.2769 6.74629 75.2077 6.42322 75.0923V74.7692C6.76937 74.9077 7.20783 75 7.76168 75C8.15399 75 8.47706 74.9077 8.70783 74.7231C8.9386 74.5385 9.05399 74.3077 9.05399 74.0077C9.05399 73.8231 9.00783 73.6846 8.9386 73.5462C8.86937 73.4308 8.73091 73.3154 8.56937 73.2231C8.38476 73.1308 8.13091 73.0154 7.80783 72.9C7.32322 72.7385 6.97706 72.5538 6.79245 72.3462C6.60783 72.1385 6.51553 71.8846 6.51553 71.5615C6.51553 71.1923 6.65399 70.9154 6.93091 70.6846C7.20783 70.4538 7.57706 70.3385 8.01553 70.3385C8.47706 70.3385 8.89245 70.4308 9.28476 70.5923L9.16937 70.8923C8.77706 70.7308 8.38476 70.6385 8.01553 70.6385C7.66937 70.6385 7.36937 70.7308 7.16168 70.8923C6.95399 71.0538 6.8386 71.2846 6.8386 71.5615C6.8386 71.7462 6.86168 71.8846 6.93091 72C7.00014 72.1154 7.09245 72.2077 7.25399 72.3C7.41553 72.3923 7.64629 72.5077 8.01553 72.6231C8.38476 72.7615 8.68476 72.8769 8.86937 72.9923C9.05399 73.1077 9.19245 73.2462 9.28476 73.4077C9.35399 73.5923 9.40014 73.7769 9.40014 73.9846Z" fill="#ECF1F1"/>
<path d="M10.0925 70.4077H11.4079C12.0079 70.4077 12.4464 70.5 12.7233 70.7077C13.0002 70.9154 13.1387 71.2154 13.1387 71.6307C13.1387 71.9077 13.0464 72.1384 12.8848 72.3231C12.7233 72.5077 12.4695 72.6231 12.1464 72.6692V72.6923C12.5387 72.7384 12.8156 72.8769 13.0002 73.0615C13.1848 73.2461 13.2771 73.5 13.2771 73.8461C13.2771 74.2846 13.1387 74.6307 12.8387 74.8615C12.5387 75.0923 12.1233 75.2307 11.5925 75.2307H10.1156C10.0925 75.2307 10.0925 70.4077 10.0925 70.4077ZM10.4156 72.5538H11.4771C11.9387 72.5538 12.2618 72.4846 12.4695 72.3231C12.6771 72.1615 12.7695 71.9307 12.7695 71.6077C12.7695 71.2846 12.6541 71.0538 12.4233 70.9154C12.1925 70.7769 11.8464 70.7077 11.3848 70.7077H10.4156V72.5538ZM10.4156 72.8538V74.9307H11.5464C12.4464 74.9307 12.8848 74.5615 12.8848 73.8461C12.8848 73.1769 12.4233 72.8538 11.4771 72.8538H10.4156Z" fill="#ECF1F1"/>
<path d="M59.2 75.2307H56.5692V70.4077H59.2V70.7077H56.8923V72.5307H59.0615V72.8307H56.8923V74.9077H59.2V75.2307Z" fill="#ECF1F1"/>
<path d="M61.5537 75.2307H61.2075V70.7307H59.6383V70.4077H63.0998V70.7307H61.5306V75.2307H61.5537Z" fill="#ECF1F1"/>
<path d="M67.3231 75.2307H66.977V72.8538H64.1616V75.2307H63.8154V70.4077H64.1616V72.5538H66.977V70.4077H67.3231V75.2307Z" fill="#ECF1F1"/>
<path d="M7.99237 57.9231H7.7616V56.5154C7.7616 56.4 7.7616 56.2846 7.7616 56.1923C7.73852 56.2154 7.71545 56.2385 7.69237 56.2615C7.66929 56.2846 7.55391 56.3769 7.36929 56.5154L7.25391 56.3538L7.78468 55.9385H7.96929C7.99237 55.9385 7.99237 57.9231 7.99237 57.9231Z" fill="#ECF1F1"/>
<path d="M13.3232 57.9231H12.0078V57.7385L12.5386 57.2077C12.7001 57.0461 12.7924 56.9308 12.8617 56.8615C12.9078 56.7923 12.954 56.7231 12.977 56.6538C13.0001 56.5846 13.0232 56.5154 13.0232 56.4462C13.0232 56.3308 13.0001 56.2615 12.9309 56.1923C12.8617 56.1231 12.7694 56.1 12.654 56.1C12.5617 56.1 12.4924 56.1231 12.4232 56.1462C12.354 56.1692 12.2617 56.2154 12.1694 56.2846L12.054 56.1231C12.2386 55.9615 12.4463 55.8923 12.654 55.8923C12.8386 55.8923 12.977 55.9385 13.0924 56.0308C13.2078 56.1231 13.254 56.2615 13.254 56.4231C13.254 56.5385 13.2078 56.6769 13.1386 56.7923C13.0694 56.9077 12.9309 57.0692 12.7463 57.2538L12.3078 57.6692H13.3232V57.9231Z" fill="#ECF1F1"/>
<path d="M18.1231 56.4C18.1231 56.5154 18.077 56.6308 18.0077 56.7C17.9385 56.7692 17.8462 56.8384 17.7077 56.8615C17.8693 56.8846 17.9847 56.9308 18.0539 57.0231C18.1231 57.1154 18.1693 57.2077 18.1693 57.3461C18.1693 57.5308 18.1 57.6923 17.9616 57.7846C17.8231 57.8769 17.6385 57.9461 17.4077 57.9461C17.2923 57.9461 17.2 57.9461 17.1077 57.9231C17.0154 57.9 16.9462 57.8769 16.8539 57.8308V57.6231C16.9462 57.6692 17.0385 57.6923 17.1308 57.7154C17.2231 57.7385 17.3154 57.7385 17.4077 57.7385C17.7539 57.7385 17.9154 57.6 17.9154 57.3461C17.9154 57.1154 17.7308 56.9769 17.3385 56.9769H17.1539V56.7923H17.3616C17.5231 56.7923 17.6385 56.7692 17.7308 56.7C17.8231 56.6308 17.8693 56.5385 17.8693 56.4231C17.8693 56.3308 17.8462 56.2385 17.777 56.1923C17.7077 56.1461 17.6154 56.1 17.5 56.1C17.4077 56.1 17.3385 56.1231 17.2462 56.1461C17.177 56.1692 17.0847 56.2154 16.9923 56.2846L16.877 56.1231C16.9693 56.0538 17.0616 56.0077 17.1539 55.9615C17.2693 55.9154 17.3616 55.9154 17.5 55.9154C17.6847 55.9154 17.8462 55.9615 17.9385 56.0538C18.0308 56.1461 18.1231 56.2384 18.1231 56.4Z" fill="#ECF1F1"/>
<path d="M23.177 57.4615H22.877V57.9231H22.6693V57.4615H21.7001V57.2538L22.6462 55.9154H22.877V57.2538H23.177V57.4615ZM22.6693 57.2538V56.5846C22.6693 56.4461 22.6693 56.3077 22.6924 56.1461C22.6462 56.2385 22.6001 56.3077 22.577 56.3538L21.9539 57.2308H22.6693V57.2538Z" fill="#ECF1F1"/>
<path d="M50.5692 57.9231V55.9385H50.8V57.7154H51.6769V57.9231H50.5692Z" fill="#ECF1F1"/>
<path d="M53.2461 57.9231L52.9923 57.3H52.1846L51.9307 57.9231H51.7L52.4846 55.9385H52.6692L53.4538 57.9231H53.2461ZM52.9461 57.0692L52.7153 56.4462C52.6923 56.3769 52.6461 56.2615 52.623 56.1692C52.6 56.2615 52.5769 56.3538 52.5307 56.4462L52.2999 57.0692H52.9461Z" fill="#ECF1F1"/>
<path d="M55.3229 57.9231H55.069L53.9844 56.2615C54.0075 56.4462 54.0075 56.6308 54.0075 56.7923V57.9231H53.7998V55.9385H54.0537L55.1383 57.6C55.1383 57.5769 55.1383 57.5077 55.1152 57.3692C55.0921 57.2308 55.1152 57.1385 55.1152 57.0923V55.9615H55.3229V57.9231Z" fill="#ECF1F1"/>
<path d="M20.8001 38.677V39.9693C20.8001 40.2001 20.7308 40.3847 20.5924 40.5001C20.4539 40.6385 20.2693 40.6847 20.0385 40.6847C19.8077 40.6847 19.6231 40.6154 19.4847 40.5001C19.3462 40.3847 19.277 40.2001 19.277 39.9693V38.7001H19.5077V39.9924C19.5077 40.1539 19.5539 40.2924 19.6462 40.3847C19.7385 40.477 19.877 40.5231 20.0385 40.5231C20.2001 40.5231 20.3385 40.477 20.4308 40.3847C20.5231 40.2924 20.5693 40.177 20.5693 39.9924V38.7001H20.8001V38.677Z" fill="#ECF1F1"/>
<path d="M22.4385 40.1307C22.4385 40.3153 22.3693 40.4307 22.2539 40.5461C22.1385 40.6384 21.9539 40.6846 21.7462 40.6846C21.5155 40.6846 21.3308 40.6615 21.1924 40.5923V40.3615C21.2847 40.3846 21.3539 40.4307 21.4693 40.4538C21.5616 40.4769 21.6539 40.4769 21.7462 40.4769C21.9078 40.4769 22.0232 40.4538 22.0924 40.3846C22.1616 40.3153 22.2078 40.2461 22.2078 40.1307C22.2078 40.0615 22.1847 40.0153 22.1616 39.9692C22.1385 39.923 22.0924 39.8769 22.0232 39.8538C21.9539 39.8077 21.8616 39.7846 21.7232 39.7384C21.5385 39.6692 21.4001 39.6 21.3308 39.5077C21.2616 39.4153 21.2155 39.3 21.2155 39.1615C21.2155 39 21.2616 38.8846 21.377 38.7923C21.4924 38.7 21.6539 38.6538 21.8385 38.6538C22.0462 38.6538 22.2078 38.7 22.3924 38.7692L22.3232 38.9769C22.1616 38.9077 22.0001 38.8846 21.8385 38.8846C21.7232 38.8846 21.6308 38.9077 21.5616 38.9538C21.4924 39 21.4693 39.0692 21.4693 39.1615C21.4693 39.2307 21.4924 39.2769 21.5155 39.323C21.5385 39.3692 21.5847 39.4153 21.6539 39.4384C21.7232 39.4846 21.8155 39.5077 21.9308 39.5538C22.1385 39.623 22.277 39.7153 22.3693 39.7846C22.3924 39.8769 22.4385 39.9923 22.4385 40.1307Z" fill="#ECF1F1"/>
<path d="M23.9616 40.6615H22.8539V38.6769H23.9616V38.8846H23.0847V39.5307H23.9154V39.7384H23.0847V40.4769H23.9616V40.6615Z" fill="#ECF1F1"/>
<path d="M24.6307 39.8307V40.6615H24.3999V38.6769H24.9537C25.2076 38.6769 25.3691 38.723 25.4845 38.8154C25.5999 38.9077 25.6691 39.0461 25.6691 39.2307C25.6691 39.4846 25.5307 39.6692 25.2768 39.7615L25.8076 40.6615H25.5307L25.0461 39.8307H24.6307ZM24.6307 39.623H24.9537C25.1153 39.623 25.2307 39.6 25.323 39.5307C25.3922 39.4615 25.4384 39.3692 25.4384 39.2307C25.4384 39.0923 25.3922 39 25.323 38.9538C25.2537 38.8846 25.1153 38.8615 24.9537 38.8615H24.6537V39.623H24.6307Z" fill="#ECF1F1"/>
<path d="M47.2462 3.27685H46.3693V3.11532L46.6693 3.04608V1.01532L46.3693 0.946084V0.784546H47.2462V0.946084L46.9462 1.01532V3.04608L47.2462 3.11532V3.27685Z" fill="#ECF1F1"/>
<path d="M49.3001 2.72298H48.9309V3.2999H48.654V2.72298H47.4309V2.46913L48.6078 0.784515H48.9078V2.46913H49.2771V2.72298H49.3001ZM48.6771 2.44605V1.61528C48.6771 1.45375 48.6771 1.26913 48.7001 1.06144H48.6771C48.6309 1.17682 48.5617 1.26913 48.5155 1.33836L47.7309 2.44605H48.6771Z" fill="#ECF1F1"/>
<path d="M52.6462 3.27685H51.7693V3.11532L52.0693 3.04608V1.01532L51.7693 0.946084V0.784546H52.6462V0.946084L52.3462 1.01532V3.04608L52.6462 3.11532V3.27685Z" fill="#ECF1F1"/>
<path d="M53.7309 1.75385C53.9847 1.75385 54.1924 1.82308 54.354 1.93846C54.5155 2.05385 54.5847 2.23846 54.5847 2.46923C54.5847 2.72308 54.4924 2.93077 54.3309 3.06923C54.1693 3.2077 53.9386 3.3 53.6617 3.3C53.3847 3.3 53.177 3.25385 53.0155 3.16154V2.88462C53.0847 2.93077 53.2001 2.97693 53.3155 3C53.4309 3.02308 53.5463 3.04616 53.6617 3.04616C53.8693 3.04616 54.0078 3 54.1232 2.9077C54.2386 2.81539 54.2847 2.67693 54.2847 2.49231C54.2847 2.14616 54.077 1.96154 53.6386 1.96154C53.5232 1.96154 53.3847 1.98462 53.2001 2.0077L53.0617 1.91539L53.154 0.738464H54.4001V0.992311H53.4078L53.3386 1.73077C53.477 1.77693 53.5924 1.75385 53.7309 1.75385Z" fill="#ECF1F1"/>
<path d="M58.0461 3.27685H57.1692V3.11532L57.4692 3.04608V1.01532L57.1692 0.946084V0.784546H58.0461V0.946084L57.7461 1.01532V3.04608L58.0461 3.11532V3.27685Z" fill="#ECF1F1"/>
<path d="M58.3923 2.21539C58.3923 1.73077 58.4846 1.36154 58.6693 1.1077C58.8539 0.853849 59.1308 0.738464 59.5231 0.738464C59.6616 0.738464 59.7539 0.738464 59.8231 0.761541V1.01539C59.7308 0.992311 59.6385 0.969234 59.5231 0.969234C59.2462 0.969234 59.0616 1.06154 58.9 1.22308C58.7616 1.38462 58.6923 1.66154 58.6693 2.0077H58.6923C58.8077 1.82308 59.0154 1.7077 59.2923 1.7077C59.5231 1.7077 59.6846 1.77693 59.8231 1.91539C59.9616 2.05385 60.0077 2.23846 60.0077 2.46923C60.0077 2.72308 59.9385 2.93077 59.8 3.09231C59.6616 3.23077 59.477 3.32308 59.2231 3.32308C58.9693 3.32308 58.7616 3.23077 58.6 3.02308C58.4385 2.81539 58.3923 2.56154 58.3923 2.21539ZM59.2231 3.06923C59.3846 3.06923 59.5 3.02308 59.5923 2.9077C59.6846 2.81539 59.7308 2.65385 59.7308 2.46923C59.7308 2.3077 59.6846 2.16923 59.6154 2.07693C59.5231 1.98462 59.4077 1.93846 59.2462 1.93846C59.1539 1.93846 59.0385 1.96154 58.9693 2.0077C58.8769 2.05385 58.8077 2.1 58.7616 2.19231C58.7154 2.26154 58.6923 2.35385 58.6923 2.42308C58.6923 2.53846 58.7154 2.65385 58.7616 2.74616C58.8077 2.83846 58.8769 2.93077 58.9462 2.97693C59.0154 3.02308 59.1077 3.06923 59.2231 3.06923Z" fill="#ECF1F1"/>
<path d="M63.4461 3.27685H62.5692V3.11532L62.8692 3.04608V1.01532L62.5692 0.946084V0.784546H63.4461V0.946084L63.1461 1.01532V3.04608L63.4461 3.11532V3.27685Z" fill="#ECF1F1"/>
<path d="M64.0691 3.27682L65.1075 1.03836H63.746V0.784515H65.4075V1.01528L64.3921 3.27682H64.0691Z" fill="#ECF1F1"/>
<path d="M68.846 3.27679H67.9691V3.11525L68.2691 3.04602V1.01525L67.9691 0.946023V0.784485H68.846V0.946023L68.546 1.01525V3.04602L68.846 3.11525V3.27679Z" fill="#ECF1F1"/>
<path d="M69.9768 0.761536C70.2075 0.761536 70.3921 0.80769 70.5075 0.923074C70.646 1.03846 70.7152 1.17692 70.7152 1.36154C70.7152 1.47692 70.6691 1.59231 70.5998 1.70769C70.5306 1.8 70.3921 1.8923 70.2306 1.98461C70.4383 2.07692 70.5768 2.1923 70.6691 2.28461C70.7614 2.37692 70.8075 2.51538 70.8075 2.65384C70.8075 2.86154 70.7383 3.02307 70.5998 3.13846C70.4614 3.25384 70.2537 3.32307 69.9998 3.32307C69.7229 3.32307 69.5383 3.25384 69.3768 3.13846C69.2152 3.02307 69.1691 2.86154 69.1691 2.65384C69.1691 2.37692 69.3537 2.14615 69.6998 1.98461C69.5383 1.8923 69.4229 1.8 69.3537 1.70769C69.2845 1.61538 69.2614 1.5 69.2614 1.36154C69.2614 1.17692 69.3306 1.03846 69.4691 0.923074C69.5845 0.80769 69.7691 0.761536 69.9768 0.761536ZM69.446 2.65384C69.446 2.7923 69.4921 2.90769 69.5845 2.97692C69.6768 3.04615 69.8152 3.0923 69.9768 3.0923C70.1383 3.0923 70.2768 3.04615 70.3691 2.97692C70.4614 2.90769 70.5075 2.7923 70.5075 2.65384C70.5075 2.53846 70.4614 2.44615 70.3691 2.35384C70.2768 2.26154 70.1152 2.19231 69.9075 2.1C69.746 2.16923 69.6075 2.26154 69.5383 2.33077C69.4921 2.42307 69.446 2.53846 69.446 2.65384ZM69.9768 0.992305C69.8383 0.992305 69.7229 1.01538 69.6537 1.08461C69.5614 1.15384 69.5383 1.24615 69.5383 1.36154C69.5383 1.47692 69.5614 1.54615 69.6306 1.63846C69.6998 1.73077 69.8152 1.8 69.9998 1.86923C70.1614 1.8 70.2768 1.73077 70.346 1.63846C70.4152 1.56923 70.4383 1.47692 70.4383 1.36154C70.4383 1.24615 70.3921 1.15384 70.3229 1.08461C70.2306 1.01538 70.1383 0.992305 69.9768 0.992305Z" fill="#ECF1F1"/>
<path d="M42.5616 75.1615V71.7923" stroke="white" stroke-width="0.214592" stroke-miterlimit="3.864"/>
<path d="M31.4385 71.7923L28.9231 76.7307H33.9539L31.4385 71.7923Z" stroke="white" stroke-width="0.214592" stroke-linejoin="round"/>
<path d="M31.4384 75.3231V73.1769" stroke="white" stroke-width="0.214592" stroke-miterlimit="3.864" stroke-linecap="round"/>
<path d="M46.0231 14.123H46.6923V15.0922C46.5769 15.1153 46.4846 15.1614 46.3692 15.1614C46.2538 15.1614 46.1384 15.1845 46 15.1845C45.7 15.1845 45.4692 15.0922 45.3077 14.9076C45.1461 14.723 45.0538 14.4691 45.0538 14.1461C45.0538 13.9384 45.1 13.7538 45.1692 13.5922C45.2384 13.4307 45.3769 13.3153 45.5384 13.2461C45.7 13.1768 45.8846 13.1307 46.0923 13.1307C46.3 13.1307 46.5077 13.1768 46.6923 13.2461L46.6 13.4538C46.4154 13.3845 46.2538 13.3384 46.0923 13.3384C45.8615 13.3384 45.6538 13.4076 45.5154 13.5461C45.3769 13.6845 45.3077 13.8922 45.3077 14.1461C45.3077 14.423 45.3769 14.6076 45.5154 14.7461C45.6538 14.8845 45.8384 14.9538 46.0923 14.9538C46.2308 14.9538 46.3692 14.9307 46.4846 14.9076V14.2845H46.0231V14.123Z" fill="#ECF1F1"/>
<path d="M48.5617 15.1845H48.3078L47.2232 13.523C47.2463 13.7076 47.2463 13.8922 47.2463 14.0538V15.1845H47.0386V13.1999H47.2924L48.377 14.8615C48.377 14.8384 48.377 14.7692 48.354 14.6307C48.3309 14.4922 48.354 14.3999 48.354 14.3538V13.223H48.5617C48.5617 13.1768 48.5617 15.1845 48.5617 15.1845Z" fill="#ECF1F1"/>
<path d="M50.5232 14.1692C50.5232 14.4922 50.4309 14.7461 50.2463 14.9307C50.0617 15.1153 49.8078 15.1845 49.4848 15.1845H48.9309V13.1999H49.5309C49.8309 13.1999 50.0848 13.2922 50.2463 13.4538C50.4078 13.6153 50.5232 13.8461 50.5232 14.1692ZM50.2924 14.1692C50.2924 13.9153 50.2232 13.7076 50.1078 13.5922C49.9924 13.4768 49.7848 13.3845 49.5309 13.3845H49.1848V14.9768H49.4617C49.7386 14.9768 49.9463 14.9076 50.0848 14.7692C50.2232 14.6307 50.2924 14.4461 50.2924 14.1692Z" fill="#ECF1F1"/>
<path d="M58.7154 19.1999V19.9614H58.4846V18.1153H58.9923C59.2231 18.1153 59.3846 18.1614 59.5 18.2538C59.6154 18.3461 59.6615 18.4614 59.6615 18.6461C59.6615 18.8999 59.5462 19.0614 59.2923 19.1538L59.8 19.9845H59.5462L59.1077 19.223L58.7154 19.1999ZM58.7154 19.0153H59.0154C59.1769 19.0153 59.2692 18.9922 59.3615 18.923C59.4538 18.8538 59.4769 18.7615 59.4769 18.6461C59.4769 18.5307 59.4308 18.4384 59.3615 18.3922C59.2923 18.3461 59.1769 18.2999 59.0154 18.2999H58.7154V19.0153Z" fill="#ECF1F1"/>
<path d="M61.277 19.4768C61.277 19.6384 61.2078 19.7768 61.0924 19.8691C60.977 19.9614 60.8155 20.0076 60.6078 20.0076C60.377 20.0076 60.2155 19.9845 60.1001 19.9153V19.7076C60.1693 19.7307 60.2616 19.7537 60.3539 19.7768C60.4463 19.7999 60.5386 19.7999 60.6309 19.7999C60.7693 19.7999 60.8847 19.7768 60.9539 19.7076C61.0232 19.6614 61.0693 19.5691 61.0693 19.4768C61.0693 19.4076 61.0463 19.3614 61.0232 19.3153C61.0001 19.2691 60.9539 19.2461 60.8847 19.1999C60.8155 19.1537 60.7232 19.1307 60.6078 19.0845C60.4463 19.0153 60.3078 18.9461 60.2386 18.8537C60.1693 18.7614 60.1232 18.6691 60.1232 18.5307C60.1232 18.3922 60.1693 18.2768 60.2847 18.1845C60.4001 18.0922 60.5386 18.0461 60.7001 18.0461C60.8847 18.0461 61.0462 18.0691 61.2078 18.1384L61.1386 18.323C60.977 18.2537 60.8386 18.2307 60.7001 18.2307C60.5847 18.2307 60.4924 18.2537 60.4232 18.2999C60.3539 18.3461 60.3309 18.4153 60.3309 18.5076C60.3309 18.5768 60.3539 18.623 60.377 18.6691C60.4001 18.7153 60.4463 18.7384 60.4924 18.7845C60.5386 18.8076 60.6309 18.8537 60.7462 18.8999C60.9309 18.9691 61.0693 19.0384 61.1386 19.1307C61.2539 19.2461 61.277 19.3614 61.277 19.4768Z" fill="#ECF1F1"/>
<path d="M62.9615 19.5461H62.6846V19.9614H62.4769V19.5461H61.5769V19.3614L62.4538 18.1153H62.6846V19.3614H62.9615V19.5461ZM62.5 19.3614V18.7384C62.5 18.623 62.5 18.4845 62.5231 18.323C62.4769 18.4153 62.4538 18.4614 62.4077 18.5307L61.8308 19.3614H62.5Z" fill="#ECF1F1"/>
<path d="M63.8847 18.0922C64.0462 18.0922 64.1847 18.1384 64.277 18.2076C64.3693 18.2768 64.4154 18.3922 64.4154 18.5307C64.4154 18.623 64.3924 18.7153 64.3231 18.7845C64.2539 18.8538 64.1847 18.923 64.0462 18.9922C64.2078 19.0615 64.3001 19.1307 64.3693 19.223C64.4385 19.2922 64.4616 19.3845 64.4616 19.4999C64.4616 19.6615 64.4154 19.7768 64.3001 19.8691C64.1847 19.9615 64.0462 20.0076 63.8616 20.0076C63.6539 20.0076 63.5154 19.9615 63.4001 19.8691C63.2847 19.7768 63.2385 19.6615 63.2385 19.4999C63.2385 19.2922 63.377 19.1307 63.6308 18.9922C63.5154 18.923 63.4231 18.8538 63.377 18.7845C63.3308 18.7153 63.3078 18.623 63.3078 18.5307C63.3078 18.3922 63.3539 18.2999 63.4462 18.2076C63.5847 18.1384 63.7231 18.0922 63.8847 18.0922ZM63.4924 19.4999C63.4924 19.5922 63.5385 19.6845 63.6078 19.7307C63.677 19.7768 63.7693 19.823 63.9078 19.823C64.0231 19.823 64.1385 19.7999 64.2078 19.7307C64.277 19.6615 64.3231 19.5922 64.3231 19.4768C64.3231 19.3845 64.3001 19.3153 64.2308 19.2691C64.1616 19.223 64.0462 19.1538 63.8847 19.0845C63.7693 19.1307 63.677 19.1999 63.6078 19.2691C63.5154 19.3384 63.4924 19.4076 63.4924 19.4999ZM63.8847 18.2538C63.7693 18.2538 63.7001 18.2768 63.6308 18.323C63.5616 18.3691 63.5385 18.4384 63.5385 18.5307C63.5385 18.5999 63.5616 18.6691 63.6078 18.7384C63.6539 18.8076 63.7462 18.8538 63.8847 18.8999C64.0001 18.8538 64.0924 18.7845 64.1385 18.7384C64.1847 18.6691 64.2078 18.623 64.2078 18.5307C64.2078 18.4384 64.1847 18.3691 64.1154 18.323C64.0462 18.2768 64.0001 18.2538 63.8847 18.2538Z" fill="#ECF1F1"/>
<path d="M65.4769 18.8307C65.6616 18.8307 65.8231 18.8768 65.9385 18.9691C66.0539 19.0615 66.1 19.1999 66.1 19.3615C66.1 19.5461 66.0308 19.7076 65.9154 19.823C65.8 19.9384 65.6154 19.9845 65.4077 19.9845C65.2 19.9845 65.0385 19.9615 64.9231 19.8922V19.6845C64.9923 19.7307 65.0616 19.7538 65.1539 19.7768C65.2462 19.7999 65.3385 19.7999 65.4077 19.7999C65.5462 19.7999 65.6616 19.7538 65.7539 19.6845C65.8462 19.6153 65.8693 19.523 65.8693 19.3845C65.8693 19.1307 65.7077 18.9922 65.3846 18.9922C65.3154 18.9922 65.2 19.0153 65.0616 19.0384L64.9462 18.9691L65.0154 18.0922H65.9385V18.2768H65.2L65.1539 18.8307C65.2923 18.8538 65.3846 18.8307 65.4769 18.8307Z" fill="#ECF1F1"/>
<path d="M56.3616 17.6538L56.7077 15.9692H57.4693L57.8154 16.9846L58.577 15.9692H59.3616L59.0154 17.6538H58.5308L58.7616 16.4538L57.8846 17.6538H57.5154L57.077 16.4538L56.8462 17.6538H56.3616Z" stroke="#ECF1F1" stroke-width="0.115385" stroke-miterlimit="3.8637"/>
<path d="M60.9078 16.5461C60.8386 16.4768 60.6078 16.4538 60.3309 16.4538C59.9155 16.4538 59.6848 16.523 59.5694 16.6384C59.454 16.7538 59.3848 17.2384 59.3848 17.3076C59.3848 17.3538 59.3617 17.4922 59.454 17.5845C59.5463 17.6768 59.7771 17.6768 60.1232 17.6768C60.4694 17.6768 60.654 17.6076 60.7925 17.5384C60.9309 17.4461 61.0002 16.9845 61.0232 16.8461C61.0232 16.7076 60.9771 16.5922 60.9078 16.5461ZM60.5848 17.0768C60.5386 17.1922 60.5386 17.2615 60.4925 17.2845C60.4463 17.3076 60.2386 17.3307 60.1925 17.3307C60.1463 17.3307 59.9155 17.3307 59.8694 17.2845C59.8232 17.2384 59.8925 16.8691 59.9617 16.8461C60.0309 16.823 60.1694 16.7999 60.2848 16.7999C60.4463 16.7999 60.5617 16.7999 60.5848 16.8461C60.5848 16.8691 60.6078 16.9384 60.5848 17.0768Z" stroke="#ECF1F1" stroke-width="0.115385" stroke-miterlimit="3.8637"/>
<path d="M62.5694 15.9692L62.431 16.6384C62.3617 16.4999 62.2464 16.4538 61.9925 16.4538C61.5771 16.4538 61.4848 16.523 61.3694 16.6384C61.254 16.7538 61.1848 17.2384 61.1848 17.3076C61.1848 17.3538 61.1617 17.4923 61.254 17.5846C61.3464 17.6769 61.4156 17.6769 61.7617 17.6769C62.0848 17.6769 62.2002 17.5615 62.2694 17.4923L62.2463 17.6538H62.6617L62.9848 15.9692H62.5694ZM62.2463 17.2846C62.2002 17.3076 61.9925 17.3307 61.9233 17.3307C61.854 17.3307 61.6464 17.3307 61.6002 17.2846C61.554 17.2384 61.6233 16.8692 61.6925 16.8461C61.7617 16.823 61.9002 16.7999 62.0156 16.7999C62.1771 16.7999 62.2925 16.7999 62.3387 16.8461C62.3617 16.8692 62.3848 16.9153 62.3617 16.9615L62.3387 17.0999C62.3156 17.2153 62.2925 17.2615 62.2463 17.2846Z" stroke="#ECF1F1" stroke-width="0.115385" stroke-miterlimit="3.8637"/>
<path d="M64.554 16.5231C64.5078 16.4769 64.3694 16.4538 64.1155 16.4538C63.7924 16.4538 63.6771 16.5231 63.5617 16.6615L63.7001 15.9923H63.2848L62.9386 17.6769H63.354L63.3771 17.5154C63.4232 17.6308 63.4924 17.7 63.8617 17.7C64.2078 17.7 64.3001 17.6769 64.4155 17.5615C64.5309 17.4462 64.6232 17.0077 64.6463 16.8692C64.6694 16.7077 64.6463 16.5923 64.554 16.5231ZM64.2309 17.0769C64.1848 17.1923 64.1848 17.2615 64.1386 17.2846C64.0924 17.3077 63.8848 17.3308 63.8386 17.3308C63.7925 17.3308 63.5617 17.3308 63.5155 17.2846C63.4694 17.2385 63.5386 16.8692 63.6078 16.8462C63.6771 16.8231 63.8155 16.8 63.9309 16.8C64.0924 16.8 64.2078 16.8 64.2309 16.8462C64.254 16.8692 64.254 16.9385 64.2309 17.0769Z" stroke="#ECF1F1" stroke-width="0.115385" stroke-miterlimit="3.8637"/>
<path d="M66.077 16.4538C66.0539 16.4538 65.9385 17.123 65.8462 17.2153C65.7539 17.3076 65.5924 17.3307 65.5462 17.3307C65.5 17.3307 65.3616 17.3076 65.2924 17.2615C65.2231 17.1922 65.3616 16.5692 65.3847 16.4538H64.9693C64.9693 16.4538 64.8077 17.2153 64.8077 17.3307C64.8077 17.423 64.8077 17.6076 65.0847 17.6538C65.1539 17.6768 65.2231 17.6768 65.3154 17.6768C65.3847 17.6768 65.4539 17.6768 65.5 17.6538C65.7077 17.6076 65.8231 17.4922 65.8924 17.3999L65.8462 17.6538H66.2385L66.4693 16.4538H66.077Z" stroke="#ECF1F1" stroke-width="0.115385" stroke-miterlimit="3.8637"/>
<path d="M67.7384 16.823H68.1308C68.1308 16.823 68.1308 16.7307 68.1308 16.6846C68.1308 16.6384 68.1308 16.5923 68.0615 16.5C67.9923 16.4076 67.5308 16.4307 67.4615 16.4307C67.3923 16.4307 66.9769 16.4307 66.8846 16.523C66.7923 16.5923 66.7 16.7076 66.7 16.8923C66.7 17.1 66.8384 17.1692 67.0923 17.1692H67.5538C67.6231 17.1692 67.6923 17.1923 67.6923 17.2384C67.6923 17.2846 67.6461 17.3769 67.4846 17.3769H67.1846C67.1154 17.3769 66.9769 17.3538 66.9769 17.2846V17.2384H66.5846C66.5846 17.2384 66.5615 17.3076 66.5615 17.3538C66.5615 17.4 66.5615 17.4923 66.6308 17.5384C66.7 17.6076 66.9769 17.6307 67.2538 17.6307C67.5308 17.6307 67.8308 17.6076 67.9231 17.5153C68.0154 17.423 68.0615 17.2153 68.0615 17.123C68.0615 17.0307 68.0384 16.9846 67.9923 16.9384C67.9692 16.9153 67.8769 16.8461 67.4384 16.8461C67.0692 16.8461 67.0461 16.8 67.0461 16.7769C67.0461 16.7538 67.0461 16.6846 67.3461 16.6846C67.6923 16.7307 67.7384 16.7307 67.7384 16.823Z" stroke="#ECF1F1" stroke-width="0.115385" stroke-miterlimit="3.8637"/>
<path d="M51.3077 13.1768H51.8616C52.1154 13.1768 52.3231 13.223 52.4385 13.2922C52.5539 13.3614 52.6231 13.4999 52.6231 13.6614C52.6231 13.7768 52.6 13.8691 52.5308 13.9614C52.4616 14.0537 52.3693 14.0768 52.2539 14.0999V14.123C52.5539 14.1691 52.7154 14.3307 52.7154 14.6076C52.7154 14.7922 52.6462 14.9307 52.5308 15.023C52.4154 15.1153 52.2539 15.1614 52.0231 15.1614H51.3308C51.3077 15.1845 51.3077 13.1768 51.3077 13.1768ZM51.5385 14.0307H51.9308C52.0924 14.0307 52.2077 14.0076 52.277 13.9614C52.3462 13.9153 52.3924 13.823 52.3924 13.7076C52.3924 13.5922 52.3462 13.523 52.277 13.4768C52.2077 13.4307 52.0693 13.4076 51.8847 13.4076H51.5385C51.5385 13.3845 51.5385 14.0307 51.5385 14.0307ZM51.5385 14.2384V14.9768H51.9539C52.1154 14.9768 52.2308 14.9537 52.3231 14.8845C52.4154 14.8153 52.4385 14.723 52.4385 14.5845C52.4385 14.4691 52.3924 14.3768 52.3231 14.3076C52.2308 14.2384 52.1154 14.2153 51.9539 14.2153L51.5385 14.2384Z" fill="white"/>
<path d="M52.9694 14.1922C52.9694 13.9615 53.0155 13.7307 53.0847 13.523C53.154 13.3153 53.2463 13.1307 53.3847 12.9691H53.6155C53.477 13.1538 53.3847 13.3384 53.3155 13.5461C53.2463 13.7538 53.2232 13.9615 53.2232 14.1922C53.2232 14.3999 53.2463 14.6307 53.3155 14.8384C53.3847 15.0461 53.477 15.2307 53.6155 15.4153H53.4078C53.2694 15.2538 53.1771 15.0922 53.1078 14.8845C52.9924 14.6307 52.9694 14.423 52.9694 14.1922Z" fill="white"/>
<path d="M54.4233 14.0999H54.9771V14.2845H54.4233V14.8615H54.2387V14.2845H53.6848V14.0999H54.2387V13.523H54.4233V14.0999Z" fill="white"/>
<path d="M55.7156 14.1922C55.7156 14.423 55.6695 14.6537 55.6002 14.8614C55.531 15.0691 55.4387 15.2537 55.3002 15.3922H55.0925C55.2079 15.2307 55.3233 15.023 55.3925 14.8153C55.4618 14.6076 55.4848 14.3999 55.4848 14.1691C55.4848 13.9384 55.4618 13.7307 55.3925 13.523C55.3233 13.3153 55.231 13.1307 55.0925 12.946H55.3233C55.4618 13.1076 55.5541 13.2922 55.6233 13.4999C55.6695 13.7307 55.7156 13.9384 55.7156 14.1922Z" fill="white"/>
<path d="M41.2001 15.1845L40.9462 14.5384H40.1385L39.8847 15.1615H39.6539L40.4385 13.1538H40.6232L41.4078 15.1615H41.2001V15.1845ZM40.877 14.3307L40.6462 13.7076C40.6232 13.6384 40.577 13.523 40.5539 13.4307C40.5309 13.523 40.5078 13.6153 40.4616 13.7076L40.2309 14.3307H40.877Z" fill="white"/>
<path d="M41.5461 14.1923C41.5461 13.9615 41.5923 13.7307 41.6615 13.523C41.7308 13.3153 41.8231 13.1307 41.9615 12.9692H42.1923C42.0538 13.1538 41.9615 13.3384 41.8923 13.5461C41.8231 13.7538 41.8 13.9615 41.8 14.1923C41.8 14.3999 41.8231 14.6307 41.8923 14.8384C41.9615 15.0461 42.0538 15.2307 42.1923 15.4153H41.9846C41.8461 15.2538 41.7538 15.0923 41.6846 14.8846C41.5692 14.6307 41.5461 14.423 41.5461 14.1923Z" fill="white"/>
<path d="M42.2616 14.2846V14.0999H43.577V14.2846H42.2616Z" fill="white"/>
<path d="M44.2924 14.1922C44.2924 14.423 44.2462 14.6538 44.177 14.8615C44.1078 15.0692 44.0155 15.2538 43.877 15.3922H43.6693C43.7847 15.2307 43.9001 15.023 43.9693 14.8153C44.0385 14.6076 44.0616 14.3999 44.0616 14.1692C44.0616 13.9384 44.0385 13.7307 43.9693 13.523C43.9001 13.3153 43.8078 13.1307 43.6693 12.9461H43.9001C44.0385 13.1076 44.1309 13.2922 44.2001 13.4999C44.2462 13.7307 44.2924 13.9384 44.2924 14.1922Z" fill="white"/>
<path d="M37.7384 34.6847C37.7615 33.5078 38.7077 32.5847 39.8846 32.5847C41.0615 32.5847 42.0307 33.5539 42.0307 34.7308C42.0307 35.9078 41.0615 36.8539 39.8846 36.8539C38.7077 36.8539 37.7384 35.9078 37.7153 34.7308H37.1615C37.1615 36.2308 38.3846 37.4539 39.8846 37.4539C41.3846 37.4539 42.6307 36.2308 42.6307 34.7308C42.6307 33.2308 41.3846 32.0308 39.8846 32.0308C38.3846 32.0308 37.1846 33.2308 37.1615 34.7308H37.7384V34.6847Z" fill="#ECF1F1"/>
<path fill-rule="evenodd" clip-rule="evenodd" d="M48.677 35.1923C48.7463 35.1923 48.8616 35.2154 48.9078 35.2385C48.954 35.2615 48.977 35.2846 49.0001 35.3077C49.0232 35.3308 49.0463 35.3769 49.0693 35.4C49.0924 35.4231 49.1155 35.5615 49.1155 35.5615V36.6231H50.1309V35.1692C50.1309 35.1692 50.1309 35.0769 50.1078 34.9615C50.0847 34.8923 50.0616 34.8231 50.0155 34.7769C49.9924 34.7308 49.9463 34.6846 49.9232 34.6615C49.854 34.5923 49.8078 34.5462 49.7155 34.5231C49.6001 34.4769 49.3924 34.4308 49.254 34.4308C48.4924 34.3846 48.1001 34.6846 48.1001 34.6846V34.4539H47.0616V36.6462H48.1001V35.6539C48.1001 35.6539 48.1232 35.5846 48.1232 35.5615C48.1232 35.4923 48.3309 35.1692 48.677 35.1923Z" fill="#ECF1F1"/>
<path d="M53.5923 36.6H52.5769V33.6461H53.5923V36.6Z" fill="#ECF1F1"/>
<path d="M57.4231 34.4077H58.4154V34.5923C58.4154 34.5923 58.8308 34.2462 59.4769 34.3846C60.1692 34.5462 60.0308 35.4923 60.0308 35.4923H58.9923C58.9923 35.4923 58.9923 35.4231 58.9923 35.3539C58.9693 35.2385 58.9231 35.0769 58.6692 35.1C58.4154 35.1462 58.4154 35.3769 58.4154 35.3769V36.6H57.4462L57.4231 34.4077Z" fill="#ECF1F1"/>
<path d="M52.5771 35.4L52.6694 34.5692C52.5771 34.4769 52.4386 34.4077 52.254 34.3615C52.0694 34.2923 51.7924 34.3154 51.6309 34.3154C50.9848 34.3154 50.4309 34.8462 50.4309 35.4923C50.4309 36.1154 50.9617 36.6462 51.5848 36.6462C51.7463 36.6462 52.0232 36.6462 52.1848 36.6231C52.554 36.5308 52.7386 36.3692 52.854 36.1154L52.554 35.5154C52.5309 35.7462 52.3001 35.9308 52.0001 35.9308C51.7001 35.9308 51.4463 35.7231 51.4463 35.4923C51.4463 35.2385 51.7001 35.0538 52.0001 35.0538C52.3001 34.9846 52.5309 35.1692 52.5771 35.4Z" fill="#ECF1F1"/>
<path d="M54.2384 34.6385C54.4461 34.4077 54.9307 34.2693 55.5076 34.2693C56.0384 34.2693 56.4769 34.3847 56.7076 34.5923C56.9846 34.8 57.1692 35.1231 57.1692 35.4923C57.1692 35.5847 57.1692 35.5847 57.1461 35.677C57.1461 35.677 55.923 35.677 55.3461 35.677V35.1923C55.623 35.1923 56.1076 35.1923 56.0846 35.1923C56.0846 35.0539 55.9 34.8 55.5538 34.8C55.2538 34.7539 54.9769 35.0308 54.9769 35.1923H55.4384V35.677C55.323 35.677 54.9769 35.677 54.9769 35.677C55 35.9308 55.3461 36.0923 55.6 36.0923C55.7615 36.0923 55.9461 36.0462 56.0846 35.9077H57.1C57.0538 36.0231 57.0538 36.0923 56.9615 36.1847C56.7538 36.5077 56.1538 36.6923 55.5307 36.6923C55.0923 36.6923 54.7 36.6 54.4461 36.4385C54.4461 36.4385 53.9153 36.0923 53.9153 35.4693C53.8692 35.1462 54.0076 34.8462 54.2384 34.6385Z" fill="#ECF1F1"/>
<path d="M45.123 34.1538V33.6461C45.123 33.6461 44.546 33.6461 44.2691 33.6461C43.9922 33.6461 43.7614 33.8769 43.7614 34.1538V34.3846H43.4614V35.0077H43.7614V36.5769H44.7999V35.0077H45.146V34.3846H44.7768C44.7768 34.2461 44.823 34.1538 44.9614 34.1538C45.0307 34.1538 45.123 34.1538 45.123 34.1538Z" fill="#ECF1F1"/>
<path d="M45.5153 36.6V34.3846H46.5537V36.6H45.5153Z" fill="#ECF1F1"/>
<path d="M45.5153 34.1538V33.6461H46.5537V34.1538H45.5153Z" fill="#ECF1F1"/>
<path d="M40.0693 32.4231V35.8846L39.2616 35.0077C39.3539 35.0308 39.4231 35.0077 39.4923 34.9384C39.5616 34.8692 39.5616 34.8231 39.5616 34.7308V32.5154L39.0308 32.6769V34.4769H37.3923V35.0308H38.4308L39.7693 36.3231C39.9769 36.5538 40.1385 36.6923 40.3693 36.5769C40.5077 36.5077 40.5769 36.4154 40.6 36.2538V34.3846H41.2231C41.3616 34.3846 41.4539 34.2692 41.4769 34.1308C41.5 33.9692 41.3846 33.8538 41.2231 33.8308H40.6V32.6308L40.0693 32.4231Z" fill="#ECF1F1"/>
<path d="M46.2538 40.2001C46.0923 40.2001 45.9538 40.2001 45.7923 40.2231C44.523 40.4078 43.6692 41.3308 43.1846 42.0231C42.7 41.3308 41.8461 40.4078 40.5769 40.2231C40.4153 40.2001 40.2769 40.2001 40.1153 40.2001C38.4769 40.2001 37.1384 41.4924 37.1384 43.0616C37.1384 44.6308 38.4769 45.9231 40.1153 45.9231C40.2769 45.9231 40.4153 45.9231 40.5769 45.9001C41.8461 45.7154 42.7 44.7924 43.1846 44.1001C43.6692 44.7924 44.523 45.7154 45.7923 45.9001C45.9538 45.9231 46.0923 45.9231 46.2538 45.9231C47.8923 45.9231 49.2307 44.6308 49.2307 43.0616C49.2307 41.4924 47.8923 40.2001 46.2538 40.2001ZM40.4384 44.9078C40.323 44.9308 40.2307 44.9308 40.1153 44.9308C39.0307 44.9308 38.1538 44.1001 38.1538 43.0847C38.1538 42.0693 39.0307 41.2385 40.1153 41.2385C40.2077 41.2385 40.323 41.2385 40.4384 41.2616C41.6384 41.4231 42.3769 42.6231 42.6307 43.0847C42.3769 43.5462 41.6384 44.7231 40.4384 44.9078ZM46.2538 44.9308C46.1615 44.9308 46.0461 44.9308 45.9307 44.9078C44.7307 44.7462 43.9923 43.5462 43.7384 43.0847C43.9923 42.6001 44.7307 41.4231 45.9307 41.2616C46.0461 41.2385 46.1384 41.2385 46.2538 41.2385C47.3384 41.2385 48.2154 42.0693 48.2154 43.0847C48.2154 44.1001 47.3384 44.9308 46.2538 44.9308Z" fill="#ECF1F1"/>
<path d="M41.0845 42.7847H39.3076V43.3616H41.0845V42.7847Z" fill="#ECF1F1"/>
<path d="M46.4384 43.3616H47.0384V42.7847H46.4384V42.1847H45.8615V42.7847H45.2615V43.3616H45.8615V43.9616H46.4384V43.3616Z" fill="#ECF1F1"/>
<path d="M49.2075 40.3847C49.1845 40.3386 49.1614 40.3155 49.1383 40.2924C49.1152 40.2693 49.0691 40.2462 49.046 40.2232C48.9998 40.2001 48.9768 40.2001 48.9306 40.2001C48.8845 40.2001 48.8383 40.2001 48.8152 40.2232C48.7691 40.2462 48.746 40.2693 48.7229 40.2924C48.6998 40.3155 48.6768 40.3616 48.6537 40.3847C48.6306 40.4309 48.6306 40.477 48.6306 40.5232C48.6306 40.5693 48.6306 40.6155 48.6537 40.6386C48.6768 40.6847 48.6998 40.7078 48.7229 40.7309C48.746 40.7539 48.7922 40.777 48.8152 40.8001C48.8614 40.8232 48.8845 40.8232 48.9306 40.8232C48.9768 40.8232 49.0229 40.8232 49.046 40.8001C49.0922 40.777 49.1152 40.7539 49.1383 40.7309C49.1614 40.7078 49.1845 40.6616 49.2075 40.6386C49.2306 40.5924 49.2306 40.5462 49.2306 40.5232C49.2306 40.4539 49.2306 40.4078 49.2075 40.3847ZM49.1383 40.5924C49.1152 40.6155 49.1152 40.6386 49.0922 40.6616C49.0691 40.6847 49.046 40.7078 49.0229 40.7078C48.9998 40.7309 48.9537 40.7309 48.9306 40.7309C48.9075 40.7309 48.8614 40.7309 48.8383 40.7078C48.8152 40.6847 48.7922 40.6847 48.7691 40.6616C48.746 40.6386 48.7229 40.6155 48.7229 40.5924C48.6998 40.5693 48.6998 40.5232 48.6998 40.5001C48.6998 40.4539 48.6998 40.4309 48.7229 40.4078C48.746 40.3847 48.746 40.3616 48.7691 40.3386C48.7922 40.3155 48.8152 40.2924 48.8383 40.2924C48.8614 40.2693 48.9075 40.2693 48.9306 40.2693C48.9537 40.2693 48.9998 40.2693 49.0229 40.2924C49.046 40.3155 49.0691 40.3155 49.0922 40.3386C49.1152 40.3616 49.1383 40.3847 49.1383 40.4078C49.1614 40.4309 49.1614 40.477 49.1614 40.5001C49.1614 40.5462 49.1614 40.5693 49.1383 40.5924Z" fill="#ECF1F1"/>
<path d="M48.9999 40.5462C49.023 40.5462 49.023 40.5232 49.0461 40.5001C49.0461 40.477 49.0691 40.477 49.0691 40.4539C49.0691 40.4309 49.0692 40.4078 49.0461 40.3847C49.023 40.3616 48.9999 40.3616 48.9307 40.3616C48.9076 40.3616 48.8845 40.3616 48.8845 40.3616C48.8615 40.3616 48.8615 40.3616 48.8384 40.3616V40.6847H48.9076V40.5693H48.9307L48.9768 40.6847H49.0691L48.9999 40.5462ZM48.9076 40.5001H48.8845V40.4078H48.9076C48.9307 40.4078 48.9538 40.4309 48.9538 40.4539C48.9538 40.477 48.9538 40.5001 48.9076 40.5001Z" fill="#ECF1F1"/>
<path d="M38.4767 46.7771H38.0151L37.4844 48.4617H37.9228L38.0151 48.1156H38.4998L38.5921 48.4617H39.0305L38.4767 46.7771ZM38.0613 47.7925L38.2228 47.1694L38.3844 47.7925H38.0613Z" fill="#ECF1F1"/>
<path d="M40.2769 47.8616C40.4615 47.7693 40.5538 47.5847 40.5538 47.3539C40.5538 47.0308 40.3692 46.777 39.9076 46.777H39.2153V48.4616H39.6307V47.9308H39.8384L40.0923 48.4616H40.5769L40.2769 47.8616ZM39.8846 47.6078H39.6538V47.1231H39.8615C40.0461 47.1231 40.1153 47.1924 40.1153 47.3539C40.1153 47.5385 40.023 47.6078 39.8846 47.6078Z" fill="#ECF1F1"/>
<path d="M41.4306 46.777H40.8767V48.4616H41.4306C42.1459 48.4616 42.2613 48.0001 42.2613 47.6078C42.2613 47.077 42.0536 46.777 41.4306 46.777ZM41.4536 48.1155H41.2921V47.1001H41.4075C41.7767 47.1001 41.8229 47.2847 41.8229 47.6078C41.8229 47.9078 41.7998 48.1155 41.4536 48.1155Z" fill="#ECF1F1"/>
<path d="M43.4614 46.777V47.8155C43.4614 48.0693 43.3922 48.1616 43.2076 48.1616C43.046 48.1616 42.9537 48.0924 42.9537 47.8155V46.777H42.5383V47.8847C42.5383 48.3924 42.9076 48.4847 43.2076 48.4847C43.5076 48.4847 43.8999 48.3693 43.8999 47.8847V46.777H43.4614Z" fill="#ECF1F1"/>
<path d="M45.5152 47.1231V46.777H44.2229V47.1231H44.6614V48.1155H44.2229V48.4616H45.5152V48.1155H45.0767V47.1231H45.5152Z" fill="#ECF1F1"/>
<path d="M46.8307 46.777V47.7924L46.2768 46.777H45.8153V48.4616H46.2076V47.377L46.7845 48.4616H47.1999V46.777H46.8307Z" fill="#ECF1F1"/>
<path d="M48.1692 46.7539C47.6616 46.7539 47.4539 47.1232 47.4539 47.6539C47.4539 48.2078 47.6846 48.5078 48.1692 48.5078C48.7231 48.5078 48.8846 48.1155 48.8846 47.6308C48.9077 46.9847 48.6539 46.7539 48.1692 46.7539ZM48.1692 48.1616C47.9385 48.1616 47.8923 48.0001 47.8923 47.6539C47.8923 47.2385 47.9385 47.1001 48.1462 47.1001C48.4 47.1001 48.4231 47.2155 48.4231 47.6308C48.4462 48.0231 48.4231 48.1616 48.1692 48.1616Z" fill="#ECF1F1"/>
<path d="M51.0077 41.2847V44.8385H58.9462V41.2847H51.0077Z" stroke="#ECF1F1" stroke-width="0.129923" stroke-miterlimit="3.864"/>
<path d="M53.1076 42.1847H52.4153V43.9155H52.8537V43.4078H53.0845C53.5461 43.4078 53.7768 43.1539 53.7768 42.7847C53.7768 42.4385 53.5922 42.1847 53.1076 42.1847ZM53.0614 43.0385H52.8307V42.5308H53.0384C53.2691 42.5308 53.2922 42.6462 53.2922 42.7847C53.3153 42.9693 53.2461 43.0385 53.0614 43.0385ZM55.323 43.2693C55.5076 43.177 55.5999 42.9924 55.5999 42.7616C55.5999 42.4155 55.4153 42.1847 54.9307 42.1847H54.2384V43.9155H54.6768V43.3616H54.8845L55.1384 43.9155H55.6461L55.323 43.2693ZM54.9076 43.0155H54.6768V42.5308H54.9076C55.1153 42.5308 55.1614 42.6001 55.1614 42.7616C55.1614 42.9462 55.0461 43.0155 54.9076 43.0155ZM56.7768 42.1616C56.2461 42.1616 56.0384 42.5539 56.0384 43.0616C56.0384 43.6385 56.2691 43.9385 56.7768 43.9385C57.3307 43.9385 57.5153 43.5462 57.5153 43.0385C57.5153 42.3924 57.2845 42.1616 56.7768 42.1616ZM56.7768 43.5924C56.523 43.5924 56.4999 43.4078 56.4999 43.0616C56.4999 42.6462 56.5461 42.5078 56.7768 42.5078C57.0307 42.5078 57.0537 42.6231 57.0537 43.0616C57.0768 43.4539 57.0307 43.5924 56.7768 43.5924Z" fill="#ECF1F1"/>
<path d="M59.6615 41.3308H59.5461V41.6539H59.4768V41.3308H59.3615V41.2616H59.6845V41.3308H59.6615Z" fill="#ECF1F1"/>
<path d="M59.9615 41.4L59.8923 41.5385H59.8461L59.7769 41.4V41.6769H59.7076V41.2846H59.7769L59.8692 41.4692L59.9615 41.2846H60.0307V41.6769H59.9615V41.4Z" fill="#ECF1F1"/>
<path d="M23.6846 43.5693H6.63074V50.077H23.6846V43.5693Z" stroke="white" stroke-width="0.214546" stroke-miterlimit="3.864"/>
<path d="M11.9384 46.8693C11.9384 47.4462 11.8 47.8847 11.5 48.2078C11.2 48.5309 10.8077 48.6693 10.2769 48.6693C9.74613 48.6693 9.33075 48.5078 9.03075 48.2078C8.73075 47.9078 8.59229 47.4462 8.59229 46.8693C8.59229 46.2924 8.73075 45.8539 9.03075 45.5309C9.30767 45.2309 9.72305 45.0693 10.2769 45.0693C10.8077 45.0693 11.2231 45.2309 11.5 45.5309C11.7769 45.8309 11.9384 46.2924 11.9384 46.8693ZM9.3769 46.8693C9.3769 47.2616 9.44613 47.5616 9.60767 47.7462C9.74613 47.9539 9.9769 48.0462 10.2769 48.0462C10.8769 48.0462 11.1538 47.6539 11.1538 46.8693C11.1538 46.0847 10.8538 45.6924 10.2769 45.6924C9.9769 45.6924 9.76921 45.7847 9.60767 45.9924C9.46921 46.177 9.3769 46.477 9.3769 46.8693Z" fill="white"/>
<path d="M15.077 46.2232C15.077 46.5924 14.9616 46.8924 14.7308 47.077C14.5001 47.2847 14.1539 47.377 13.7385 47.377H13.4155V48.6232H12.677V45.1155H13.7847C14.2001 45.1155 14.5232 45.2078 14.7539 45.3924C14.9616 45.577 15.077 45.8539 15.077 46.2232ZM13.3924 46.777H13.6462C13.877 46.777 14.0385 46.7308 14.1539 46.6385C14.2693 46.5462 14.3155 46.4078 14.3155 46.2462C14.3155 46.0616 14.2693 45.9462 14.177 45.8539C14.0847 45.7616 13.9232 45.7385 13.7385 45.7385H13.3924V46.777Z" fill="white"/>
<path d="M17.0845 48.6232H16.3461V45.7385H15.3999V45.1155H18.0307V45.7385H17.0845V48.6232Z" fill="white"/>
<path d="M20.7075 48.6232L20.4537 47.7924H19.1845L18.9306 48.6232H18.1229L19.3691 45.1155H20.2691L21.5152 48.6232H20.7075ZM20.2922 47.1693C20.0614 46.4078 19.9229 45.9924 19.8998 45.9001C19.8768 45.8078 19.8537 45.7155 19.8306 45.6693C19.7845 45.877 19.6229 46.3847 19.3691 47.1924H20.2922V47.1693Z" fill="white"/>
<path d="M70.9231 37.7308L71.5231 37.5V36.7616L70.9231 36.5308V36.3231L72.7923 37.0616V37.2462L70.9231 37.9847V37.7308ZM71.7077 37.4539L72.2846 37.2462C72.3539 37.2231 72.4462 37.2 72.5616 37.1539C72.4693 37.1308 72.4 37.1077 72.2846 37.0847L71.7077 36.877V37.4539Z" fill="#ECF1F1"/>
<path d="M70.9231 38.5616V38.3539H72.7692V39.3924H72.5846V38.5847H71.9154V39.3462H71.7308V38.5847H70.9231V38.5616Z" fill="#ECF1F1"/>
<path d="M70.9231 41.0539V40.8L71.7308 40.2923L70.9231 39.7846V39.5539L71.8923 40.177L72.7692 39.6V39.8308L72.0308 40.2923L72.7692 40.7539V40.9847L71.8923 40.4077L70.9231 41.0539Z" fill="#ECF1F1"/>
<path d="M71.8461 42.5539C71.523 42.5539 71.2922 42.5077 71.1307 42.3923C70.9691 42.3 70.8999 42.1385 70.8999 41.9308C70.8999 41.7231 70.9922 41.5846 71.1537 41.4692C71.3153 41.3539 71.5461 41.3077 71.8691 41.3077C72.1922 41.3077 72.423 41.3539 72.5845 41.4692C72.7461 41.5616 72.8153 41.7231 72.8153 41.9308C72.8153 42.1385 72.723 42.2769 72.5614 42.3923C72.3999 42.5077 72.1461 42.5539 71.8461 42.5539ZM71.8461 41.5385C71.5691 41.5385 71.3845 41.5616 71.2461 41.6308C71.1307 41.7 71.0614 41.7923 71.0614 41.9308C71.0614 42.0692 71.1307 42.1616 71.2461 42.2308C71.3614 42.3 71.5691 42.3231 71.823 42.3231C72.0999 42.3231 72.2845 42.3 72.3999 42.2308C72.5153 42.1616 72.5845 42.0692 72.5845 41.9308C72.5845 41.7923 72.5153 41.7 72.3999 41.6308C72.3076 41.5616 72.123 41.5385 71.8461 41.5385Z" fill="#ECF1F1"/>
<path d="M71.8461 44.1693C71.523 44.1693 71.2922 44.1231 71.1307 44.0077C70.9691 43.9154 70.8999 43.7539 70.8999 43.5462C70.8999 43.3385 70.9922 43.2 71.1537 43.0846C71.3153 42.9693 71.5461 42.9231 71.8691 42.9231C72.1922 42.9231 72.423 42.9693 72.5845 43.0846C72.7461 43.177 72.8153 43.3385 72.8153 43.5462C72.8153 43.7539 72.723 43.8923 72.5614 44.0077C72.3999 44.1231 72.1461 44.1693 71.8461 44.1693ZM71.8461 43.1539C71.5691 43.1539 71.3845 43.177 71.2461 43.2462C71.1307 43.3154 71.0614 43.4077 71.0614 43.5462C71.0614 43.6846 71.1307 43.777 71.2461 43.8462C71.3614 43.9154 71.5691 43.9385 71.823 43.9385C72.0999 43.9385 72.2845 43.9154 72.3999 43.8462C72.5153 43.777 72.5845 43.6846 72.5845 43.5462C72.5845 43.4077 72.5153 43.3154 72.3999 43.2462C72.3076 43.2 72.123 43.1539 71.8461 43.1539Z" fill="#ECF1F1"/>
<path d="M71.8461 45.7846C71.523 45.7846 71.2922 45.7385 71.1307 45.6231C70.9691 45.5308 70.8999 45.3692 70.8999 45.1615C70.8999 44.9539 70.9922 44.8154 71.1537 44.7C71.3153 44.5846 71.5461 44.5385 71.8691 44.5385C72.1922 44.5385 72.423 44.5846 72.5845 44.7C72.7461 44.7923 72.8153 44.9539 72.8153 45.1615C72.8153 45.3692 72.723 45.5077 72.5614 45.6231C72.3999 45.7385 72.1461 45.7846 71.8461 45.7846ZM71.8461 44.7692C71.5691 44.7692 71.3845 44.7923 71.2461 44.8615C71.1307 44.9308 71.0614 45.0231 71.0614 45.1615C71.0614 45.3 71.1307 45.3923 71.2461 45.4615C71.3614 45.5308 71.5691 45.5539 71.823 45.5539C72.0999 45.5539 72.2845 45.5308 72.3999 45.4615C72.5153 45.3923 72.5845 45.3 72.5845 45.1615C72.5845 45.0231 72.5153 44.9308 72.3999 44.8615C72.3076 44.8154 72.123 44.7692 71.8461 44.7692Z" fill="#ECF1F1"/>
<path d="M71.8461 47.4001C71.523 47.4001 71.2922 47.3539 71.1307 47.2385C70.9691 47.1462 70.8999 46.9847 70.8999 46.777C70.8999 46.5693 70.9922 46.4308 71.1537 46.3154C71.3153 46.2001 71.5461 46.1539 71.8691 46.1539C72.1922 46.1539 72.423 46.2001 72.5845 46.3154C72.7461 46.4077 72.8153 46.5693 72.8153 46.777C72.8153 46.9847 72.723 47.1231 72.5614 47.2385C72.3999 47.3539 72.1461 47.4001 71.8461 47.4001ZM71.8461 46.3847C71.5691 46.3847 71.3845 46.4077 71.2461 46.477C71.1307 46.5462 71.0614 46.6385 71.0614 46.777C71.0614 46.9154 71.1307 47.0077 71.2461 47.077C71.3614 47.1462 71.5691 47.1693 71.823 47.1693C72.0999 47.1693 72.2845 47.1462 72.3999 47.077C72.5153 47.0077 72.5845 46.9154 72.5845 46.777C72.5845 46.6385 72.5153 46.5462 72.3999 46.477C72.3076 46.4308 72.123 46.3847 71.8461 46.3847Z" fill="#ECF1F1"/>
<path d="M70.9231 49.0154V47.7923H71.1077L71.5923 48.277C71.7539 48.4154 71.8462 48.5308 71.9154 48.577C71.9846 48.6231 72.0539 48.6693 72.1 48.6923C72.1693 48.7154 72.2154 48.7385 72.3077 48.7385C72.4 48.7385 72.4923 48.7154 72.5385 48.6462C72.6077 48.577 72.6308 48.5077 72.6308 48.3923C72.6308 48.3231 72.6077 48.2539 72.5846 48.1847C72.5616 48.1154 72.5154 48.0462 72.4462 47.9539L72.5846 47.8385C72.7231 48 72.7923 48.1846 72.7923 48.3923C72.7923 48.577 72.7462 48.6923 72.6539 48.8077C72.5616 48.9 72.4462 48.9462 72.2846 48.9462C72.1692 48.9462 72.0539 48.9231 71.9385 48.8539C71.8231 48.7846 71.6846 48.6693 71.5 48.4847L71.1077 48.0693V49.0154H70.9231Z" fill="#ECF1F1"/>
</g>
<defs>
<linearGradient id="paint0_linear_9623_8112" x1="37" y1="0" x2="37" y2="74" gradientUnits="userSpaceOnUse">
<stop offset="0.857521"/>
<stop offset="1" stop-opacity="0"/>
</linearGradient>
</defs>
</svg>
